cltworkhorse.glyphspackage
{
glyphname = exclam;
layers = (
{
layerId = m01;
shapes = (
{
closed = 1;
nodes = (
(153,212,l),
(172,540,l),
(172,680,l),
(72,680,l),
(72,540,l),
(91,212,l)
);
},
{
pos = (18,0);
ref = period;
}
);
width = 244;
},
{
layerId = "E9FB66CC-5D7A-47B2-9A25-A0E8EEF5BB81";
shapes = (
{
closed = 1;
nodes = (
(178,220,l),
(209,532,l),
(209,692,l),
(64,692,l),
(64,532,l),
(96,220,l)
);
},
{
pos = (19,0);
ref = period;
}
);
width = 274;
},
{
layerId = "980A8AF2-BF11-492D-9410-496A94B21BD3";
shapes = (
{
closed = 1;
nodes = (
(101,212,l),
(166,540,l),
(186,680,l),
(86,680,l),
(66,540,l),
(39,212,l)
);
},
{
pos = (-15,0);
ref = period;
}
);
width = 219;
},
{
layerId = "829AF10C-3E33-4291-B5B6-8F7CF12D6A62";
shapes = (
{
closed = 1;
nodes = (
(101,220,l),
(176,532,l),
(198,692,l),
(53,692,l),
(31,532,l),
(19,220,l)
);
},
{
pos = (-26,0);
ref = period;
}
);
width = 213;
}
);
metricLeft = l;
metricRight = l;
unicode = 33;
userData = {
KernOnSpecialSpacing = {
L = "spaced-off";
};
};
}
{
glyphname = numbersign;
layers = (
{
layerId = m01;
shapes = (
{
closed = 1;
nodes = (
(377,0,l),
(525,700,l),
(451,700,l),
(303,0,l)
);
},
{
closed = 1;
nodes = (
(539,182,l),
(553,250,l),
(17,250,l),
(3,182,l)
);
},
{
closed = 1;
nodes = (
(145,0,l),
(293,700,l),
(219,700,l),
(71,0,l)
);
},
{
closed = 1;
nodes = (
(581,452,l),
(595,520,l),
(59,520,l),
(45,452,l)
);
}
);
width = 598;
},
{
layerId = "E9FB66CC-5D7A-47B2-9A25-A0E8EEF5BB81";
width = 626;
}
);
unicode = 35;
}
{
glyphname = dollar;
layers = (
{
layerId = m01;
shapes = (
{
alignment = -1;
ref = S;
},
{
closed = 1;
nodes = (
(363,-130,l),
(363,860,l),
(283,860,l),
(283,-130,l)
);
}
);
width = 637;
},
{
layerId = "E9FB66CC-5D7A-47B2-9A25-A0E8EEF5BB81";
width = 628;
}
);
metricLeft = S;
metricRight = S;
unicode = 36;
userData = {
KernOnSpecialSpacing = {
L = symbols;
R = symbols;
};
};
}
{
glyphname = ampersand;
layers = (
{
layerId = m01;
shapes = (
{
closed = 1;
nodes = (
(656,36,l),
(636,95,o),
(589,162,o),
(524,220,cs),
(382,347,o),
(192,413,o),
(192,543,cs),
(192,603,o),
(233,640,o),
(300,640,cs),
(374,640,o),
(426,593,o),
(436,517,c),
(524,544,l),
(508,646,o),
(422,712,o),
(302,712,cs),
(181,712,o),
(100,646,o),
(100,548,cs),
(100,483,o),
(137,416,o),
(192,372,cs),
(428,184,ls),
(499,128,o),
(555,51,o),
(572,-14,c)
);
},
{
closed = 1;
nodes = (
(473,-12,o),
(608,132,o),
(620,348,c),
(532,364,l),
(528,177,o),
(438,62,o),
(290,62,cs),
(193,62,o),
(130,111,o),
(130,192,cs),
(130,260,o),
(176,316,o),
(252,340,c),
(208,372,l),
(105,350,o),
(36,273,o),
(36,178,cs),
(36,65,o),
(135,-12,o),
(278,-12,cs)
);
}
);
width = 676;
},
{
associatedMasterId = m01;
layerId = "2743AE31-5E10-493A-AAF8-244AFE4C878D";
width = 638;
},
{
layerId = "E9FB66CC-5D7A-47B2-9A25-A0E8EEF5BB81";
width = 638;
}
);
unicode = 38;
userData = {
KernOnSpecialSpacing = {
L = symbols;
R = symbols;
};
};
}
{
glyphname = quotesingle;
layers = (
{
layerId = m01;
shapes = (
{
closed = 1;
nodes = (
(124,413,l),
(138,681,l),
(47,681,l),
(60,413,l)
);
}
);
width = 179;
},
{
layerId = "E9FB66CC-5D7A-47B2-9A25-A0E8EEF5BB81";
shapes = (
{
closed = 1;
nodes = (
(150,395,l),
(171,692,l),
(40,692,l),
(60,395,l)
);
}
);
width = 211;
}
);
unicode = 39;
userData = {
KernOnSpecialSpacing = {
L = quotes;
R = quotes;
};
};
}
{
glyphname = parenleft;
layers = (
{
layerId = m01;
shapes = (
{
closed = 1;
nodes = (
(268,-224,l),
(180,-102,o),
(128,72,o),
(128,248,cs),
(128,424,o),
(178,588,o),
(264,712,c),
(192,712,l),
(98,592,o),
(36,412,o),
(36,244,cs),
(36,80,o),
(98,-100,o),
(196,-224,c)
);
}
);
width = 268;
},
{
associatedMasterId = m01;
layerId = "2743AE31-5E10-493A-AAF8-244AFE4C878D";
width = 434;
},
{
layerId = "E9FB66CC-5D7A-47B2-9A25-A0E8EEF5BB81";
width = 434;
}
);
unicode = 40;
userData = {
KernOnSpecialSpacing = {
R = parenthesis;
};
};
}
{
glyphname = asterisk;
layers = (
{
layerId = m01;
name = Regular;
shapes = (
{
closed = 1;
nodes = (
(100,562,l),
(156,554,l),
(156,558,l),
(112,516,l),
(78,466,l),
(130,428,l),
(166,476,l),
(191,524,l),
(187,524,l),
(212,476,l),
(248,428,l),
(300,466,l),
(266,516,l),
(222,558,l),
(222,554,l),
(278,562,l),
(334,580,l),
(316,644,l),
(258,626,l),
(210,600,l),
(214,596,l),
(222,652,l),
(222,712,l),
(156,712,l),
(156,652,l),
(164,596,l),
(168,600,l),
(120,626,l),
(62,644,l),
(44,580,l)
);
}
);
width = 378;
},
{
layerId = "E9FB66CC-5D7A-47B2-9A25-A0E8EEF5BB81";
shapes = (
{
closed = 1;
nodes = (
(103,540,l),
(175,529,l),
(175,568,l),
(110,507,l),
(67,444,l),
(139,391,l),
(184,452,l),
(219,519,l),
(183,519,l),
(218,452,l),
(263,391,l),
(335,444,l),
(292,507,l),
(227,568,l),
(227,529,l),
(299,540,l),
(370,562,l),
(345,650,l),
(271,628,l),
(208,593,l),
(235,566,l),
(247,646,l),
(247,722,l),
(155,722,l),
(155,646,l),
(167,566,l),
(195,593,l),
(130,628,l),
(56,651,l),
(32,562,l)
);
}
);
width = 402;
},
{
associatedMasterId = m01;
background = {
shapes = (
{
closed = 1;
nodes = (
(305,468,l),
(270,514,l),
(231,553,l),
(286,562,l),
(340,580,l),
(320,643,l),
(265,625,l),
(217,600,l),
(225,654,l),
(225,713,l),
(159,713,l),
(159,654,l),
(167,600,l),
(119,626,l),
(65,642,l),
(44,580,l),
(98,563,l),
(152,553,l),
(113,514,l),
(79,468,l),
(134,428,l),
(167,476,l),
(192,524,l),
(217,476,l),
(251,428,l)
);
}
);
};
layerId = "B917653A-9BE7-4628-89B3-6436212C65BF";
name = "30 apr 23, 10:40";
shapes = (
{
closed = 1;
nodes = (
(210,567,l),
(225,653,l),
(225,713,l),
(158,713,l),
(158,653,l),
(173,567,l)
);
},
{
closed = 1;
nodes = (
(197,549,l),
(283,561,l),
(339,580,l),
(319,643,l),
(262,625,l),
(186,584,l)
);
},
{
closed = 1;
nodes = (
(121,625,l),
(64,643,l),
(44,580,l),
(100,561,l),
(186,549,l),
(197,584,l)
);
},
{
closed = 1;
nodes = (
(178,553,l),
(216,475,l),
(251,428,l),
(305,467,l),
(271,515,l),
(208,575,l)
);
},
{
closed = 1;
nodes = (
(112,515,l),
(78,467,l),
(132,428,l),
(167,475,l),
(204,553,l),
(175,575,l)
);
}
);
width = 383;
},
{
layerId = "980A8AF2-BF11-492D-9410-496A94B21BD3";
name = Regular;
shapes = (
{
closed = 1;
nodes = (
(97,562,l),
(152,554,l),
(153,558,l),
(103,516,l),
(62,466,l),
(109,428,l),
(151,476,l),
(183,524,l),
(179,524,l),
(197,476,l),
(227,428,l),
(284,466,l),
(257,516,l),
(219,558,l),
(218,554,l),
(275,562,l),
(334,580,l),
(325,644,l),
(264,626,l),
(213,600,l),
(216,596,l),
(232,652,l),
(241,712,l),
(175,712,l),
(166,652,l),
(166,596,l),
(171,600,l),
(126,626,l),
(71,644,l),
(44,580,l)
);
}
);
width = 378;
},
{
associatedMasterId = "980A8AF2-BF11-492D-9410-496A94B21BD3";
background = {
shapes = (
{
closed = 1;
nodes = (
(305,468,l),
(270,514,l),
(231,553,l),
(286,562,l),
(340,580,l),
(320,643,l),
(265,625,l),
(217,600,l),
(225,654,l),
(225,713,l),
(159,713,l),
(159,654,l),
(167,600,l),
(119,626,l),
(65,642,l),
(44,580,l),
(98,563,l),
(152,553,l),
(113,514,l),
(79,468,l),
(134,428,l),
(167,476,l),
(192,524,l),
(217,476,l),
(251,428,l)
);
}
);
};
layerId = "3B558CE3-1C1B-4A7B-9495-5B64DA672D5F";
name = "30 apr 23, 10:40";
shapes = (
{
closed = 1;
nodes = (
(210,567,l),
(225,653,l),
(225,713,l),
(158,713,l),
(158,653,l),
(173,567,l)
);
},
{
closed = 1;
nodes = (
(197,549,l),
(283,561,l),
(339,580,l),
(319,643,l),
(262,625,l),
(186,584,l)
);
},
{
closed = 1;
nodes = (
(121,625,l),
(64,643,l),
(44,580,l),
(100,561,l),
(186,549,l),
(197,584,l)
);
},
{
closed = 1;
nodes = (
(178,553,l),
(216,475,l),
(251,428,l),
(305,467,l),
(271,515,l),
(208,575,l)
);
},
{
closed = 1;
nodes = (
(112,515,l),
(78,467,l),
(132,428,l),
(167,475,l),
(204,553,l),
(175,575,l)
);
}
);
width = 383;
},
{
layerId = "829AF10C-3E33-4291-B5B6-8F7CF12D6A62";
shapes = (
{
closed = 1;
nodes = (
(100,540,l),
(170,529,l),
(176,568,l),
(102,507,l),
(50,444,l),
(115,391,l),
(169,452,l),
(213,519,l),
(177,519,l),
(203,452,l),
(239,391,l),
(318,444,l),
(284,507,l),
(228,568,l),
(222,529,l),
(296,540,l),
(370,562,l),
(357,650,l),
(280,628,l),
(212,593,l),
(236,566,l),
(259,646,l),
(269,722,l),
(177,722,l),
(167,646,l),
(168,566,l),
(199,593,l),
(139,628,l),
(69,651,l),
(32,562,l)
);
}
);
width = 402;
}
);
metricRight = "=|";
unicode = 42;
userData = {
KernOnSpecialSpacing = {
L = quotes;
R = quotes;
};
};
}
{
glyphname = plus;
layers = (
{
layerId = m01;
shapes = (
{
closed = 1;
nodes = (
(340,76,l),
(340,540,l),
(260,540,l),
(260,76,l)
);
},
{
closed = 1;
nodes = (
(548,268,l),
(548,344,l),
(52,344,l),
(52,268,l)
);
}
);
width = 600;
},
{
layerId = "E9FB66CC-5D7A-47B2-9A25-A0E8EEF5BB81";
shapes = (
{
closed = 1;
nodes = (
(342,76,l),
(342,540,l),
(242,540,l),
(242,76,l)
);
},
{
closed = 1;
nodes = (
(540,260,l),
(540,352,l),
(44,352,l),
(44,260,l)
);
}
);
width = 584;
}
);
metricRight = "=|";
unicode = 43;
userData = {
KernOnSpecialSpacing = {
L = math;
R = math;
};
};
}
{
glyphname = comma;
layers = (
{
layerId = m01;
shapes = (
{
closed = 1;
nodes = (
(122,-116,o),
(162,-60,o),
(162,8,cs),
(162,116,l),
(48,116,l),
(48,0,l),
(108,0,l),
(108,-8,ls),
(108,-48,o),
(82,-78,o),
(40,-88,c),
(58,-136,l)
);
}
);
width = 210;
},
{
layerId = "E9FB66CC-5D7A-47B2-9A25-A0E8EEF5BB81";
shapes = (
{
closed = 1;
nodes = (
(140,-138,o),
(195,-71,o),
(195,11,cs),
(195,153,l),
(45,153,l),
(45,0,l),
(119,0,l),
(119,-4,ls),
(119,-49,o),
(88,-81,o),
(35,-89,c),
(58,-156,l)
);
}
);
width = 236;
}
);
metricRight = period;
unicode = 44;
userData = {
KernOnSpecialSpacing = {
L = period;
R = period;
};
};
}
{
glyphname = hyphen;
layers = (
{
layerId = m01;
shapes = (
{
closed = 1;
nodes = (
(342,243,l),
(342,325,l),
(56,325,l),
(56,243,l)
);
}
);
width = 398;
},
{
layerId = "E9FB66CC-5D7A-47B2-9A25-A0E8EEF5BB81";
shapes = (
{
closed = 1;
nodes = (
(376,235,l),
(376,355,l),
(56,355,l),
(56,235,l)
);
}
);
width = 432;
}
);
metricRight = "=|";
unicode = 45;
userData = {
KernOnName = hyphen;
KernOnSpecialSpacing = {
L = hyphen;
R = hyphen;
};
};
}
{
glyphname = period;
layers = (
{
layerId = m01;
shapes = (
{
closed = 1;
nodes = (
(172,0,l),
(172,126,l),
(50,126,l),
(50,0,l)
);
}
);
width = 222;
},
{
layerId = "E9FB66CC-5D7A-47B2-9A25-A0E8EEF5BB81";
shapes = (
{
closed = 1;
nodes = (
(205,0,l),
(205,159,l),
(42,159,l),
(42,0,l)
);
}
);
width = 247;
}
);
metricRight = "=|";
unicode = 46;
userData = {
KernOnName = period;
KernOnSpecialSpacing = {
L = period;
R = period;
};
};
}
{
glyphname = slash;
layers = (
{
layerId = m01;
shapes = (
{
closed = 1;
nodes = (
(95,-112,l),
(409,692,l),
(326,692,l),
(11,-112,l)
);
}
);
width = 420;
},
{
layerId = "E9FB66CC-5D7A-47B2-9A25-A0E8EEF5BB81";
width = 506;
}
);
metricRight = "=|";
unicode = 47;
userData = {
KernOnSpecialSpacing = {
L = slash;
R = slash;
};
};
}
{
glyphname = zero;
layers = (
{
layerId = m01;
shapes = (
{
closed = 1;
nodes = (
(466,-14,o),
(572,128,o),
(572,340,cs),
(572,552,o),
(466,694,o),
(306,694,cs),
(146,694,o),
(40,552,o),
(40,340,cs),
(40,128,o),
(146,-14,o),
(306,-14,cs)
);
},
{
closed = 1;
nodes = (
(202,64,o),
(132,175,o),
(132,341,cs),
(132,507,o),
(202,618,o),
(306,618,cs),
(410,618,o),
(480,507,o),
(480,341,cs),
(480,175,o),
(410,64,o),
(306,64,cs)
);
}
);
width = 612;
},
{
layerId = "E9FB66CC-5D7A-47B2-9A25-A0E8EEF5BB81";
shapes = (
{
closed = 1;
nodes = (
(495,-14,o),
(610,130,o),
(610,346,cs),
(610,562,o),
(495,706,o),
(323,706,cs),
(151,706,o),
(36,562,o),
(36,346,cs),
(36,130,o),
(151,-14,o),
(323,-14,cs)
);
},
{
closed = 1;
nodes = (
(233,94,o),
(176,191,o),
(176,347,cs),
(176,503,o),
(233,600,o),
(323,600,cs),
(413,600,o),
(470,503,o),
(470,347,cs),
(470,191,o),
(413,94,o),
(323,94,cs)
);
}
);
width = 646;
}
);
metricRight = "=|";
unicode = 48;
}
{
glyphname = one;
layers = (
{
background = {
shapes = (
{
closed = 1;
nodes = (
(306,0,l),
(306,732,l),
(222,732,l),
(190,654,o),
(114,598,o),
(25,586,c),
(30,494,l),
(117,506,o),
(191,552,o),
(220,607,c),
(212,607,l),
(212,0,l)
);
}
);
};
layerId = m01;
shapes = (
{
closed = 1;
nodes = (
(307,0,l),
(307,732,l),
(222,732,l),
(191,656,o),
(118,604,o),
(25,590,c),
(31,498,l),
(119,508,o),
(193,555,o),
(221,620,c),
(213,620,l),
(213,0,l)
);
}
);
width = 391;
},
{
layerId = "E9FB66CC-5D7A-47B2-9A25-A0E8EEF5BB81";
shapes = (
{
closed = 1;
nodes = (
(358,0,l),
(358,745,l),
(227,745,l),
(183,670,o),
(107,615,o),
(16,597,c),
(25,449,l),
(111,464,o),
(184,527,o),
(219,593,c),
(210,593,l),
(210,0,l)
);
}
);
width = 434;
}
);
unicode = 49;
}
{
glyphname = two;
layers = (
{
layerId = m01;
shapes = (
{
closed = 1;
nodes = (
(498,0,l),
(498,80,l),
(136,80,l),
(140,72,l),
(196,252,o),
(488,288,o),
(488,504,cs),
(488,617,o),
(400,694,o),
(272,694,cs),
(151,694,o),
(51,620,o),
(26,512,c),
(112,486,l),
(128,566,o),
(188,620,o),
(270,620,cs),
(347,620,o),
(396,572,o),
(396,502,cs),
(396,322,o),
(63,280,o),
(31,24,cs),
(28,0,l)
);
}
);
width = 532;
},
{
layerId = "E9FB66CC-5D7A-47B2-9A25-A0E8EEF5BB81";
shapes = (
{
closed = 1;
nodes = (
(513,0,l),
(513,113,l),
(186,113,l),
(190,106,l),
(253,247,o),
(510,294,o),
(510,499,cs),
(510,622,o),
(415,707,o),
(275,707,cs),
(147,707,o),
(47,633,o),
(22,521,c),
(149,480,l),
(156,554,o),
(207,601,o),
(272,601,cs),
(333,601,o),
(372,560,o),
(372,500,cs),
(372,329,o),
(47,287,o),
(24,22,cs),
(22,0,l)
);
}
);
width = 551;
},
{
associatedMasterId = m01;
layerId = "14669DBD-BB92-4E43-8DF4-2BB941053677";
name = "6 Jun 23, 16:36";
shapes = (
{
closed = 1;
nodes = (
(502,0,l),
(502,78,l),
(136,78,l),
(175,233,o),
(497,283,o),
(497,499,cs),
(497,614,o),
(406,694,o),
(279,694,cs),
(153,694,o),
(50,614,o),
(26,499,c),
(115,476,l),
(130,566,o),
(195,621,o),
(277,621,cs),
(353,621,o),
(406,573,o),
(406,502,cs),
(406,309,o),
(33,282,o),
(33,19,cs),
(33,0,l)
);
}
);
width = 536;
}
);
unicode = 50;
}
{
glyphname = three;
layers = (
{
layerId = m01;
shapes = (
{
closed = 1;
nodes = (
(440,-12,o),
(538,70,o),
(538,192,cs),
(538,285,o),
(481,355,o),
(388,374,c),
(388,366,l),
(468,390,o),
(514,451,o),
(514,532,cs),
(514,644,o),
(426,712,o),
(292,712,cs),
(156,712,o),
(60,636,o),
(44,520,c),
(132,500,l),
(144,588,o),
(204,640,o),
(292,640,cs),
(374,640,o),
(422,594,o),
(422,524,cs),
(422,446,o),
(369,404,o),
(278,404,cs),
(228,404,l),
(228,332,l),
(284,332,ls),
(384,332,o),
(444,280,o),
(444,196,cs),
(444,113,o),
(386,62,o),
(292,62,cs),
(189,62,o),
(124,124,o),
(120,224,c),
(26,212,l),
(34,78,o),
(141,-12,o),
(294,-12,cs)
);
}
);
width = 582;
},
{
layerId = "E9FB66CC-5D7A-47B2-9A25-A0E8EEF5BB81";
width = 596;
}
);
metricRight = eight;
unicode = 51;
}
{
glyphname = four;
layers = (
{
layerId = m01;
shapes = (
{
closed = 1;
nodes = (
(482,0,l),
(482,732,l),
(390,732,l),
(16,266,l),
(16,182,l),
(574,182,l),
(574,262,l),
(108,262,l),
(388,616,l),
(388,0,l)
);
}
);
width = 588;
},
{
layerId = "E9FB66CC-5D7A-47B2-9A25-A0E8EEF5BB81";
width = 617;
}
);
unicode = 52;
}
{
color = 3;
glyphname = five;
layers = (
{
layerId = m01;
shapes = (
{
closed = 1;
nodes = (
(424,-14,o),
(524,84,o),
(524,227,cs),
(524,364,o),
(434,458,o),
(302,458,cs),
(221,458,o),
(152,420,o),
(130,364,c),
(138,364,l),
(170,604,l),
(486,604,l),
(486,680,l),
(106,680,l),
(62,332,l),
(150,312,l),
(175,360,o),
(224,388,o),
(282,388,cs),
(372,388,o),
(430,324,o),
(430,224,cs),
(430,125,o),
(372,62,o),
(280,62,cs),
(196,62,o),
(136,116,o),
(126,200,c),
(32,178,l),
(47,63,o),
(147,-14,o),
(278,-14,cs)
);
}
);
width = 558;
},
{
layerId = "E9FB66CC-5D7A-47B2-9A25-A0E8EEF5BB81";
shapes = (
{
closed = 1;
nodes = (
(447,-15,o),
(553,76,o),
(553,227,cs),
(553,366,o),
(455,458,o),
(318,458,cs),
(225,458,o),
(153,420,o),
(130,361,c),
(171,361,l),
(204,586,l),
(513,586,l),
(513,693,l),
(98,693,l),
(50,313,l),
(164,287,l),
(185,325,o),
(229,350,o),
(290,350,cs),
(363,350,o),
(411,300,o),
(411,223,cs),
(411,150,o),
(372,97,o),
(290,97,cs),
(225,97,o),
(178,136,o),
(171,195,c),
(37,177,l),
(52,63,o),
(153,-15,o),
(295,-15,cs)
);
}
);
width = 576;
}
);
unicode = 53;
}
{
glyphname = six;
layers = (
{
layerId = m01;
shapes = (
{
closed = 1;
nodes = (
(444,-14,o),
(537,81,o),
(537,221,cs),
(537,352,o),
(445,444,o),
(312,444,cs),
(213,444,o),
(139,402,o),
(118,339,c),
(126,339,l),
(125,518,o),
(188,631,o),
(305,631,cs),
(363,631,o),
(408,595,o),
(426,536,c),
(510,567,l),
(481,650,o),
(403,703,o),
(311,703,cs),
(132,703,o),
(40,534,o),
(40,322,cs),
(40,212,o),
(66,123,o),
(117,65,cs),
(162,13,o),
(228,-14,o),
(306,-14,cs)
);
},
{
closed = 1;
nodes = (
(207,62,o),
(145,127,o),
(145,226,cs),
(145,318,o),
(206,376,o),
(299,376,cs),
(391,376,o),
(447,315,o),
(447,222,cs),
(447,126,o),
(390,62,o),
(299,62,cs)
);
}
);
width = 580;
},
{
layerId = "E9FB66CC-5D7A-47B2-9A25-A0E8EEF5BB81";
shapes = (
{
closed = 1;
nodes = (
(475,-9,o),
(577,87,o),
(577,222,cs),
(577,362,o),
(478,451,o),
(334,451,cs),
(231,451,o),
(149,405,o),
(130,333,c),
(156,334,l),
(152,489,o),
(211,601,o),
(324,601,cs),
(383,601,o),
(426,569,o),
(441,511,c),
(554,555,l),
(526,645,o),
(434,704,o),
(326,704,cs),
(151,704,o),
(36,562,o),
(36,343,cs),
(34,220,o),
(64,120,o),
(126,58,cs),
(174,9,o),
(241,-17,o),
(325,-15,cs)
);
},
{
closed = 1;
nodes = (
(235,80,o),
(184,137,o),
(184,223,cs),
(184,306,o),
(235,358,o),
(313,358,cs),
(388,358,o),
(440,303,o),
(440,219,cs),
(440,137,o),
(389,80,o),
(312,80,cs)
);
}
);
width = 604;
},
{
layerId = "980A8AF2-BF11-492D-9410-496A94B21BD3";
shapes = (
{
closed = 1;
nodes = (
(415,-14,o),
(532,104,o),
(532,258,cs),
(532,369,o),
(455,444,o),
(335,444,cs),
(237,444,o),
(156,402,o),
(127,339,c),
(135,339,l),
(159,518,o),
(237,631,o),
(355,631,cs),
(412,631,o),
(453,595,o),
(462,536,c),
(551,567,l),
(533,650,o),
(463,703,o),
(371,703,cs),
(186,703,o),
(40,499,o),
(40,239,cs),
(40,171,o),
(54,110,o),
(87,65,cs),
(125,13,o),
(187,-14,o),
(265,-14,cs)
);
},
{
closed = 1;
nodes = (
(187,62,o),
(135,114,o),
(135,196,cs),
(135,302,o),
(209,376,o),
(313,376,cs),
(395,376,o),
(441,327,o),
(441,251,cs),
(441,143,o),
(368,62,o),
(269,62,cs)
);
}
);
width = 594;
},
{
layerId = "829AF10C-3E33-4291-B5B6-8F7CF12D6A62";
shapes = (
{
closed = 1;
nodes = (
(443,-10,o),
(571,105,o),
(571,260,cs),
(571,378,o),
(487,451,o),
(357,451,cs),
(254,451,o),
(166,405,o),
(137,333,c),
(163,334,l),
(181,492,o),
(257,601,o),
(368,601,cs),
(427,601,o),
(466,569,o),
(473,511,c),
(592,555,l),
(576,645,o),
(493,704,o),
(385,704,cs),
(209,704,o),
(75,562,o),
(43,340,cs),
(25,220,o),
(41,120,o),
(94,58,cs),
(135,9,o),
(201,-18,o),
(283,-15,cs)
);
},
{
closed = 1;
nodes = (
(215,80,o),
(173,125,o),
(173,195,cs),
(173,290,o),
(235,358,o),
(323,358,cs),
(390,358,o),
(432,314,o),
(432,245,cs),
(432,152,o),
(368,80,o),
(283,80,cs)
);
}
);
width = 619;
}
);
metricLeft = zero;
unicode = 54;
}
{
glyphname = seven;
layers = (
{
layerId = m01;
shapes = (
{
closed = 1;
nodes = (
(202,0,l),
(209,229,o),
(292,441,o),
(440,609,c),
(440,680,l),
(6,680,l),
(6,602,l),
(346,602,l),
(342,610,l),
(212,459,o),
(119,224,o),
(108,0,c)
);
}
);
width = 454;
},
{
layerId = "E9FB66CC-5D7A-47B2-9A25-A0E8EEF5BB81";
shapes = (
{
closed = 1;
nodes = (
(268,0,l),
(287,257,o),
(372,469,o),
(517,607,c),
(517,693,l),
(6,693,l),
(6,585,l),
(361,585,l),
(357,593,l),
(231,447,o),
(141,220,o),
(127,0,c)
);
}
);
width = 525;
},
{
layerId = "980A8AF2-BF11-492D-9410-496A94B21BD3";
shapes = (
{
closed = 1;
nodes = (
(167,0,l),
(207,229,o),
(319,440,o),
(491,609,c),
(501,680,l),
(67,680,l),
(56,602,l),
(396,602,l),
(393,610,l),
(242,459,o),
(116,224,o),
(73,0,c)
);
}
);
width = 506;
},
{
layerId = "829AF10C-3E33-4291-B5B6-8F7CF12D6A62";
shapes = (
{
closed = 1;
nodes = (
(235,0,l),
(289,255,o),
(405,469,o),
(569,607,c),
(581,693,l),
(70,693,l),
(55,585,l),
(410,585,l),
(407,593,l),
(261,447,o),
(139,221,o),
(94,0,c)
);
}
);
width = 581;
}
);
unicode = 55;
userData = {
KernOnName = seven;
};
}
{
glyphname = eight;
layers = (
{
layerId = m01;
shapes = (
{
closed = 1;
nodes = (
(449,-14,o),
(554,69,o),
(554,188,cs),
(554,274,o),
(498,346,o),
(410,372,c),
(410,364,l),
(482,382,o),
(528,440,o),
(528,514,cs),
(528,621,o),
(434,694,o),
(296,694,cs),
(158,694,o),
(64,621,o),
(64,514,cs),
(64,440,o),
(110,382,o),
(182,364,c),
(182,372,l),
(94,346,o),
(38,274,o),
(38,188,cs),
(38,69,o),
(143,-14,o),
(296,-14,cs)
);
},
{
closed = 1;
nodes = (
(196,60,o),
(132,113,o),
(132,196,cs),
(132,279,o),
(196,332,o),
(296,332,cs),
(396,332,o),
(460,279,o),
(460,196,cs),
(460,113,o),
(396,60,o),
(296,60,cs)
);
},
{
closed = 1;
nodes = (
(209,398,o),
(154,442,o),
(154,510,cs),
(154,578,o),
(209,622,o),
(296,622,cs),
(383,622,o),
(438,578,o),
(438,510,cs),
(438,442,o),
(383,398,o),
(296,398,cs)
);
}
);
width = 592;
},
{
layerId = "E9FB66CC-5D7A-47B2-9A25-A0E8EEF5BB81";
shapes = (
{
closed = 1;
nodes = (
(474,-13,o),
(588,71,o),
(588,193,cs),
(588,275,o),
(540,344,o),
(459,378,c),
(459,370,l),
(526,396,o),
(562,450,o),
(562,517,cs),
(562,630,o),
(460,707,o),
(309,707,cs),
(158,707,o),
(56,630,o),
(56,517,cs),
(56,450,o),
(94,396,o),
(161,370,c),
(161,378,l),
(79,344,o),
(30,275,o),
(30,193,cs),
(30,71,o),
(143,-13,o),
(309,-13,cs)
);
},
{
closed = 1;
nodes = (
(225,91,o),
(171,138,o),
(171,211,cs),
(171,285,o),
(225,331,o),
(309,331,cs),
(393,331,o),
(447,285,o),
(447,211,cs),
(447,138,o),
(393,91,o),
(309,91,cs)
);
},
{
closed = 1;
nodes = (
(235,413,o),
(188,450,o),
(188,509,cs),
(188,567,o),
(235,605,o),
(309,605,cs),
(382,605,o),
(430,567,o),
(430,509,cs),
(430,450,o),
(382,413,o),
(309,413,cs)
);
}
);
width = 618;
}
);
metricRight = "=|";
unicode = 56;
}
{
glyphname = nine;
layers = (
{
background = {
shapes = (
{
closed = 1;
nodes = (
(440,-12,o),
(552,136,o),
(552,384,cs),
(552,592,o),
(454,712,o),
(290,712,cs),
(146,712,o),
(50,619,o),
(50,480,cs),
(50,345,o),
(141,254,o),
(278,254,cs),
(377,254,o),
(454,302,o),
(474,376,c),
(462,376,l),
(460,176,o),
(394,62,o),
(276,62,cs),
(202,62,o),
(148,107,o),
(136,180,c),
(44,160,l),
(66,54,o),
(152,-12,o),
(268,-12,cs)
);
},
{
closed = 1;
nodes = (
(202,324,o),
(142,384,o),
(142,482,cs),
(142,580,o),
(202,640,o),
(296,640,cs),
(390,640,o),
(450,580,o),
(450,482,cs),
(450,384,o),
(390,324,o),
(296,324,cs)
);
}
);
};
layerId = m01;
name = Regular;
shapes = (
{
closed = 1;
nodes = (
(436,-12,o),
(552,128,o),
(552,376,cs),
(552,592,o),
(454,712,o),
(290,712,cs),
(146,712,o),
(50,619,o),
(50,480,cs),
(50,345,o),
(141,254,o),
(278,254,cs),
(377,254,o),
(450,302,o),
(470,376,c),
(462,376,l),
(460,176,o),
(394,62,o),
(276,62,cs),
(202,62,o),
(148,107,o),
(136,180,c),
(44,160,l),
(66,54,o),
(152,-12,o),
(268,-12,cs)
);
},
{
closed = 1;
nodes = (
(202,324,o),
(142,384,o),
(142,482,cs),
(142,580,o),
(202,640,o),
(296,640,cs),
(390,640,o),
(450,580,o),
(450,482,cs),
(450,384,o),
(390,324,o),
(296,324,cs)
);
}
);
width = 600;
},
{
layerId = "E9FB66CC-5D7A-47B2-9A25-A0E8EEF5BB81";
width = 605;
},
{
associatedMasterId = m01;
layerId = "2171C64F-D7EA-408E-8EA1-99417316F494";
name = "15 apr 23, 22:17";
shapes = (
{
closed = 1;
nodes = (
(441,-12,o),
(553,140,o),
(553,384,cs),
(553,592,o),
(455,712,o),
(291,712,cs),
(147,712,o),
(51,619,o),
(51,480,cs),
(51,345,o),
(142,254,o),
(279,254,cs),
(378,254,o),
(455,302,o),
(475,376,c),
(463,376,l),
(461,176,o),
(395,62,o),
(277,62,cs),
(203,62,o),
(149,107,o),
(137,180,c),
(45,160,l),
(66,57,o),
(157,-12,o),
(273,-12,cs)
);
},
{
closed = 1;
nodes = (
(203,324,o),
(143,384,o),
(143,482,cs),
(143,580,o),
(203,640,o),
(297,640,cs),
(391,640,o),
(451,580,o),
(451,482,cs),
(451,384,o),
(391,324,o),
(297,324,cs)
);
}
);
width = 598;
}
);
unicode = 57;
}
{
glyphname = equal;
layers = (
{
layerId = m01;
shapes = (
{
closed = 1;
nodes = (
(532,183,l),
(532,259,l),
(68,259,l),
(68,183,l)
);
},
{
closed = 1;
nodes = (
(532,358,l),
(532,433,l),
(68,433,l),
(68,358,l)
);
}
);
width = 600;
},
{
layerId = "E9FB66CC-5D7A-47B2-9A25-A0E8EEF5BB81";
width = 617;
}
);
metricRight = "=|";
unicode = 61;
userData = {
KernOnSpecialSpacing = {
L = math;
R = math;
};
};
}
{
glyphname = greater;
layers = (
{
layerId = m01;
shapes = (
{
closed = 1;
nodes = (
(513,227,l),
(513,294,l),
(52,519,l),
(52,433,l),
(417,260,l),
(52,89,l),
(52,2,l)
);
}
);
width = 558;
},
{
layerId = "E9FB66CC-5D7A-47B2-9A25-A0E8EEF5BB81";
width = 574;
}
);
unicode = 62;
userData = {
KernOnSpecialSpacing = {
L = math;
R = math;
};
};
}
{
glyphname = question;
layers = (
{
layerId = m01;
shapes = (
{
closed = 1;
nodes = (
(276,230,l),
(276,240,ls),
(276,400,o),
(460,420,o),
(460,572,cs),
(460,675,o),
(374,746,o),
(248,746,cs),
(132,746,o),
(35,680,o),
(8,584,c),
(100,552,l),
(117,622,o),
(174,666,o),
(246,666,cs),
(316,666,o),
(360,626,o),
(360,564,cs),
(360,444,o),
(193,434,o),
(187,258,cs),
(186,230,l)
);
},
{
pos = (124,0);
ref = period;
}
);
width = 472;
},
{
layerId = "E9FB66CC-5D7A-47B2-9A25-A0E8EEF5BB81";
shapes = (
{
closed = 1;
nodes = (
(330,236,l),
(330,240,ls),
(330,388,o),
(512,392,o),
(512,560,cs),
(512,680,o),
(414,760,o),
(270,760,cs),
(134,760,o),
(28,684,o),
(4,564,c),
(136,524,l),
(144,600,o),
(193,648,o),
(262,648,cs),
(326,648,o),
(366,609,o),
(366,548,cs),
(366,429,o),
(209,440,o),
(194,260,cs),
(192,236,l)
);
},
{
pos = (142,0);
ref = period;
}
);
width = 524;
},
{
associatedMasterId = m01;
layerId = "B96ABFD7-997C-4285-9F30-8D85A0339D2D";
name = "15 apr 23, 18:21";
shapes = (
{
closed = 1;
nodes = (
(256,268,l),
(237,277,o),
(227,296,o),
(227,316,cs),
(227,408,o),
(440,414,o),
(440,573,cs),
(440,676,o),
(357,745,o),
(231,745,cs),
(112,745,o),
(14,678,o),
(-16,577,c),
(76,548,l),
(95,622,o),
(154,667,o),
(231,667,cs),
(298,667,o),
(340,633,o),
(340,577,cs),
(340,460,o),
(131,460,o),
(131,326,cs),
(131,276,o),
(160,232,o),
(206,209,c)
);
},
{
pos = (101,0);
ref = period;
}
);
width = 439;
}
);
unicode = 63;
userData = {
KernOnSpecialSpacing = {
L = "spaced-off";
};
};
}
{
glyphname = at;
layers = (
{
layerId = m01;
shapes = (
{
closed = 1;
nodes = (
(816,28,o),
(916,130,o),
(916,310,cs),
(916,551,o),
(746,712,o),
(491,712,cs),
(218,712,o),
(36,527,o),
(36,250,cs),
(36,-13,o),
(210,-188,o),
(472,-188,cs),
(578,-188,o),
(690,-158,o),
(752,-112,c),
(707,-40,l),
(651,-82,o),
(564,-107,o),
(478,-107,cs),
(254,-107,o),
(116,29,o),
(116,250,cs),
(116,486,o),
(259,631,o),
(491,631,cs),
(705,631,o),
(836,504,o),
(836,297,cs),
(836,152,o),
(776,94,o),
(708,94,cs),
(648,94,o),
(640,138,o),
(652,196,cs),
(716,498,l),
(632,498,l),
(606,378,l),
(618,378,l),
(622,454,o),
(560,508,o),
(476,508,cs),
(340,508,o),
(224,364,o),
(224,200,cs),
(224,92,o),
(282,28,o),
(380,28,cs),
(466,28,o),
(547,78,o),
(571,154,c),
(559,154,l),
(543,78,o),
(592,28,o),
(684,28,cs)
);
},
{
closed = 1;
nodes = (
(348,94,o),
(312,137,o),
(312,208,cs),
(312,332,o),
(392,440,o),
(488,440,cs),
(550,440,o),
(589,397,o),
(589,324,cs),
(589,200,o),
(510,94,o),
(412,94,cs)
);
}
);
width = 950;
},
{
associatedMasterId = m01;
layerId = "2743AE31-5E10-493A-AAF8-244AFE4C878D";
width = 775;
},
{
layerId = "E9FB66CC-5D7A-47B2-9A25-A0E8EEF5BB81";
width = 775;
}
);
metricRight = "=|-2";
unicode = 64;
userData = {
KernOnSpecialSpacing = {
L = symbols;
R = symbols;
};
};
}
{
glyphname = A;
layers = (
{
anchors = (
{
name = ogonek;
pos = (650,12);
},
{
name = top;
pos = (332,732);
}
);
layerId = m01;
shapes = (
{
closed = 1;
nodes = (
(108,0,l),
(332,652,l),
(324,652,l),
(556,0,l),
(662,0,l),
(386,732,l),
(282,732,l),
(12,0,l)
);
},
{
closed = 1;
nodes = (
(491,204,l),
(491,282,l),
(171,282,l),
(171,204,l)
);
}
);
width = 674;
},
{
anchors = (
{
name = ogonek;
pos = (680,13);
},
{
name = top;
pos = (348,732);
}
);
layerId = "E9FB66CC-5D7A-47B2-9A25-A0E8EEF5BB81";
shapes = (
{
closed = 1;
nodes = (
(152,0,l),
(347,594,l),
(339,594,l),
(540,0,l),
(703,0,l),
(434,745,l),
(273,745,l),
(4,0,l)
);
},
{
closed = 1;
nodes = (
(488,182,l),
(488,283,l),
(202,283,l),
(202,182,l)
);
}
);
width = 708;
}
);
unicode = 65;
userData = {
KernOnName = A;
};
}
{
glyphname = B;
layers = (
{
layerId = m01;
shapes = (
{
closed = 1;
nodes = (
(370,0,ls),
(502,0,o),
(586,71,o),
(586,184,cs),
(586,290,o),
(515,359,o),
(404,361,c),
(404,353,l),
(499,360,o),
(560,421,o),
(560,510,cs),
(560,614,o),
(481,680,o),
(356,680,cs),
(80,680,l),
(80,0,l)
);
},
{
closed = 1;
nodes = (
(174,614,l),
(166,606,l),
(344,606,ls),
(419,606,o),
(464,566,o),
(464,498,cs),
(464,428,o),
(419,387,o),
(342,387,cs),
(166,387,l),
(166,314,l),
(364,314,ls),
(440,314,o),
(485,269,o),
(485,194,cs),
(485,119,o),
(439,74,o),
(360,74,cs),
(166,74,l),
(174,67,l)
);
}
);
width = 626;
},
{
layerId = "E9FB66CC-5D7A-47B2-9A25-A0E8EEF5BB81";
shapes = (
{
closed = 1;
nodes = (
(388,0,ls),
(516,0,o),
(604,76,o),
(604,190,cs),
(604,298,o),
(527,368,o),
(411,368,c),
(411,361,l),
(511,367,o),
(576,430,o),
(576,522,cs),
(576,626,o),
(494,692,o),
(376,692,cs),
(72,692,l),
(72,0,l)
);
},
{
closed = 1;
nodes = (
(214,594,l),
(206,586,l),
(344,586,ls),
(397,586,o),
(430,552,o),
(430,498,cs),
(430,443,o),
(397,408,o),
(344,408,cs),
(206,408,l),
(206,304,l),
(358,304,ls),
(415,304,o),
(452,266,o),
(452,206,cs),
(452,146,o),
(415,108,o),
(356,108,cs),
(206,108,l),
(214,100,l)
);
}
);
width = 636;
}
);
metricLeft = H;
unicode = 66;
userData = {
KernOnName = B;
};
}
{
glyphname = C;
layers = (
{
anchors = (
{
name = bottom;
pos = (387,0);
},
{
name = top;
pos = (376,732);
}
);
layerId = m01;
shapes = (
{
closed = 1;
nodes = (
(534,-14,o),
(661,87,o),
(688,234,c),
(586,264,l),
(569,144,o),
(488,68,o),
(378,68,cs),
(240,68,o),
(152,185,o),
(152,370,cs),
(152,552,o),
(240,666,o),
(376,666,cs),
(480,666,o),
(553,598,o),
(573,490,c),
(672,516,l),
(644,653,o),
(523,746,o),
(372,746,cs),
(177,746,o),
(44,593,o),
(44,368,cs),
(44,141,o),
(179,-14,o),
(376,-14,cs)
);
}
);
width = 716;
},
{
anchors = (
{
name = bottom;
pos = (392,0);
},
{
name = top;
pos = (378,744);
}
);
layerId = "E9FB66CC-5D7A-47B2-9A25-A0E8EEF5BB81";
shapes = (
{
closed = 1;
nodes = (
(546,-16,o),
(679,89,o),
(704,244,c),
(550,300,l),
(538,176,o),
(472,102,o),
(380,102,cs),
(270,102,o),
(198,208,o),
(198,374,cs),
(198,539,o),
(270,644,o),
(380,644,cs),
(464,644,o),
(526,582,o),
(540,482,c),
(692,524,l),
(660,666,o),
(536,760,o),
(378,760,cs),
(174,760,o),
(36,604,o),
(36,376,cs),
(36,143,o),
(174,-16,o),
(376,-16,cs)
);
}
);
width = 726;
}
);
metricLeft = O;
unicode = 67;
}
{
glyphname = D;
layers = (
{
anchors = (
{
name = top;
pos = (348,732);
}
);
layerId = m01;
shapes = (
{
closed = 1;
nodes = (
(348,0,ls),
(562,0,o),
(698,144,o),
(698,370,cs),
(698,591,o),
(564,732,o),
(352,732,cs),
(88,732,l),
(88,0,l)
);
},
{
closed = 1;
nodes = (
(188,662,l),
(180,654,l),
(338,654,ls),
(496,654,o),
(590,548,o),
(590,368,cs),
(590,187,o),
(497,80,o),
(340,80,cs),
(180,80,l),
(188,72,l)
);
}
);
width = 742;
},
{
anchors = (
{
name = top;
pos = (360,732);
}
);
layerId = "E9FB66CC-5D7A-47B2-9A25-A0E8EEF5BB81";
shapes = (
{
closed = 1;
nodes = (
(361,0,ls),
(574,0,o),
(714,149,o),
(714,370,cs),
(714,588,o),
(575,732,o),
(365,732,cs),
(82,732,l),
(82,0,l)
);
},
{
closed = 1;
nodes = (
(235,624,l),
(227,616,l),
(353,616,ls),
(478,616,o),
(553,522,o),
(553,367,cs),
(553,212,o),
(478,118,o),
(352,118,cs),
(227,118,l),
(235,110,l)
);
}
);
width = 751;
}
);
metricLeft = H;
metricRight = O;
unicode = 68;
}
{
glyphname = E;
layers = (
{
anchors = (
{
name = ogonek;
pos = (532,8);
},
{
name = top;
pos = (312,680);
}
);
layerId = m01;
shapes = (
{
closed = 1;
nodes = (
(540,0,l),
(540,74,l),
(166,74,l),
(174,66,l),
(174,614,l),
(166,606,l),
(534,606,l),
(534,680,l),
(80,680,l),
(80,0,l)
);
},
{
closed = 1;
nodes = (
(500,314,l),
(500,387,l),
(166,387,l),
(166,314,l)
);
}
);
width = 572;
},
{
anchors = (
{
name = ogonek;
pos = (546,8);
},
{
name = top;
pos = (312,692);
}
);
layerId = "E9FB66CC-5D7A-47B2-9A25-A0E8EEF5BB81";
shapes = (
{
closed = 1;
nodes = (
(554,0,l),
(554,108,l),
(208,108,l),
(216,100,l),
(216,593,l),
(208,585,l),
(548,585,l),
(548,692,l),
(72,692,l),
(72,0,l)
);
},
{
closed = 1;
nodes = (
(518,303,l),
(518,409,l),
(208,409,l),
(208,303,l)
);
}
);
width = 592;
},
{
anchors = (
{
name = ogonek;
pos = (481,8);
},
{
name = top;
pos = (359,680);
}
);
layerId = "980A8AF2-BF11-492D-9410-496A94B21BD3";
shapes = (
{
closed = 1;
nodes = (
(488,0,l),
(498,74,l),
(137,74,l),
(144,66,l),
(219,614,l),
(210,606,l),
(565,606,l),
(576,680,l),
(134,680,l),
(41,0,l)
);
},
{
closed = 1;
nodes = (
(492,314,l),
(502,387,l),
(180,387,l),
(170,314,l)
);
}
);
width = 600;
},
{
anchors = (
{
name = ogonek;
pos = (489,8);
},
{
name = top;
pos = (354,692);
}
);
layerId = "829AF10C-3E33-4291-B5B6-8F7CF12D6A62";
shapes = (
{
closed = 1;
nodes = (
(496,0,l),
(511,108,l),
(178,108,l),
(185,100,l),
(252,593,l),
(243,585,l),
(570,585,l),
(585,692,l),
(121,692,l),
(27,0,l)
);
},
{
closed = 1;
nodes = (
(503,303,l),
(517,409,l),
(219,409,l),
(205,303,l)
);
}
);
width = 602;
}
);
metricLeft = H;
unicode = 69;
userData = {
KernOnName = E;
};
}
{
glyphname = F;
layers = (
{
layerId = m01;
shapes = (
{
closed = 1;
nodes = (
(174,0,l),
(174,613,l),
(166,606,l),
(522,606,l),
(522,680,l),
(80,680,l),
(80,0,l)
);
},
{
closed = 1;
nodes = (
(466,312,l),
(466,386,l),
(166,386,l),
(166,312,l)
);
}
);
width = 538;
},
{
layerId = "E9FB66CC-5D7A-47B2-9A25-A0E8EEF5BB81";
shapes = (
{
closed = 1;
nodes = (
(216,0,l),
(216,592,l),
(208,584,l),
(542,584,l),
(542,692,l),
(72,692,l),
(72,0,l)
);
},
{
closed = 1;
nodes = (
(490,296,l),
(490,404,l),
(208,404,l),
(208,296,l)
);
}
);
width = 556;
}
);
metricLeft = H;
unicode = 70;
}
{
glyphname = G;
layers = (
{
anchors = (
{
name = bottom;
pos = (388,0);
},
{
name = top;
pos = (383,732);
}
);
layerId = "E9FB66CC-5D7A-47B2-9A25-A0E8EEF5BB81";
shapes = (
{
closed = 1;
nodes = (
(512,-13,o),
(638,42,o),
(689,119,c),
(689,409,l),
(363,409,l),
(363,290,l),
(555,290,l),
(555,175,l),
(523,133,o),
(461,107,o),
(396,107,cs),
(272,107,o),
(192,212,o),
(192,378,cs),
(192,539,o),
(262,640,o),
(371,640,cs),
(456,640,o),
(518,580,o),
(534,485,c),
(689,528,l),
(659,663,o),
(529,757,o),
(375,757,cs),
(173,757,o),
(32,599,o),
(32,374,cs),
(32,142,o),
(175,-13,o),
(389,-13,cs)
);
}
);
width = 741;
},
{
anchors = (
{
name = bottom;
pos = (408,0);
},
{
name = top;
pos = (380,732);
}
);
layerId = m01;
shapes = (
{
closed = 1;
nodes = (
(516,-14,o),
(614,22,o),
(676,84,c),
(676,384,l),
(368,384,l),
(368,304,l),
(584,304,l),
(584,112,l),
(547,85,o),
(485,68,o),
(424,68,cs),
(258,68,o),
(152,188,o),
(152,378,cs),
(152,554,o),
(241,666,o),
(382,666,cs),
(486,666,o),
(560,604,o),
(576,508,c),
(672,532,l),
(644,660,o),
(530,746,o),
(382,746,cs),
(181,746,o),
(44,593,o),
(44,368,cs),
(44,141,o),
(192,-14,o),
(410,-14,cs)
);
}
);
width = 738;
},
{
anchors = (
{
name = bottom;
pos = (380,0);
},
{
name = top;
pos = (376,732);
}
);
associatedMasterId = m01;
layerId = "A05A0C6D-B89F-452D-B225-53014C68BD15";
name = "15 apr 23, 16:59";
shapes = (
{
closed = 1;
nodes = (
(516,-13,o),
(629,25,o),
(679,92,c),
(679,383,l),
(371,383,l),
(371,303,l),
(591,303,l),
(591,126,l),
(559,91,o),
(494,69,o),
(424,69,cs),
(258,69,o),
(154,187,o),
(154,377,cs),
(154,554,o),
(241,665,o),
(380,665,cs),
(478,665,o),
(555,607,o),
(576,506,c),
(673,531,l),
(643,662,o),
(525,745,o),
(382,745,cs),
(184,745,o),
(47,587,o),
(47,368,cs),
(47,142,o),
(194,-13,o),
(403,-13,cs)
);
}
);
width = 745;
}
);
metricLeft = O;
note = "Versione senza gamba?";
unicode = 71;
}
{
glyphname = H;
layers = (
{
layerId = m01;
shapes = (
{
closed = 1;
nodes = (
(656,0,l),
(656,732,l),
(556,732,l),
(556,0,l)
);
},
{
closed = 1;
nodes = (
(188,0,l),
(188,732,l),
(88,732,l),
(88,0,l)
);
},
{
closed = 1;
nodes = (
(564,345,l),
(564,425,l),
(180,425,l),
(180,345,l)
);
}
);
width = 744;
},
{
layerId = "E9FB66CC-5D7A-47B2-9A25-A0E8EEF5BB81";
shapes = (
{
closed = 1;
nodes = (
(682,0,l),
(682,744,l),
(530,744,l),
(530,0,l)
);
},
{
closed = 1;
nodes = (
(232,0,l),
(232,744,l),
(80,744,l),
(80,0,l)
);
},
{
closed = 1;
nodes = (
(538,328,l),
(538,444,l),
(224,444,l),
(224,328,l)
);
}
);
width = 762;
}
);
metricRight = "=|";
unicode = 72;
userData = {
KernOnName = H;
KernOnSpecialSpacing = {
};
};
}
{
glyphname = I;
layers = (
{
anchors = (
{
name = ogonek;
pos = (176,12);
},
{
name = top;
pos = (138,732);
}
);
layerId = m01;
shapes = (
{
closed = 1;
nodes = (
(188,0,l),
(188,732,l),
(88,732,l),
(88,0,l)
);
}
);
width = 276;
},
{
anchors = (
{
name = ogonek;
pos = (225,6);
},
{
name = top;
pos = (155,732);
}
);
layerId = "E9FB66CC-5D7A-47B2-9A25-A0E8EEF5BB81";
shapes = (
{
closed = 1;
nodes = (
(231,0,l),
(231,745,l),
(78,745,l),
(78,0,l)
);
}
);
width = 309;
}
);
metricLeft = H;
metricRight = H;
unicode = 73;
}
{
glyphname = J;
layers = (
{
anchors = (
{
name = bottom;
pos = (258,0);
},
{
name = top;
pos = (388,680);
}
);
layerId = m01;
shapes = (
{
closed = 1;
nodes = (
(362,-14,o),
(444,68,o),
(444,198,cs),
(444,680,l),
(350,680,l),
(350,195,ls),
(350,113,o),
(308,64,o),
(236,64,cs),
(154,64,o),
(108,126,o),
(112,232,c),
(18,220,l),
(14,77,o),
(98,-14,o),
(233,-14,cs)
);
}
);
width = 516;
},
{
anchors = (
{
name = bottom;
pos = (274,0);
},
{
name = top;
pos = (414,692);
}
);
layerId = "E9FB66CC-5D7A-47B2-9A25-A0E8EEF5BB81";
shapes = (
{
closed = 1;
nodes = (
(396,-14,o),
(486,72,o),
(486,208,cs),
(486,692,l),
(342,692,l),
(342,212,ls),
(342,142,o),
(308,102,o),
(250,102,cs),
(180,102,o),
(144,160,o),
(152,260,c),
(16,228,l),
(12,76,o),
(104,-14,o),
(252,-14,cs)
);
}
);
width = 548;
},
{
anchors = (
{
name = bottom;
pos = (204,0);
},
{
name = top;
pos = (424,680);
}
);
layerId = "980A8AF2-BF11-492D-9410-496A94B21BD3";
shapes = (
{
closed = 1;
nodes = (
(296,-14,o),
(395,65,o),
(413,198,cs),
(480,680,l),
(386,680,l),
(318,195,ls),
(307,115,o),
(259,64,o),
(192,64,cs),
(113,64,o),
(78,126,o),
(96,232,c),
(1,220,l),
(-22,77,o),
(47,-14,o),
(179,-14,cs)
);
}
);
width = 532;
},
{
anchors = (
{
name = bottom;
pos = (217,0);
},
{
name = top;
pos = (448,692);
}
);
layerId = "829AF10C-3E33-4291-B5B6-8F7CF12D6A62";
shapes = (
{
closed = 1;
nodes = (
(330,-14,o),
(435,72,o),
(453,208,cs),
(520,692,l),
(376,692,l),
(310,212,ls),
(301,142,o),
(263,102,o),
(208,102,cs),
(143,102,o),
(115,160,o),
(136,260,c),
(-3,228,l),
(-27,76,o),
(50,-14,o),
(195,-14,cs)
);
}
);
width = 560;
}
);
unicode = 74;
}
{
glyphname = K;
layers = (
{
anchors = (
{
name = bottom;
pos = (336,0);
},
{
name = top;
pos = (324,680);
}
);
layerId = m01;
shapes = (
{
closed = 1;
nodes = (
(174,0,l),
(174,251,l),
(166,231,l),
(598,680,l),
(486,680,l),
(166,342,l),
(174,342,l),
(174,680,l),
(80,680,l),
(80,0,l)
);
},
{
closed = 1;
nodes = (
(620,0,l),
(320,402,l),
(260,340,l),
(506,0,l)
);
}
);
width = 626;
},
{
anchors = (
{
name = bottom;
pos = (363,0);
},
{
name = top;
pos = (348,692);
}
);
layerId = "E9FB66CC-5D7A-47B2-9A25-A0E8EEF5BB81";
shapes = (
{
closed = 1;
nodes = (
(216,0,l),
(216,232,l),
(208,208,l),
(648,692,l),
(486,692,l),
(208,372,l),
(216,372,l),
(216,692,l),
(72,692,l),
(72,0,l)
);
},
{
closed = 1;
nodes = (
(672,0,l),
(381,413,l),
(286,309,l),
(496,0,l)
);
}
);
width = 672;
},
{
anchors = (
{
name = bottom;
pos = (292,0);
},
{
name = top;
pos = (372,680);
}
);
layerId = "980A8AF2-BF11-492D-9410-496A94B21BD3";
shapes = (
{
closed = 1;
nodes = (
(135,0,l),
(169,251,l),
(159,231,l),
(640,680,l),
(528,680,l),
(174,342,l),
(182,342,l),
(228,680,l),
(134,680,l),
(41,0,l)
);
},
{
closed = 1;
nodes = (
(568,0,l),
(332,402,l),
(263,340,l),
(454,0,l)
);
}
);
width = 629;
},
{
anchors = (
{
name = bottom;
pos = (313,0);
},
{
name = top;
pos = (391,692);
}
);
layerId = "829AF10C-3E33-4291-B5B6-8F7CF12D6A62";
shapes = (
{
closed = 1;
nodes = (
(171,0,l),
(203,232,l),
(192,208,l),
(685,692,l),
(523,692,l),
(214,372,l),
(222,372,l),
(265,692,l),
(121,692,l),
(27,0,l)
);
},
{
closed = 1;
nodes = (
(614,0,l),
(389,413,l),
(278,309,l),
(438,0,l)
);
}
);
width = 666;
}
);
metricLeft = H;
unicode = 75;
}
{
glyphname = L;
layers = (
{
anchors = (
{
name = bottom;
pos = (332,0);
},
{
name = top;
pos = (160,732);
},
{
name = topright;
pos = (236,572);
}
);
layerId = m01;
shapes = (
{
closed = 1;
nodes = (
(188,0,l),
(188,732,l),
(88,732,l),
(88,0,l)
);
},
{
closed = 1;
nodes = (
(548,0,l),
(548,86,l),
(180,86,l),
(180,0,l)
);
}
);
width = 560;
},
{
anchors = (
{
name = bottom;
pos = (336,0);
},
{
name = top;
pos = (179,744);
},
{
name = topright;
pos = (264,586);
}
);
layerId = "E9FB66CC-5D7A-47B2-9A25-A0E8EEF5BB81";
shapes = (
{
closed = 1;
nodes = (
(232,0,l),
(232,744,l),
(80,744,l),
(80,0,l)
);
},
{
closed = 1;
nodes = (
(564,0,l),
(564,123,l),
(224,123,l),
(224,0,l)
);
}
);
width = 572;
}
);
metricLeft = H;
unicode = 76;
}
{
glyphname = M;
layers = (
{
layerId = m01;
shapes = (
{
closed = 1;
nodes = (
(164,0,l),
(164,588,l),
(156,588,l),
(374,0,l),
(458,0,l),
(674,590,l),
(666,590,l),
(666,0,l),
(758,0,l),
(758,680,l),
(630,680,l),
(418,94,l),
(426,94,l),
(208,680,l),
(80,680,l),
(80,0,l)
);
}
);
width = 838;
},
{
layerId = "E9FB66CC-5D7A-47B2-9A25-A0E8EEF5BB81";
shapes = (
{
closed = 1;
nodes = (
(192,0,l),
(192,532,l),
(184,532,l),
(378,0,l),
(474,0,l),
(662,532,l),
(654,532,l),
(654,0,l),
(792,0,l),
(792,692,l),
(610,692,l),
(436,200,l),
(444,200,l),
(266,692,l),
(72,692,l),
(72,0,l)
);
}
);
width = 864;
},
{
layerId = "980A8AF2-BF11-492D-9410-496A94B21BD3";
shapes = (
{
closed = 1;
nodes = (
(122,0,l),
(202,588,l),
(195,588,l),
(324,0,l),
(406,0,l),
(694,590,l),
(686,590,l),
(606,0,l),
(698,0,l),
(791,680,l),
(665,680,l),
(381,94,l),
(389,94,l),
(260,680,l),
(132,680,l),
(39,0,l)
);
}
);
width = 830;
},
{
layerId = "829AF10C-3E33-4291-B5B6-8F7CF12D6A62";
shapes = (
{
closed = 1;
nodes = (
(144,0,l),
(217,532,l),
(210,532,l),
(325,0,l),
(419,0,l),
(675,532,l),
(667,532,l),
(594,0,l),
(732,0,l),
(827,692,l),
(646,692,l),
(411,200,l),
(419,200,l),
(314,692,l),
(120,692,l),
(25,0,l)
);
}
);
width = 852;
}
);
metricLeft = H;
metricRight = H;
unicode = 77;
}
{
glyphname = N;
layers = (
{
anchors = (
{
name = bottom;
pos = (388,0);
},
{
name = top;
pos = (380,732);
}
);
layerId = m01;
shapes = (
{
closed = 1;
nodes = (
(180,0,l),
(180,634,l),
(172,634,l),
(544,0,l),
(666,0,l),
(666,732,l),
(574,732,l),
(574,114,l),
(582,114,l),
(218,732,l),
(88,732,l),
(88,0,l)
);
}
);
width = 754;
},
{
anchors = (
{
name = bottom;
pos = (396,0);
},
{
name = top;
pos = (388,744);
}
);
layerId = "E9FB66CC-5D7A-47B2-9A25-A0E8EEF5BB81";
shapes = (
{
closed = 1;
nodes = (
(218,0,l),
(218,546,l),
(210,546,l),
(530,0,l),
(694,0,l),
(694,744,l),
(556,744,l),
(556,220,l),
(564,220,l),
(256,744,l),
(80,744,l),
(80,0,l)
);
}
);
width = 774;
},
{
anchors = (
{
name = bottom;
pos = (391,0);
},
{
name = top;
pos = (387,732);
}
);
associatedMasterId = m01;
layerId = "71E572D0-3921-4148-95E2-FFE2620C6ACC";
name = "15 apr 23, 17:24";
shapes = (
{
closed = 1;
nodes = (
(188,0,l),
(188,605,l),
(559,0,l),
(674,0,l),
(674,732,l),
(582,732,l),
(582,142,l),
(220,732,l),
(96,732,l),
(96,0,l)
);
}
);
width = 770;
}
);
metricLeft = H;
metricRight = H;
unicode = 78;
}
{
glyphname = O;
layers = (
{
anchors = (
{
name = center;
pos = (358,335);
},
{
name = top;
pos = (356,680);
}
);
layerId = m01;
shapes = (
{
closed = 1;
nodes = (
(544,-14,o),
(672,130,o),
(672,340,cs),
(672,551,o),
(544,694,o),
(356,694,cs),
(168,694,o),
(40,551,o),
(40,340,cs),
(40,130,o),
(168,-14,o),
(356,-14,cs)
);
},
{
closed = 1;
nodes = (
(224,62,o),
(140,171,o),
(140,341,cs),
(140,512,o),
(224,620,o),
(356,620,cs),
(488,620,o),
(572,512,o),
(572,341,cs),
(572,171,o),
(488,62,o),
(356,62,cs)
);
}
);
width = 712;
},
{
anchors = (
{
name = center;
pos = (359,346);
},
{
name = top;
pos = (359,692);
}
);
layerId = "E9FB66CC-5D7A-47B2-9A25-A0E8EEF5BB81";
shapes = (
{
closed = 1;
nodes = (
(555,-14,o),
(686,130,o),
(686,346,cs),
(686,562,o),
(555,706,o),
(359,706,cs),
(163,706,o),
(32,562,o),
(32,346,cs),
(32,130,o),
(163,-14,o),
(359,-14,cs)
);
},
{
closed = 1;
nodes = (
(252,96,o),
(184,194,o),
(184,347,cs),
(184,500,o),
(252,598,o),
(359,598,cs),
(466,598,o),
(534,500,o),
(534,347,cs),
(534,194,o),
(466,96,o),
(359,96,cs)
);
}
);
width = 718;
},
{
anchors = (
{
name = center;
pos = (347,335);
},
{
name = top;
pos = (393,680);
}
);
layerId = "980A8AF2-BF11-492D-9410-496A94B21BD3";
shapes = (
{
closed = 1;
nodes = (
(500,-14,o),
(657,171,o),
(657,407,cs),
(657,580,o),
(556,694,o),
(395,694,cs),
(191,694,o),
(34,510,o),
(34,273,cs),
(34,100,o),
(135,-14,o),
(297,-14,cs)
);
},
{
closed = 1;
nodes = (
(196,65,o),
(131,148,o),
(133,281,cs),
(136,475,o),
(247,622,o),
(387,619,cs),
(496,617,o),
(560,534,o),
(558,401,cs),
(555,205,o),
(444,60,o),
(305,63,cs)
);
}
);
width = 691;
},
{
anchors = (
{
name = center;
pos = (352,346);
},
{
name = top;
pos = (400,692);
}
);
layerId = "829AF10C-3E33-4291-B5B6-8F7CF12D6A62";
shapes = (
{
closed = 1;
nodes = (
(514,-14,o),
(674,171,o),
(674,415,cs),
(674,592,o),
(570,706,o),
(402,706,cs),
(189,706,o),
(29,521,o),
(29,277,cs),
(29,100,o),
(133,-14,o),
(302,-14,cs)
);
},
{
closed = 1;
nodes = (
(231,97,o),
(180,166,o),
(180,281,cs),
(180,460,o),
(274,597,o),
(388,597,cs),
(473,597,o),
(523,527,o),
(523,413,cs),
(523,234,o),
(429,97,o),
(316,97,cs)
);
}
);
width = 703;
}
);
metricRight = "=|";
unicode = 79;
userData = {
KernOnName = O;
};
}
{
glyphname = P;
layers = (
{
layerId = m01;
shapes = (
{
closed = 1;
nodes = (
(188,0,l),
(188,661,l),
(180,653,l),
(376,653,ls),
(464,653,o),
(516,603,o),
(516,519,cs),
(516,432,o),
(463,380,o),
(372,380,cs),
(180,380,l),
(180,300,l),
(359,300,ls),
(520,300,o),
(622,385,o),
(622,519,cs),
(622,649,o),
(521,732,o),
(363,732,cs),
(88,732,l),
(88,0,l)
);
}
);
width = 650;
},
{
layerId = "E9FB66CC-5D7A-47B2-9A25-A0E8EEF5BB81";
shapes = (
{
closed = 1;
nodes = (
(235,0,l),
(235,624,l),
(227,616,l),
(354,616,ls),
(425,616,o),
(469,576,o),
(469,509,cs),
(469,442,o),
(425,401,o),
(353,401,cs),
(227,401,l),
(227,286,l),
(360,286,ls),
(521,286,o),
(630,376,o),
(630,510,cs),
(630,643,o),
(523,732,o),
(364,732,cs),
(82,732,l),
(82,0,l)
);
}
);
width = 650;
},
{
associatedMasterId = m01;
layerId = "DBC19135-4BDE-4507-9A9E-AE0B796A5218";
name = "15 apr 23, 17:25";
shapes = (
{
closed = 1;
nodes = (
(197,0,l),
(197,661,l),
(188,653,l),
(374,653,ls),
(457,653,o),
(508,604,o),
(508,523,cs),
(508,440,o),
(457,389,o),
(372,389,cs),
(188,389,l),
(188,310,l),
(360,310,ls),
(512,310,o),
(613,395,o),
(613,523,cs),
(613,649,o),
(514,732,o),
(364,732,cs),
(96,732,l),
(96,0,l)
);
}
);
width = 637;
}
);
metricLeft = H;
unicode = 80;
userData = {
KernOnName = P;
};
}
{
glyphname = Q;
layers = (
{
layerId = m01;
shapes = (
{
closed = 1;
nodes = (
(672,-89,l),
(646,-24,o),
(584,26,o),
(512,38,c),
(512,30,l),
(610,79,o),
(672,202,o),
(672,348,cs),
(672,560,o),
(549,694,o),
(355,694,cs),
(162,694,o),
(40,557,o),
(40,342,cs),
(40,127,o),
(163,-12,o),
(356,-12,cs),
(378,-12,ls),
(471,-12,o),
(546,-58,o),
(577,-136,c)
);
},
{
closed = 1;
nodes = (
(220,62,o),
(140,166,o),
(140,341,cs),
(140,516,o),
(220,620,o),
(356,620,cs),
(492,620,o),
(572,516,o),
(572,341,cs),
(572,166,o),
(492,62,o),
(356,62,cs)
);
}
);
width = 712;
},
{
background = {
anchors = (
{
name = top;
pos = (358,692);
}
);
shapes = (
{
closed = 1;
nodes = (
(552,-15,o),
(684,131,o),
(684,346,cs),
(684,561,o),
(552,707,o),
(358,707,cs),
(165,707,o),
(32,561,o),
(32,346,cs),
(32,131,o),
(165,-15,o),
(358,-15,cs)
);
},
{
closed = 1;
nodes = (
(251,97,o),
(183,194,o),
(183,348,cs),
(183,501,o),
(251,599,o),
(358,599,cs),
(465,599,o),
(533,501,o),
(533,348,cs),
(533,194,o),
(465,97,o),
(358,97,cs)
);
}
);
};
layerId = "E9FB66CC-5D7A-47B2-9A25-A0E8EEF5BB81";
shapes = (
{
closed = 1;
nodes = (
(684,-74,l),
(654,-11,o),
(591,35,o),
(520,47,c),
(520,39,l),
(624,91,o),
(684,208,o),
(684,350,cs),
(684,568,o),
(557,707,o),
(358,707,cs),
(164,707,o),
(32,564,o),
(32,345,cs),
(32,136,o),
(163,-15,o),
(358,-15,cs),
(360,-15,ls),
(453,-15,o),
(521,-66,o),
(542,-153,c)
);
},
{
closed = 1;
nodes = (
(248,93,o),
(183,187,o),
(183,346,cs),
(183,505,o),
(248,599,o),
(358,599,cs),
(468,599,o),
(533,505,o),
(533,346,cs),
(533,187,o),
(468,93,o),
(358,93,cs)
);
}
);
width = 716;
},
{
associatedMasterId = "E9FB66CC-5D7A-47B2-9A25-A0E8EEF5BB81";
background = {
shapes = (
{
closed = 1;
nodes = (
(549,-12,o),
(679,129,o),
(679,340,cs),
(679,552,o),
(549,693,o),
(353,693,cs),
(159,693,o),
(29,552,o),
(29,340,cs),
(29,129,o),
(159,-12,o),
(353,-12,cs)
);
},
{
closed = 1;
nodes = (
(246,98,o),
(180,190,o),
(180,341,cs),
(180,493,o),
(246,586,o),
(353,586,cs),
(461,586,o),
(528,493,o),
(528,341,cs),
(528,190,o),
(461,98,o),
(353,98,cs)
);
}
);
};
layerId = "5E3D4344-40ED-437A-9499-867750331F68";
name = "6 Jun 23, 16:44";
shapes = (
{
closed = 1;
nodes = (
(678,-78,l),
(650,-19,o),
(581,34,o),
(516,50,c),
(516,39,l),
(619,90,o),
(677,206,o),
(677,346,cs),
(677,553,o),
(549,693,o),
(353,693,cs),
(159,693,o),
(30,552,o),
(30,340,cs),
(30,129,o),
(158,-12,o),
(353,-12,cs),
(354,-12,ls),
(443,-12,o),
(513,-66,o),
(540,-152,c)
);
},
{
closed = 1;
nodes = (
(246,98,o),
(180,190,o),
(180,341,cs),
(180,493,o),
(246,586,o),
(353,586,cs),
(461,586,o),
(528,493,o),
(528,341,cs),
(528,190,o),
(461,98,o),
(353,98,cs)
);
}
);
width = 708;
}
);
metricLeft = O;
metricRight = O;
unicode = 81;
}
{
glyphname = R;
layers = (
{
anchors = (
{
name = bottom;
pos = (368,0);
},
{
name = top;
pos = (328,700);
}
);
layerId = m01;
shapes = (
{
closed = 1;
nodes = (
(188,0,l),
(188,636,l),
(176,624,l),
(366,624,ls),
(445,624,o),
(494,580,o),
(494,508,cs),
(494,434,o),
(445,388,o),
(364,388,cs),
(176,388,l),
(176,312,l),
(312,312,ls),
(368,312,o),
(411,283,o),
(432,232,cs),
(528,0,l),
(642,0,l),
(516,268,ls),
(497,308,o),
(463,332,o),
(424,334,c),
(424,322,l),
(526,334,o),
(594,408,o),
(594,508,cs),
(594,623,o),
(504,700,o),
(368,700,cs),
(92,700,l),
(92,0,l)
);
}
);
width = 660;
},
{
anchors = (
{
name = bottom;
pos = (355,0);
},
{
name = top;
pos = (319,700);
}
);
layerId = "E9FB66CC-5D7A-47B2-9A25-A0E8EEF5BB81";
shapes = (
{
closed = 1;
nodes = (
(218,0,l),
(218,599,l),
(208,589,l),
(338,589,ls),
(404,589,o),
(444,553,o),
(444,494,cs),
(444,435,o),
(404,397,o),
(337,397,cs),
(208,397,l),
(208,290,l),
(306,290,ls),
(349,290,o),
(384,267,o),
(398,228,cs),
(482,0,l),
(652,0,l),
(538,258,ls),
(520,298,o),
(487,322,o),
(448,323,c),
(448,313,l),
(535,331,o),
(596,404,o),
(596,498,cs),
(596,618,o),
(500,700,o),
(360,700,cs),
(72,700,l),
(72,0,l)
);
}
);
width = 682;
}
);
metricLeft = H;
unicode = 82;
userData = {
KernOnName = R;
};
}
{
glyphname = S;
layers = (
{
anchors = (
{
name = bottom;
pos = (332,0);
},
{
name = top;
pos = (334,744);
}
);
layerId = "E9FB66CC-5D7A-47B2-9A25-A0E8EEF5BB81";
shapes = (
{
closed = 1;
nodes = (
(513,-16,o),
(628,70,o),
(628,208,cs),
(628,476,o),
(198,384,o),
(198,556,cs),
(198,613,o),
(245,650,o),
(320,650,cs),
(399,650,o),
(460,604,o),
(474,536,c),
(618,584,l),
(582,692,o),
(470,760,o),
(330,760,cs),
(166,760,o),
(48,678,o),
(48,552,cs),
(48,292,o),
(476,380,o),
(476,200,cs),
(476,136,o),
(424,96,o),
(343,96,cs),
(253,96,o),
(187,154,o),
(172,240,c),
(26,188,l),
(59,62,o),
(182,-16,o),
(338,-16,cs)
);
}
);
width = 660;
},
{
anchors = (
{
name = bottom;
pos = (341,0);
},
{
name = top;
pos = (324,732);
}
);
associatedMasterId = m01;
layerId = "7B12349E-CF51-40D1-983E-E94D7E9052BF";
name = "20 Apr 23, 21:32";
shapes = (
{
closed = 1;
nodes = (
(502,-13,o),
(607,67,o),
(607,184,cs),
(607,435,o),
(167,372,o),
(167,556,cs),
(167,623,o),
(224,667,o),
(312,667,cs),
(408,667,o),
(473,615,o),
(487,523,c),
(592,548,l),
(571,665,o),
(456,745,o),
(310,745,cs),
(165,745,o),
(65,674,o),
(65,556,cs),
(65,310,o),
(502,374,o),
(502,182,cs),
(502,111,o),
(445,67,o),
(345,67,cs),
(228,67,o),
(153,128,o),
(142,238,c),
(36,213,l),
(56,75,o),
(176,-13,o),
(343,-13,cs)
);
}
);
width = 649;
},
{
anchors = (
{
name = bottom;
pos = (336,0);
},
{
name = top;
pos = (316,732);
}
);
layerId = m01;
name = Regular;
shapes = (
{
closed = 1;
nodes = (
(490,-14,o),
(600,64,o),
(600,192,cs),
(600,460,o),
(160,365,o),
(160,556,cs),
(160,624,o),
(218,668,o),
(308,668,cs),
(400,668,o),
(468,617,o),
(484,538,c),
(588,570,l),
(560,678,o),
(456,746,o),
(320,746,cs),
(168,746,o),
(62,670,o),
(62,550,cs),
(62,290,o),
(500,398,o),
(500,190,cs),
(500,113,o),
(438,64,o),
(340,64,cs),
(236,64,o),
(160,123,o),
(144,216,c),
(42,184,l),
(66,64,o),
(184,-14,o),
(332,-14,cs)
);
}
);
width = 637;
}
);
note = "Falls to the right";
unicode = 83;
userData = {
KernOnName = S;
};
}
{
glyphname = T;
layers = (
{
anchors = (
{
name = bottom;
pos = (280,0);
},
{
name = center;
pos = (278,372);
},
{
name = top;
pos = (278,680);
}
);
layerId = m01;
shapes = (
{
closed = 1;
nodes = (
(325,0,l),
(325,614,l),
(231,614,l),
(231,0,l)
);
},
{
closed = 1;
nodes = (
(548,606,l),
(548,680,l),
(8,680,l),
(8,606,l)
);
}
);
width = 556;
},
{
anchors = (
{
name = bottom;
pos = (283,0);
},
{
name = center;
pos = (283,364);
},
{
name = top;
pos = (283,692);
}
);
layerId = "E9FB66CC-5D7A-47B2-9A25-A0E8EEF5BB81";
shapes = (
{
closed = 1;
nodes = (
(355,0,l),
(355,592,l),
(211,592,l),
(211,0,l)
);
},
{
closed = 1;
nodes = (
(560,584,l),
(560,692,l),
(6,692,l),
(6,584,l)
);
}
);
width = 566;
}
);
metricRight = "=|";
unicode = 84;
userData = {
KernOnName = T;
};
}
{
glyphname = U;
layers = (
{
anchors = (
{
name = ogonek;
pos = (442,11);
},
{
name = top;
pos = (340,680);
}
);
layerId = m01;
shapes = (
{
closed = 1;
nodes = (
(506,-14,o),
(612,90,o),
(612,254,cs),
(612,680,l),
(524,680,l),
(524,248,ls),
(524,134,o),
(456,66,o),
(342,66,cs),
(229,66,o),
(162,134,o),
(162,248,cs),
(162,680,l),
(68,680,l),
(68,254,ls),
(68,90,o),
(174,-14,o),
(340,-14,cs)
);
}
);
width = 680;
},
{
anchors = (
{
name = ogonek;
pos = (454,11);
},
{
name = top;
pos = (346,692);
}
);
layerId = "E9FB66CC-5D7A-47B2-9A25-A0E8EEF5BB81";
shapes = (
{
closed = 1;
nodes = (
(518,-15,o),
(627,90,o),
(627,257,cs),
(627,692,l),
(493,692,l),
(493,253,ls),
(493,159,o),
(440,104,o),
(350,104,cs),
(259,104,o),
(205,159,o),
(205,253,cs),
(205,692,l),
(63,692,l),
(63,257,ls),
(63,90,o),
(173,-15,o),
(346,-15,cs)
);
}
);
width = 690;
}
);
metricRight = "=|";
unicode = 85;
userData = {
KernOnName = U;
};
}
{
glyphname = V;
layers = (
{
layerId = m01;
shapes = (
{
closed = 1;
nodes = (
(356,0,l),
(598,680,l),
(506,680,l),
(306,100,l),
(314,100,l),
(110,680,l),
(10,680,l),
(256,0,l)
);
}
);
width = 608;
},
{
layerId = "E9FB66CC-5D7A-47B2-9A25-A0E8EEF5BB81";
shapes = (
{
closed = 1;
nodes = (
(400,0,l),
(634,692,l),
(500,692,l),
(328,160,l),
(336,160,l),
(158,692,l),
(6,692,l),
(244,0,l)
);
}
);
width = 640;
},
{
layerId = "980A8AF2-BF11-492D-9410-496A94B21BD3";
shapes = (
{
closed = 1;
nodes = (
(243,0,l),
(570,680,l),
(476,680,l),
(204,100,l),
(212,100,l),
(95,680,l),
(-2,680,l),
(143,0,l)
);
}
);
width = 562;
},
{
layerId = "829AF10C-3E33-4291-B5B6-8F7CF12D6A62";
shapes = (
{
closed = 1;
nodes = (
(367,0,l),
(687,692,l),
(548,692,l),
(311,160,l),
(319,160,l),
(221,692,l),
(75,692,l),
(211,0,l)
);
}
);
width = 666;
}
);
unicode = 86;
userData = {
KernOnName = V;
};
}
{
glyphname = W;
layers = (
{
anchors = (
{
name = bottom;
pos = (439,0);
},
{
name = top;
pos = (439,680);
}
);
layerId = m01;
shapes = (
{
closed = 1;
nodes = (
(304,0,l),
(448,596,l),
(440,596,l),
(582,0,l),
(690,0,l),
(870,680,l),
(778,680,l),
(636,86,l),
(644,86,l),
(498,680,l),
(394,680,l),
(254,86,l),
(262,86,l),
(108,680,l),
(10,680,l),
(200,0,l)
);
}
);
width = 878;
},
{
anchors = (
{
name = bottom;
pos = (455,0);
},
{
name = top;
pos = (455,692);
}
);
layerId = "E9FB66CC-5D7A-47B2-9A25-A0E8EEF5BB81";
shapes = (
{
closed = 1;
nodes = (
(344,0,l),
(462,524,l),
(454,524,l),
(574,0,l),
(730,0,l),
(905,692,l),
(776,692,l),
(656,170,l),
(664,170,l),
(540,692,l),
(388,692,l),
(274,172,l),
(282,172,l),
(154,692,l),
(6,692,l),
(188,0,l)
);
}
);
width = 909;
},
{
anchors = (
{
name = bottom;
pos = (323,0);
},
{
name = top;
pos = (415,680);
}
);
layerId = "980A8AF2-BF11-492D-9410-496A94B21BD3";
shapes = (
{
closed = 1;
nodes = (
(193,0,l),
(412,596,l),
(405,596,l),
(460,0,l),
(568,0,l),
(835,680,l),
(742,680,l),
(525,86,l),
(535,86,l),
(475,680,l),
(364,680,l),
(150,86,l),
(161,86,l),
(93,680,l),
(-1,680,l),
(89,0,l)
);
}
);
width = 825;
},
{
anchors = (
{
name = bottom;
pos = (429,0);
},
{
name = top;
pos = (522,692);
}
);
layerId = "829AF10C-3E33-4291-B5B6-8F7CF12D6A62";
shapes = (
{
closed = 1;
nodes = (
(323,0,l),
(505,524,l),
(498,524,l),
(542,0,l),
(698,0,l),
(961,692,l),
(833,692,l),
(648,170,l),
(656,170,l),
(608,692,l),
(456,692,l),
(278,172,l),
(286,172,l),
(234,692,l),
(86,692,l),
(167,0,l)
);
}
);
width = 940;
}
);
unicode = 87;
userData = {
KernOnName = W;
};
}
{
glyphname = X;
layers = (
{
layerId = m01;
shapes = (
{
closed = 1;
nodes = (
(588,0,l),
(128,680,l),
(20,680,l),
(478,0,l)
);
},
{
closed = 1;
nodes = (
(108,0,l),
(300,280,l),
(250,356,l),
(4,0,l)
);
},
{
closed = 1;
nodes = (
(582,680,l),
(480,680,l),
(298,416,l),
(348,340,l)
);
}
);
width = 592;
},
{
layerId = "E9FB66CC-5D7A-47B2-9A25-A0E8EEF5BB81";
shapes = (
{
closed = 1;
nodes = (
(642,0,l),
(182,692,l),
(19,692,l),
(474,0,l)
);
},
{
closed = 1;
nodes = (
(145,0,l),
(318,257,l),
(249,361,l),
(4,0,l)
);
},
{
closed = 1;
nodes = (
(620,692,l),
(480,692,l),
(324,461,l),
(393,355,l)
);
}
);
width = 646;
},
{
layerId = "980A8AF2-BF11-492D-9410-496A94B21BD3";
shapes = (
{
closed = 1;
nodes = (
(551,0,l),
(198,680,l),
(95,680,l),
(446,0,l)
);
},
{
closed = 1;
nodes = (
(92,0,l),
(315,280,l),
(274,356,l),
(-13,0,l)
);
},
{
closed = 1;
nodes = (
(642,680,l),
(538,680,l),
(328,416,l),
(370,340,l)
);
}
);
width = 629;
},
{
layerId = "829AF10C-3E33-4291-B5B6-8F7CF12D6A62";
shapes = (
{
closed = 1;
nodes = (
(602,0,l),
(250,692,l),
(93,692,l),
(440,0,l)
);
},
{
closed = 1;
nodes = (
(127,0,l),
(328,257,l),
(271,361,l),
(-16,0,l)
);
},
{
closed = 1;
nodes = (
(679,692,l),
(537,692,l),
(361,461,l),
(415,355,l)
);
}
);
width = 663;
}
);
metricRight = "=|";
unicode = 88;
userData = {
KernOnName = X;
};
}
{
glyphname = Y;
layers = (
{
anchors = (
{
name = top;
pos = (292,680);
}
);
layerId = m01;
shapes = (
{
closed = 1;
nodes = (
(340,0,l),
(340,270,l),
(570,680,l),
(472,680,l),
(294,350,l),
(302,350,l),
(110,680,l),
(6,680,l),
(246,272,l),
(246,0,l)
);
}
);
width = 576;
},
{
anchors = (
{
name = top;
pos = (311,692);
}
);
layerId = "E9FB66CC-5D7A-47B2-9A25-A0E8EEF5BB81";
shapes = (
{
closed = 1;
nodes = (
(380,0,l),
(380,272,l),
(610,692,l),
(474,692,l),
(316,380,l),
(324,380,l),
(162,692,l),
(0,692,l),
(238,273,l),
(238,0,l)
);
}
);
width = 610;
},
{
anchors = (
{
name = top;
pos = (268,680);
}
);
layerId = "980A8AF2-BF11-492D-9410-496A94B21BD3";
shapes = (
{
closed = 1;
nodes = (
(222,0,l),
(260,270,l),
(538,680,l),
(439,680,l),
(224,350,l),
(231,350,l),
(91,680,l),
(-11,680,l),
(166,272,l),
(129,0,l)
);
}
);
width = 527;
},
{
anchors = (
{
name = top;
pos = (285,692);
}
);
layerId = "829AF10C-3E33-4291-B5B6-8F7CF12D6A62";
shapes = (
{
closed = 1;
nodes = (
(259,0,l),
(297,272,l),
(576,692,l),
(436,692,l),
(243,380,l),
(250,380,l),
(138,692,l),
(-19,692,l),
(154,273,l),
(118,0,l)
);
}
);
width = 557;
}
);
metricRight = "=|";
unicode = 89;
userData = {
KernOnName = Y;
};
}
{
glyphname = Z;
layers = (
{
anchors = (
{
name = top;
pos = (271,700);
}
);
layerId = m01;
shapes = (
{
closed = 1;
nodes = (
(525,0,l),
(525,77,l),
(221,77,ls),
(189,77,o),
(157,75,o),
(133,71,c),
(523,640,l),
(523,700,l),
(33,700,l),
(33,624,l),
(325,624,ls),
(357,624,o),
(389,626,o),
(413,630,c),
(21,61,l),
(21,0,l)
);
}
);
width = 546;
},
{
anchors = (
{
name = top;
pos = (294,700);
}
);
layerId = "E9FB66CC-5D7A-47B2-9A25-A0E8EEF5BB81";
shapes = (
{
closed = 1;
nodes = (
(564,0,l),
(564,113,l),
(288,113,ls),
(256,113,o),
(224,111,o),
(200,107,c),
(562,616,l),
(562,700,l),
(40,700,l),
(40,588,l),
(304,588,ls),
(336,588,o),
(368,590,o),
(392,594,c),
(28,84,l),
(28,0,l)
);
}
);
width = 592;
}
);
metricRight = "=|";
unicode = 90;
}
{
glyphname = bracketleft;
layers = (
{
layerId = m01;
shapes = (
{
closed = 1;
nodes = (
(286,-218,l),
(286,-145,l),
(144,-145,l),
(152,-153,l),
(152,617,l),
(144,609,l),
(286,609,l),
(286,681,l),
(66,681,l),
(66,-218,l)
);
}
);
width = 288;
},
{
layerId = "E9FB66CC-5D7A-47B2-9A25-A0E8EEF5BB81";
shapes = (
{
closed = 1;
nodes = (
(298,-218,l),
(298,-127,l),
(182,-127,l),
(190,-134,l),
(190,598,l),
(182,591,l),
(298,591,l),
(298,681,l),
(60,681,l),
(60,-218,l)
);
}
);
width = 305;
}
);
metricLeft = l;
unicode = 91;
userData = {
KernOnSpecialSpacing = {
L = NoKerning;
R = parenthesis;
};
};
}
{
glyphname = asciicircum;
layers = (
{
layerId = m01;
shapes = (
{
closed = 1;
nodes = (
(136,304,l),
(300,672,l),
(463,304,l),
(552,304,l),
(337,766,l),
(263,766,l),
(48,304,l)
);
}
);
width = 600;
},
{
layerId = "E9FB66CC-5D7A-47B2-9A25-A0E8EEF5BB81";
width = 626;
}
);
metricRight = "=|";
unicode = 94;
userData = {
KernOnSpecialSpacing = {
L = math;
R = math;
};
};
}
{
glyphname = underscore;
layers = (
{
layerId = m01;
shapes = (
{
closed = 1;
nodes = (
(486,-112,l),
(486,-48,l),
(0,-48,l),
(0,-112,l)
);
}
);
width = 486;
},
{
layerId = "E9FB66CC-5D7A-47B2-9A25-A0E8EEF5BB81";
shapes = (
{
closed = 1;
nodes = (
(462,-154,l),
(462,-48,l),
(0,-48,l),
(0,-154,l)
);
}
);
width = 462;
}
);
metricRight = "=|";
metricWidth = enspace;
unicode = 95;
userData = {
KernOnSpecialSpacing = {
L = underscore;
R = underscore;
};
};
}
{
glyphname = a;
layers = (
{
anchors = (
{
name = ogonek;
pos = (486,12);
},
{
name = top;
pos = (274,548);
}
);
layerId = m01;
shapes = (
{
closed = 1;
nodes = (
(306,-12,o),
(388,52,o),
(404,156,c),
(396,156,l),
(396,80,o),
(402,32,o),
(414,0,c),
(498,0,l),
(488,36,o),
(484,80,o),
(484,128,cs),
(484,376,ls),
(484,486,o),
(402,560,o),
(278,560,cs),
(167,560,o),
(73,497,o),
(42,400,c),
(128,372,l),
(146,444,o),
(202,488,o),
(276,488,cs),
(350,488,o),
(396,444,o),
(396,352,cs),
(396,284,ls),
(396,146,o),
(332,62,o),
(228,62,cs),
(165,62,o),
(124,94,o),
(124,148,cs),
(124,198,o),
(159,244,o),
(304,264,cs),
(404,278,l),
(404,340,l),
(228,316,ls),
(96,298,o),
(32,233,o),
(32,141,cs),
(32,48,o),
(100,-12,o),
(202,-12,cs)
);
}
);
width = 550;
},
{
anchors = (
{
name = ogonek;
pos = (517,12);
},
{
name = top;
pos = (285,548);
}
);
layerId = "E9FB66CC-5D7A-47B2-9A25-A0E8EEF5BB81";
shapes = (
{
closed = 1;
nodes = (
(303,-14,o),
(378,54,o),
(386,156,c),
(378,156,l),
(378,84,o),
(388,34,o),
(394,0,c),
(528,0,l),
(518,36,o),
(514,80,o),
(514,128,cs),
(514,372,ls),
(514,499,o),
(426,574,o),
(285,574,cs),
(170,574,o),
(71,521,o),
(31,415,c),
(153,379,l),
(181,451,o),
(220,482,o),
(279,482,cs),
(337,482,o),
(378,448,o),
(378,366,cs),
(378,296,ls),
(378,175,o),
(329,86,o),
(248,86,cs),
(200,86,o),
(165,116,o),
(165,163,cs),
(165,218,o),
(215,253,o),
(299,267,cs),
(386,281,l),
(386,358,l),
(266,342,ls),
(102,320,o),
(28,248,o),
(28,148,cs),
(28,52,o),
(99,-14,o),
(199,-14,cs)
);
}
);
width = 562;
}
);
unicode = 97;
userData = {
KernOnName = a;
};
}
{
glyphname = b;
layers = (
{
background = {
shapes = (
{
closed = 1;
nodes = (
(465,-12,o),
(556,100,o),
(556,267,cs),
(556,434,o),
(465,545,o),
(330,545,cs),
(229,545,o),
(151,483,o),
(136,389,c),
(151,389,l),
(151,713,l),
(65,713,l),
(65,0,l),
(149,0,l),
(149,148,l),
(134,148,l),
(149,52,o),
(228,-12,o),
(330,-12,cs)
);
}
);
};
layerId = m01;
shapes = (
{
closed = 1;
nodes = (
(460,-13,o),
(554,100,o),
(554,266,cs),
(554,432,o),
(464,545,o),
(331,545,cs),
(239,545,o),
(162,490,o),
(140,409,c),
(151,409,l),
(151,713,l),
(65,713,l),
(65,0,l),
(149,0,l),
(149,112,l),
(141,112,l),
(168,35,o),
(240,-13,o),
(326,-13,cs)
);
},
{
closed = 1;
nodes = (
(211,58,o),
(151,138,o),
(151,264,cs),
(151,391,o),
(212,471,o),
(309,471,cs),
(405,471,o),
(465,391,o),
(465,264,cs),
(465,138,o),
(404,58,o),
(307,58,cs)
);
}
);
width = 584;
},
{
layerId = "E9FB66CC-5D7A-47B2-9A25-A0E8EEF5BB81";
shapes = (
{
closed = 1;
nodes = (
(491,-15,o),
(580,102,o),
(580,273,cs),
(580,444,o),
(490,560,o),
(359,560,cs),
(271,560,o),
(199,507,o),
(182,430,c),
(190,430,l),
(190,713,l),
(60,713,l),
(60,0,l),
(188,0,l),
(188,104,l),
(180,104,l),
(199,33,o),
(272,-15,o),
(357,-15,cs)
);
},
{
closed = 1;
nodes = (
(238,78,o),
(190,153,o),
(190,272,cs),
(190,390,o),
(239,465,o),
(317,465,cs),
(394,465,o),
(443,390,o),
(443,272,cs),
(443,153,o),
(393,78,o),
(315,78,cs)
);
}
);
width = 606;
}
);
metricLeft = l;
metricRight = o;
unicode = 98;
}
{
glyphname = c;
layers = (
{
anchors = (
{
name = bottom;
pos = (272,0);
},
{
name = top;
pos = (273,532);
}
);
layerId = m01;
shapes = (
{
closed = 1;
nodes = (
(396,-12,o),
(487,63,o),
(502,172,c),
(418,190,l),
(406,111,o),
(351,60,o),
(276,60,cs),
(181,60,o),
(120,141,o),
(120,268,cs),
(120,394,o),
(180,474,o),
(274,474,cs),
(345,474,o),
(399,427,o),
(412,352,c),
(496,376,l),
(476,476,o),
(389,544,o),
(276,544,cs),
(131,544,o),
(30,431,o),
(30,266,cs),
(30,101,o),
(131,-12,o),
(278,-12,cs)
);
}
);
width = 522;
},
{
anchors = (
{
name = bottom;
pos = (279,0);
},
{
name = top;
pos = (281,545);
}
);
layerId = "E9FB66CC-5D7A-47B2-9A25-A0E8EEF5BB81";
shapes = (
{
closed = 1;
nodes = (
(409,-15,o),
(506,63,o),
(521,175,c),
(391,208,l),
(384,128,o),
(343,78,o),
(285,78,cs),
(211,78,o),
(165,154,o),
(165,275,cs),
(165,393,o),
(210,469,o),
(283,469,cs),
(338,469,o),
(378,423,o),
(385,352,c),
(513,383,l),
(492,488,o),
(397,560,o),
(281,560,cs),
(129,560,o),
(26,444,o),
(26,273,cs),
(26,101,o),
(130,-15,o),
(283,-15,cs)
);
}
);
width = 536;
},
{
anchors = (
{
name = bottom;
pos = (238,0);
},
{
name = top;
pos = (311,532);
}
);
layerId = "980A8AF2-BF11-492D-9410-496A94B21BD3";
shapes = (
{
closed = 1;
nodes = (
(356,-12,o),
(455,63,o),
(485,172,c),
(403,190,l),
(381,111,o),
(320,60,o),
(250,60,cs),
(173,60,o),
(125,121,o),
(125,219,cs),
(125,365,o),
(203,474,o),
(304,474,cs),
(375,474,o),
(417,423,o),
(419,352,c),
(506,376,l),
(500,476,o),
(426,544,o),
(316,544,cs),
(159,544,o),
(35,399,o),
(35,214,cs),
(35,79,o),
(115,-12,o),
(242,-12,cs)
);
}
);
width = 523;
},
{
anchors = (
{
name = bottom;
pos = (243,0);
},
{
name = top;
pos = (318,545);
}
);
layerId = "829AF10C-3E33-4291-B5B6-8F7CF12D6A62";
shapes = (
{
closed = 1;
nodes = (
(366,-15,o),
(472,64,o),
(501,175,c),
(376,208,l),
(359,128,o),
(313,78,o),
(259,78,cs),
(200,78,o),
(168,133,o),
(168,219,cs),
(168,359,o),
(231,469,o),
(310,469,cs),
(359,469,o),
(393,425,o),
(389,352,c),
(521,383,l),
(515,488,o),
(432,560,o),
(320,560,cs),
(156,560,o),
(29,411,o),
(29,218,cs),
(29,78,o),
(112,-15,o),
(244,-15,cs)
);
}
);
width = 533;
}
);
metricLeft = o;
unicode = 99;
userData = {
KernOnName = c;
};
}
{
glyphname = d;
layers = (
{
anchors = (
{
name = topright;
pos = (521,532);
}
);
layerId = m01;
shapes = (
{
closed = 1;
nodes = (
(355,-13,o),
(430,42,o),
(445,123,c),
(437,123,l),
(437,0,l),
(521,0,l),
(521,713,l),
(435,713,l),
(435,420,l),
(443,420,l),
(420,495,o),
(343,545,o),
(253,545,cs),
(120,545,o),
(30,433,o),
(30,268,cs),
(30,101,o),
(124,-13,o),
(260,-13,cs)
);
},
{
closed = 1;
nodes = (
(180,61,o),
(119,141,o),
(119,267,cs),
(119,393,o),
(180,473,o),
(277,473,cs),
(374,473,o),
(435,393,o),
(435,267,cs),
(435,141,o),
(374,61,o),
(277,61,cs)
);
}
);
width = 586;
},
{
anchors = (
{
name = topright;
pos = (547,545);
}
);
layerId = "E9FB66CC-5D7A-47B2-9A25-A0E8EEF5BB81";
shapes = (
{
closed = 1;
nodes = (
(338,-15,o),
(409,38,o),
(426,115,c),
(419,115,l),
(419,0,l),
(547,0,l),
(547,713,l),
(417,713,l),
(417,443,l),
(424,443,l),
(406,513,o),
(336,560,o),
(251,560,cs),
(117,560,o),
(26,444,o),
(26,273,cs),
(26,102,o),
(116,-15,o),
(249,-15,cs)
);
},
{
closed = 1;
nodes = (
(212,82,o),
(164,156,o),
(164,274,cs),
(164,393,o),
(213,467,o),
(291,467,cs),
(368,467,o),
(417,393,o),
(417,274,cs),
(417,156,o),
(367,82,o),
(289,82,cs)
);
}
);
width = 607;
}
);
metricLeft = o;
metricRight = l;
unicode = 100;
userData = {
KernOnName = d;
};
}
{
color = 4;
glyphname = e;
layers = (
{
anchors = (
{
name = ogonek;
pos = (374,12);
},
{
name = top;
pos = (286,548);
}
);
layerId = m01;
shapes = (
{
closed = 1;
nodes = (
(406,-12,o),
(500,56,o),
(526,160,c),
(442,184,l),
(426,108,o),
(370,62,o),
(294,62,cs),
(192,62,o),
(128,142,o),
(128,276,cs),
(128,407,o),
(189,488,o),
(288,488,cs),
(377,488,o),
(433,423,o),
(435,318,c),
(443,326,l),
(119,326,l),
(119,255,l),
(527,255,l),
(539,439,o),
(444,560,o),
(288,560,cs),
(137,560,o),
(36,446,o),
(36,275,cs),
(36,103,o),
(138,-12,o),
(290,-12,cs)
);
}
);
width = 564;
},
{
anchors = (
{
name = ogonek;
pos = (383,12);
},
{
name = top;
pos = (291,548);
}
);
layerId = "E9FB66CC-5D7A-47B2-9A25-A0E8EEF5BB81";
shapes = (
{
closed = 1;
nodes = (
(417,-12,o),
(517,58,o),
(542,160,c),
(414,196,l),
(404,126,o),
(359,86,o),
(301,86,cs),
(222,86,o),
(172,160,o),
(172,278,cs),
(172,392,o),
(220,464,o),
(295,464,cs),
(361,464,o),
(403,408,o),
(405,324,c),
(413,332,l),
(164,332,l),
(164,248,l),
(540,248,l),
(556,432,o),
(455,560,o),
(293,560,cs),
(137,560,o),
(30,444,o),
(30,275,cs),
(30,105,o),
(139,-12,o),
(296,-12,cs)
);
}
);
width = 574;
}
);
metricLeft = o;
unicode = 101;
}
{
glyphname = f;
layers = (
{
layerId = m01;
shapes = (
{
closed = 1;
nodes = (
(178,0,l),
(178,632,ls),
(178,698,o),
(227,719,o),
(304,686,c),
(320,760,l),
(181,810,o),
(86,763,o),
(86,644,cs),
(86,0,l)
);
},
{
closed = 1;
nodes = (
(288,496,l),
(288,568,l),
(8,568,l),
(8,496,l)
);
}
);
width = 296;
},
{
layerId = "E9FB66CC-5D7A-47B2-9A25-A0E8EEF5BB81";
shapes = (
{
closed = 1;
nodes = (
(220,0,l),
(220,604,ls),
(220,664,o),
(265,685,o),
(345,657,c),
(360,758,l),
(189,817,o),
(80,764,o),
(80,622,cs),
(80,0,l)
);
},
{
closed = 1;
nodes = (
(328,488,l),
(328,574,l),
(8,574,l),
(8,488,l)
);
}
);
width = 332;
}
);
note = "Controlla curva";
unicode = 102;
}
{
glyphname = g;
layers = (
{
anchors = (
{
name = top;
pos = (304,548);
}
);
layerId = m01;
name = Regular;
shapes = (
{
closed = 1;
nodes = (
(440,-236,o),
(538,-150,o),
(538,-20,cs),
(538,548,l),
(452,548,l),
(452,396,l),
(468,396,l),
(452,494,o),
(371,560,o),
(266,560,cs),
(128,560,o),
(36,446,o),
(36,276,cs),
(36,110,o),
(127,0,o),
(264,0,cs),
(369,0,o),
(450,64,o),
(466,160,c),
(450,160,l),
(450,-32,ls),
(450,-112,o),
(390,-162,o),
(294,-162,cs),
(209,-162,o),
(144,-124,o),
(128,-64,c),
(42,-94,l),
(74,-179,o),
(174,-236,o),
(292,-236,cs)
);
},
{
closed = 1;
nodes = (
(190,72,o),
(128,151,o),
(128,278,cs),
(128,403,o),
(190,482,o),
(289,482,cs),
(388,482,o),
(450,402,o),
(450,274,cs),
(450,150,o),
(388,72,o),
(289,72,cs)
);
}
);
width = 610;
},
{
anchors = (
{
name = top;
pos = (312,548);
}
);
layerId = "E9FB66CC-5D7A-47B2-9A25-A0E8EEF5BB81";
shapes = (
{
closed = 1;
nodes = (
(456,-236,o),
(564,-148,o),
(564,-24,cs),
(564,548,l),
(432,548,l),
(432,438,l),
(440,438,l),
(420,510,o),
(348,560,o),
(260,560,cs),
(125,560,o),
(30,445,o),
(30,282,cs),
(30,119,o),
(123,4,o),
(256,4,cs),
(346,4,o),
(420,58,o),
(436,134,c),
(428,134,l),
(428,-28,ls),
(428,-89,o),
(383,-128,o),
(312,-128,cs),
(244,-128,o),
(187,-89,o),
(164,-28,c),
(40,-96,l),
(79,-178,o),
(188,-236,o),
(308,-236,cs)
);
},
{
closed = 1;
nodes = (
(221,110,o),
(172,176,o),
(172,282,cs),
(172,386,o),
(221,452,o),
(300,452,cs),
(379,452,o),
(428,386,o),
(428,280,cs),
(428,176,o),
(379,110,o),
(300,110,cs)
);
}
);
width = 620;
}
);
metricRight = idotless;
unicode = 103;
userData = {
KernOnName = g;
};
}
{
glyphname = h;
layers = (
{
layerId = m01;
shapes = (
{
closed = 1;
nodes = (
(160,0,l),
(160,260,ls),
(160,399,o),
(219,484,o),
(314,484,cs),
(390,484,o),
(436,428,o),
(436,336,cs),
(436,0,l),
(524,0,l),
(524,364,ls),
(524,482,o),
(450,560,o),
(340,560,cs),
(240,560,o),
(168,496,o),
(152,400,c),
(160,400,l),
(160,732,l),
(72,732,l),
(72,0,l)
);
}
);
width = 588;
},
{
layerId = "E9FB66CC-5D7A-47B2-9A25-A0E8EEF5BB81";
shapes = (
{
closed = 1;
nodes = (
(192,0,l),
(192,264,ls),
(192,380,o),
(239,450,o),
(314,450,cs),
(374,450,o),
(410,406,o),
(410,332,cs),
(410,0,l),
(546,0,l),
(546,364,ls),
(546,482,o),
(473,560,o),
(364,560,cs),
(266,560,o),
(196,496,o),
(184,400,c),
(192,400,l),
(192,732,l),
(56,732,l),
(56,0,l)
);
}
);
width = 592;
}
);
metricLeft = l;
metricRight = n;
unicode = 104;
}
{
color = 3;
glyphname = k;
layers = (
{
anchors = (
{
name = bottom;
pos = (309,0);
}
);
layerId = m01;
shapes = (
{
closed = 1;
nodes = (
(162,0,l),
(162,212,l),
(154,196,l),
(528,572,l),
(418,572,l),
(154,304,l),
(162,304,l),
(162,766,l),
(70,766,l),
(70,0,l)
);
},
{
closed = 1;
nodes = (
(548,0,l),
(300,356,l),
(240,296,l),
(436,0,l)
);
}
);
width = 544;
},
{
anchors = (
{
name = bottom;
pos = (323,0);
}
);
layerId = "E9FB66CC-5D7A-47B2-9A25-A0E8EEF5BB81";
shapes = (
{
closed = 1;
nodes = (
(204,0,l),
(204,180,l),
(196,164,l),
(576,586,l),
(428,586,l),
(196,328,l),
(204,328,l),
(204,766,l),
(64,766,l),
(64,0,l)
);
},
{
closed = 1;
nodes = (
(604,0,l),
(360,372,l),
(268,270,l),
(436,0,l)
);
}
);
width = 594;
}
);
metricLeft = l;
unicode = 107;
userData = {
KernOnName = k;
};
}
{
glyphname = l;
layers = (
{
anchors = (
{
name = bottom;
pos = (109,0);
},
{
name = top;
pos = (112,692);
},
{
name = topright;
pos = (152,532);
}
);
layerId = m01;
shapes = (
{
closed = 1;
nodes = (
(152,0,l),
(152,712,l),
(66,712,l),
(66,0,l)
);
}
);
width = 218;
},
{
anchors = (
{
name = bottom;
pos = (125,0);
},
{
name = top;
pos = (127,692);
},
{
name = topright;
pos = (190,545);
}
);
layerId = "E9FB66CC-5D7A-47B2-9A25-A0E8EEF5BB81";
shapes = (
{
closed = 1;
nodes = (
(190,0,l),
(190,713,l),
(60,713,l),
(60,0,l)
);
}
);
width = 250;
}
);
metricRight = "=|";
unicode = 108;
userData = {
KernOnName = l;
};
}
{
glyphname = m;
layers = (
{
background = {
shapes = (
{
closed = 1;
nodes = (
(160,0,l),
(160,323,l),
(155,323,l),
(155,547,l),
(72,547,l),
(72,0,l)
);
},
{
closed = 1;
nodes = (
(488,0,l),
(488,376,ls),
(488,488,o),
(429,560,o),
(336,560,cs),
(229,560,o),
(143,468,o),
(136,328,c),
(160,252,l),
(160,396,o),
(214,484,o),
(302,484,cs),
(365,484,o),
(399,440,o),
(399,360,cs),
(399,0,l)
);
},
{
closed = 1;
nodes = (
(816,0,l),
(816,376,ls),
(816,488,o),
(757,560,o),
(664,560,cs),
(557,560,o),
(471,468,o),
(464,328,c),
(488,252,l),
(488,396,o),
(542,484,o),
(630,484,cs),
(693,484,o),
(728,440,o),
(728,360,cs),
(728,0,l)
);
}
);
};
layerId = m01;
shapes = (
{
closed = 1;
nodes = (
(160,0,l),
(160,280,ls),
(160,406,o),
(211,484,o),
(293,484,cs),
(359,484,o),
(400,433,o),
(400,349,cs),
(400,0,l),
(488,0,l),
(488,280,ls),
(488,406,o),
(539,484,o),
(621,484,cs),
(688,484,o),
(729,433,o),
(729,349,cs),
(729,0,l),
(816,0,l),
(816,364,ls),
(816,484,o),
(750,560,o),
(646,560,cs),
(554,560,o),
(486,500,o),
(474,408,c),
(482,408,l),
(474,499,o),
(409,560,o),
(320,560,cs),
(230,560,o),
(162,499,o),
(150,408,c),
(158,408,l),
(158,548,l),
(72,548,l),
(72,0,l)
);
}
);
width = 880;
},
{
layerId = "E9FB66CC-5D7A-47B2-9A25-A0E8EEF5BB81";
shapes = (
{
closed = 1;
nodes = (
(192,0,l),
(192,282,ls),
(192,385,o),
(232,450,o),
(297,450,cs),
(348,450,o),
(380,410,o),
(380,345,cs),
(380,0,l),
(516,0,l),
(516,282,ls),
(516,385,o),
(557,450,o),
(622,450,cs),
(673,450,o),
(705,410,o),
(705,345,cs),
(705,0,l),
(840,0,l),
(840,368,ls),
(840,482,o),
(771,560,o),
(671,560,cs),
(583,560,o),
(514,498,o),
(504,408,c),
(512,408,l),
(504,498,o),
(436,560,o),
(348,560,cs),
(260,560,o),
(190,498,o),
(182,408,c),
(190,408,l),
(190,548,l),
(56,548,l),
(56,0,l)
);
}
);
width = 888;
}
);
metricLeft = idotless;
metricRight = n;
unicode = 109;
}
{
glyphname = n;
layers = (
{
anchors = (
{
name = bottom;
pos = (316,0);
},
{
name = top;
pos = (310,572);
},
{
name = topleft;
pos = (70,572);
}
);
layerId = m01;
shapes = (
{
closed = 1;
nodes = (
(162,0,l),
(162,260,ls),
(162,415,o),
(222,506,o),
(323,506,cs),
(404,506,o),
(452,449,o),
(452,352,cs),
(452,0,l),
(544,0,l),
(544,384,ls),
(544,506,o),
(467,586,o),
(351,586,cs),
(247,586,o),
(166,520,o),
(152,416,c),
(160,416,l),
(160,572,l),
(70,572,l),
(70,0,l)
);
}
);
width = 606;
},
{
anchors = (
{
name = bottom;
pos = (330,0);
},
{
name = top;
pos = (326,586);
},
{
name = topleft;
pos = (58,586);
}
);
layerId = "E9FB66CC-5D7A-47B2-9A25-A0E8EEF5BB81";
shapes = (
{
closed = 1;
nodes = (
(198,0,l),
(198,280,ls),
(198,420,o),
(249,502,o),
(336,502,cs),
(401,502,o),
(440,454,o),
(440,374,cs),
(440,0,l),
(580,0,l),
(580,396,ls),
(580,522,o),
(506,602,o),
(390,602,cs),
(286,602,o),
(206,536,o),
(188,440,c),
(196,440,l),
(196,586,l),
(58,586,l),
(58,0,l)
);
}
);
width = 632;
}
);
metricLeft = idotless;
unicode = 110;
userData = {
KernOnName = n;
};
}
{
glyphname = o;
layers = (
{
anchors = (
{
name = top;
pos = (288,548);
}
);
layerId = m01;
shapes = (
{
closed = 1;
nodes = (
(440,-12,o),
(542,102,o),
(542,274,cs),
(542,446,o),
(440,560,o),
(288,560,cs),
(136,560,o),
(34,446,o),
(34,274,cs),
(34,102,o),
(136,-12,o),
(288,-12,cs)
);
},
{
closed = 1;
nodes = (
(188,62,o),
(126,143,o),
(126,275,cs),
(126,407,o),
(188,488,o),
(288,488,cs),
(388,488,o),
(450,407,o),
(450,275,cs),
(450,143,o),
(388,62,o),
(288,62,cs)
);
}
);
width = 576;
},
{
anchors = (
{
name = top;
pos = (302,548);
}
);
layerId = "E9FB66CC-5D7A-47B2-9A25-A0E8EEF5BB81";
shapes = (
{
closed = 1;
nodes = (
(460,-14,o),
(572,107,o),
(572,281,cs),
(572,453,o),
(464,574,o),
(304,574,cs),
(144,574,o),
(32,453,o),
(32,281,cs),
(32,107,o),
(140,-14,o),
(300,-14,cs)
);
},
{
closed = 1;
nodes = (
(221,83,o),
(176,156,o),
(176,282,cs),
(176,409,o),
(221,480,o),
(302,480,cs),
(383,480,o),
(428,409,o),
(428,282,cs),
(428,156,o),
(383,83,o),
(302,83,cs)
);
}
);
width = 604;
}
);
metricRight = "=|";
unicode = 111;
userData = {
KernOnName = o;
};
}
{
glyphname = p;
layers = (
{
layerId = m01;
shapes = (
{
closed = 1;
nodes = (
(150,-218,l),
(150,112,l),
(142,112,l),
(166,36,o),
(238,-12,o),
(326,-12,cs),
(461,-12,o),
(554,101,o),
(554,266,cs),
(554,431,o),
(463,544,o),
(330,544,cs),
(238,544,o),
(162,492,o),
(140,412,c),
(148,412,l),
(148,532,l),
(64,532,l),
(64,-218,l)
);
},
{
closed = 1;
nodes = (
(211,60,o),
(150,140,o),
(150,266,cs),
(150,392,o),
(211,472,o),
(308,472,cs),
(404,472,o),
(465,391,o),
(465,264,cs),
(465,139,o),
(404,60,o),
(308,60,cs)
);
}
);
width = 584;
},
{
layerId = "E9FB66CC-5D7A-47B2-9A25-A0E8EEF5BB81";
shapes = (
{
closed = 1;
nodes = (
(190,-218,l),
(190,104,l),
(182,104,l),
(201,33,o),
(272,-15,o),
(357,-15,cs),
(491,-15,o),
(580,102,o),
(580,273,cs),
(580,444,o),
(490,556,o),
(359,556,cs),
(271,556,o),
(197,507,o),
(180,430,c),
(188,430,l),
(188,545,l),
(60,545,l),
(60,-218,l)
);
},
{
closed = 1;
nodes = (
(238,78,o),
(190,153,o),
(190,272,cs),
(190,390,o),
(239,465,o),
(317,465,cs),
(394,465,o),
(443,390,o),
(443,272,cs),
(443,153,o),
(393,78,o),
(315,78,cs)
);
}
);
width = 606;
},
{
layerId = "980A8AF2-BF11-492D-9410-496A94B21BD3";
shapes = (
{
closed = 1;
nodes = (
(97,-218,l),
(142,112,l),
(134,112,l),
(147,36,o),
(210,-12,o),
(295,-12,cs),
(442,-12,o),
(558,136,o),
(558,323,cs),
(558,456,o),
(487,544,o),
(375,544,cs),
(287,544,o),
(205,492,o),
(173,412,c),
(182,412,l),
(197,532,l),
(113,532,l),
(11,-218,l)
);
},
{
closed = 1;
nodes = (
(206,60,o),
(159,121,o),
(159,218,cs),
(159,363,o),
(238,472,o),
(342,472,cs),
(421,472,o),
(468,411,o),
(468,313,cs),
(468,170,o),
(391,60,o),
(286,60,cs)
);
}
);
width = 593;
},
{
layerId = "829AF10C-3E33-4291-B5B6-8F7CF12D6A62";
shapes = (
{
closed = 1;
nodes = (
(139,-218,l),
(183,104,l),
(175,104,l),
(183,33,o),
(247,-15,o),
(328,-15,cs),
(472,-15,o),
(587,139,o),
(587,335,cs),
(587,470,o),
(517,556,o),
(408,556,cs),
(324,556,o),
(244,507,o),
(217,430,c),
(226,430,l),
(241,545,l),
(113,545,l),
(9,-218,l)
);
},
{
closed = 1;
nodes = (
(237,78,o),
(202,132,o),
(202,219,cs),
(202,357,o),
(267,465,o),
(352,465,cs),
(413,465,o),
(450,411,o),
(450,323,cs),
(450,187,o),
(383,78,o),
(298,78,cs)
);
}
);
width = 616;
}
);
metricRight = o;
unicode = 112;
}
{
glyphname = q;
layers = (
{
layerId = m01;
shapes = (
{
closed = 1;
nodes = (
(521,-218,l),
(521,532,l),
(437,532,l),
(437,420,l),
(445,420,l),
(421,496,o),
(350,544,o),
(260,544,cs),
(123,544,o),
(30,432,o),
(30,268,cs),
(30,102,o),
(122,-12,o),
(262,-12,cs),
(356,-12,o),
(427,41,o),
(443,123,c),
(435,123,l),
(435,-218,l)
);
},
{
closed = 1;
nodes = (
(180,62,o),
(119,142,o),
(119,267,cs),
(119,392,o),
(180,472,o),
(277,472,cs),
(374,472,o),
(435,392,o),
(435,267,cs),
(435,142,o),
(374,62,o),
(277,62,cs)
);
}
);
width = 585;
},
{
layerId = "E9FB66CC-5D7A-47B2-9A25-A0E8EEF5BB81";
shapes = (
{
closed = 1;
nodes = (
(547,-218,l),
(547,545,l),
(419,545,l),
(419,441,l),
(426,441,l),
(407,512,o),
(335,556,o),
(249,556,cs),
(115,556,o),
(26,443,o),
(26,272,cs),
(26,101,o),
(116,-14,o),
(247,-14,cs),
(336,-14,o),
(407,38,o),
(424,115,c),
(417,115,l),
(417,-218,l)
);
},
{
closed = 1;
nodes = (
(212,82,o),
(164,156,o),
(164,274,cs),
(164,393,o),
(213,467,o),
(291,467,cs),
(368,467,o),
(417,393,o),
(417,274,cs),
(417,156,o),
(367,82,o),
(289,82,cs)
);
}
);
width = 607;
},
{
layerId = "980A8AF2-BF11-492D-9410-496A94B21BD3";
shapes = (
{
closed = 1;
nodes = (
(451,-218,l),
(552,532,l),
(468,532,l),
(454,420,l),
(462,420,l),
(448,496,o),
(387,544,o),
(299,544,cs),
(151,544,o),
(35,398,o),
(35,211,cs),
(35,76,o),
(107,-12,o),
(225,-12,cs),
(314,-12,o),
(392,41,o),
(419,123,c),
(411,123,l),
(365,-218,l)
);
},
{
closed = 1;
nodes = (
(171,62,o),
(125,124,o),
(125,220,cs),
(125,364,o),
(203,472,o),
(308,472,cs),
(387,472,o),
(434,411,o),
(434,314,cs),
(434,170,o),
(355,62,o),
(252,62,cs)
);
}
);
width = 586;
},
{
layerId = "829AF10C-3E33-4291-B5B6-8F7CF12D6A62";
shapes = (
{
closed = 1;
nodes = (
(475,-218,l),
(578,545,l),
(450,545,l),
(436,441,l),
(443,441,l),
(434,512,o),
(370,556,o),
(287,556,cs),
(142,556,o),
(29,405,o),
(29,210,cs),
(29,74,o),
(98,-14,o),
(207,-14,cs),
(290,-14,o),
(370,38,o),
(396,115,c),
(389,115,l),
(345,-218,l)
);
},
{
closed = 1;
nodes = (
(203,82,o),
(168,136,o),
(168,222,cs),
(168,361,o),
(234,467,o),
(319,467,cs),
(380,467,o),
(415,413,o),
(415,326,cs),
(415,189,o),
(349,82,o),
(265,82,cs)
);
}
);
width = 607;
}
);
metricLeft = o;
unicode = 113;
}
{
glyphname = r;
layers = (
{
anchors = (
{
name = bottom;
pos = (118,0);
},
{
name = top;
pos = (228,572);
}
);
layerId = m01;
shapes = (
{
closed = 1;
nodes = (
(162,0,l),
(162,306,ls),
(162,457,o),
(239,523,o),
(368,484,c),
(388,573,l),
(248,618,o),
(156,553,o),
(152,406,c),
(160,406,l),
(160,572,l),
(70,572,l),
(70,0,l)
);
}
);
width = 384;
},
{
anchors = (
{
name = bottom;
pos = (136,0);
},
{
name = top;
pos = (244,586);
}
);
layerId = "E9FB66CC-5D7A-47B2-9A25-A0E8EEF5BB81";
shapes = (
{
closed = 1;
nodes = (
(204,0,l),
(204,308,ls),
(204,432,o),
(276,488,o),
(392,452,c),
(412,594,l),
(284,629,o),
(199,555,o),
(194,404,c),
(202,404,l),
(202,586,l),
(64,586,l),
(64,0,l)
);
}
);
width = 404;
}
);
metricLeft = idotless;
unicode = 114;
userData = {
KernOnName = r;
};
}
{
glyphname = s;
layers = (
{
anchors = (
{
name = bottom;
pos = (284,0);
},
{
name = top;
pos = (272,586);
}
);
layerId = "E9FB66CC-5D7A-47B2-9A25-A0E8EEF5BB81";
shapes = (
{
closed = 1;
nodes = (
(434,-16,o),
(530,71,o),
(530,174,cs),
(530,381,o),
(184,315,o),
(182,439,cs),
(181,478,o),
(218,506,o),
(273,506,cs),
(331,506,o),
(373,473,o),
(384,417,c),
(513,463,l),
(479,559,o),
(388,602,o),
(277,602,cs),
(136,602,o),
(41,530,o),
(41,421,cs),
(41,201,o),
(387,273,o),
(388,153,cs),
(389,113,o),
(350,85,o),
(290,83,cs),
(220,83,o),
(168,122,o),
(156,182,c),
(26,138,l),
(58,46,o),
(157,-16,o),
(283,-16,cs)
);
}
);
width = 551;
},
{
anchors = (
{
name = bottom;
pos = (263,0);
},
{
name = top;
pos = (250,572);
}
);
layerId = m01;
name = Regular;
shapes = (
{
closed = 1;
nodes = (
(400,-14,o),
(487,55,o),
(487,155,cs),
(487,368,o),
(140,293,o),
(136,425,cs),
(133,475,o),
(183,513,o),
(260,513,cs),
(323,513,o),
(369,481,o),
(384,422,c),
(469,452,l),
(441,544,o),
(348,586,o),
(257,586,cs),
(149,586,o),
(43,527,o),
(48,418,cs),
(49,219,o),
(394,302,o),
(397,152,cs),
(398,97,o),
(348,60,o),
(270,60,cs),
(192,60,o),
(135,101,o),
(121,171,c),
(30,149,l),
(50,51,o),
(140,-14,o),
(264,-14,cs)
);
}
);
width = 506;
},
{
anchors = (
{
name = bottom;
pos = (272,0);
},
{
name = top;
pos = (261,573);
}
);
associatedMasterId = "E9FB66CC-5D7A-47B2-9A25-A0E8EEF5BB81";
layerId = "76B3AA14-3812-495B-B802-9FB3B3115265";
name = "7 mag 23, 13:58";
shapes = (
{
closed = 1;
nodes = (
(421,-13,o),
(512,54,o),
(512,159,cs),
(512,368,o),
(176,326,o),
(176,431,cs),
(176,463,o),
(206,483,o),
(255,483,cs),
(318,483,o),
(363,450,o),
(370,397,c),
(502,435,l),
(473,531,o),
(383,586,o),
(257,586,cs),
(125,586,o),
(37,526,o),
(37,418,cs),
(37,202,o),
(372,243,o),
(372,142,cs),
(372,111,o),
(340,90,o),
(289,90,cs),
(219,90,o),
(170,127,o),
(163,184,c),
(21,155,l),
(37,54,o),
(134,-13,o),
(276,-13,cs)
);
}
);
width = 535;
}
);
note = "Falls to the left";
unicode = 115;
userData = {
KernOnName = s;
};
}
{
glyphname = t;
layers = (
{
anchors = (
{
name = bottom;
pos = (188,0);
},
{
name = center;
pos = (144,340);
},
{
name = topright;
pos = (176,544);
}
);
layerId = m01;
shapes = (
{
closed = 1;
nodes = (
(292,68,l),
(215,42,o),
(170,60,o),
(170,116,cs),
(170,688,l),
(86,636,l),
(86,522,l),
(84,522,l),
(84,108,ls),
(84,7,o),
(169,-35,o),
(302,0,c)
);
},
{
closed = 1;
nodes = (
(288,466,l),
(288,532,l),
(2,532,l),
(2,466,l)
);
}
);
width = 316;
},
{
anchors = (
{
name = bottom;
pos = (216,0);
},
{
name = center;
pos = (171,331);
},
{
name = topright;
pos = (222,560);
}
);
layerId = "E9FB66CC-5D7A-47B2-9A25-A0E8EEF5BB81";
shapes = (
{
closed = 1;
nodes = (
(337,104,l),
(263,73,o),
(218,92,o),
(218,155,cs),
(218,700,l),
(90,636,l),
(90,522,l),
(88,522,l),
(88,130,ls),
(88,5,o),
(188,-43,o),
(348,4,c)
);
},
{
closed = 1;
nodes = (
(344,461,l),
(344,545,l),
(0,545,l),
(0,461,l)
);
}
);
width = 359;
},
{
anchors = (
{
name = bottom;
pos = (120,0);
},
{
name = center;
pos = (123,340);
},
{
name = topright;
pos = (183,544);
}
);
layerId = "980A8AF2-BF11-492D-9410-496A94B21BD3";
shapes = (
{
closed = 1;
nodes = (
(241,68,l),
(163,42,o),
(122,60,o),
(129,116,cs),
(207,688,l),
(116,636,l),
(100,522,l),
(98,522,l),
(42,108,ls),
(29,7,o),
(106,-35,o),
(242,0,c)
);
},
{
closed = 1;
nodes = (
(291,466,l),
(300,532,l),
(20,532,l),
(11,466,l)
);
}
);
width = 298;
},
{
anchors = (
{
name = bottom;
pos = (162,0);
},
{
name = center;
pos = (164,331);
},
{
name = topright;
pos = (246,560);
}
);
layerId = "829AF10C-3E33-4291-B5B6-8F7CF12D6A62";
shapes = (
{
closed = 1;
nodes = (
(306,104,l),
(229,73,o),
(188,92,o),
(196,155,cs),
(272,700,l),
(135,636,l),
(119,522,l),
(117,522,l),
(63,130,ls),
(46,5,o),
(138,-43,o),
(303,4,c)
);
},
{
closed = 1;
nodes = (
(362,461,l),
(374,545,l),
(34,545,l),
(22,461,l)
);
}
);
width = 367;
}
);
note = "Controlla curva";
unicode = 116;
userData = {
KernOnName = t;
};
}
{
glyphname = u;
layers = (
{
anchors = (
{
name = ogonek;
pos = (500,12);
},
{
name = top;
pos = (286,548);
}
);
background = {
shapes = (
{
closed = 1;
nodes = (
(348,-12,o),
(422,50,o),
(438,144,c),
(426,144,l),
(426,0,l),
(512,0,l),
(512,548,l),
(424,548,l),
(424,282,ls),
(424,146,o),
(367,62,o),
(274,62,cs),
(198,62,o),
(152,122,o),
(152,220,cs),
(152,548,l),
(64,548,l),
(64,192,ls),
(64,70,o),
(139,-12,o),
(252,-12,cs)
);
}
);
};
layerId = m01;
shapes = (
{
closed = 1;
nodes = (
(345,-12,o),
(418,49,o),
(434,140,c),
(426,140,l),
(426,0,l),
(512,0,l),
(512,548,l),
(424,548,l),
(424,282,ls),
(424,146,o),
(367,62,o),
(274,62,cs),
(198,62,o),
(152,122,o),
(152,220,cs),
(152,548,l),
(64,548,l),
(64,192,ls),
(64,70,o),
(138,-12,o),
(250,-12,cs)
);
}
);
width = 584;
},
{
anchors = (
{
name = ogonek;
pos = (522,12);
},
{
name = top;
pos = (289,548);
}
);
layerId = "E9FB66CC-5D7A-47B2-9A25-A0E8EEF5BB81";
shapes = (
{
closed = 1;
nodes = (
(324,-12,o),
(398,49,o),
(410,136,c),
(402,136,l),
(402,0,l),
(534,0,l),
(534,548,l),
(398,548,l),
(398,276,ls),
(398,165,o),
(353,96,o),
(282,96,cs),
(222,96,o),
(184,145,o),
(184,224,cs),
(184,548,l),
(48,548,l),
(48,188,ls),
(48,71,o),
(124,-12,o),
(232,-12,cs)
);
}
);
width = 590;
}
);
metricLeft = "=|n";
metricRight = idotless;
unicode = 117;
userData = {
KernOnName = u;
};
}
{
glyphname = v;
layers = (
{
layerId = m01;
shapes = (
{
closed = 1;
nodes = (
(288,0,l),
(474,532,l),
(390,532,l),
(240,80,l),
(248,80,l),
(90,532,l),
(-2,532,l),
(192,0,l)
);
}
);
width = 472;
},
{
layerId = "E9FB66CC-5D7A-47B2-9A25-A0E8EEF5BB81";
shapes = (
{
closed = 1;
nodes = (
(327,0,l),
(502,545,l),
(383,545,l),
(255,130,l),
(262,130,l),
(134,545,l),
(-6,545,l),
(173,0,l)
);
}
);
width = 496;
}
);
metricRight = "=|";
unicode = 118;
}
{
glyphname = w;
layers = (
{
layerId = m01;
shapes = (
{
closed = 1;
nodes = (
(251,0,l),
(355,432,l),
(348,432,l),
(461,0,l),
(556,0,l),
(703,532,l),
(621,532,l),
(510,82,l),
(517,82,l),
(398,532,l),
(313,532,l),
(205,82,l),
(212,82,l),
(93,532,l),
(4,532,l),
(154,0,l)
);
}
);
width = 707;
},
{
layerId = "E9FB66CC-5D7A-47B2-9A25-A0E8EEF5BB81";
shapes = (
{
closed = 1;
nodes = (
(281,0,l),
(369,361,l),
(362,361,l),
(465,0,l),
(610,0,l),
(744,545,l),
(625,545,l),
(537,138,l),
(544,138,l),
(441,545,l),
(322,545,l),
(226,134,l),
(233,134,l),
(134,545,l),
(0,545,l),
(138,0,l)
);
}
);
width = 746;
}
);
unicode = 119;
userData = {
KernOnName = w;
};
}
{
glyphname = x;
layers = (
{
background = {
shapes = (
{
closed = 1;
nodes = (
(91,0,l),
(452,532,l),
(359,532,l),
(-2,0,l)
);
},
{
closed = 1;
nodes = (
(460,0,l),
(105,532,l),
(4,532,l),
(357,0,l)
);
}
);
};
layerId = m01;
shapes = (
{
closed = 1;
nodes = (
(95,0,l),
(231,206,l),
(223,206,l),
(361,0,l),
(463,0,l),
(273,280,l),
(273,264,l),
(457,532,l),
(363,532,l),
(231,336,l),
(239,336,l),
(109,532,l),
(7,532,l),
(189,260,l),
(189,276,l),
(1,0,l)
);
}
);
width = 466;
},
{
background = {
shapes = (
{
closed = 1;
nodes = (
(521,0,l),
(156,545,l),
(-6,545,l),
(357,0,l)
);
},
{
closed = 1;
nodes = (
(128,0,l),
(502,545,l),
(368,545,l),
(-6,0,l)
);
}
);
};
layerId = "E9FB66CC-5D7A-47B2-9A25-A0E8EEF5BB81";
shapes = (
{
closed = 1;
nodes = (
(128,0,l),
(249,177,l),
(242,177,l),
(356,0,l),
(521,0,l),
(322,294,l),
(322,279,l),
(502,545,l),
(368,545,l),
(257,380,l),
(264,380,l),
(155,545,l),
(-6,545,l),
(186,262,l),
(186,277,l),
(-6,0,l)
);
}
);
width = 513;
},
{
associatedMasterId = "E9FB66CC-5D7A-47B2-9A25-A0E8EEF5BB81";
layerId = "442051E3-370E-4C2A-A23B-5913F78A970B";
name = "26 feb 23, 17:52";
shapes = (
{
closed = 1;
nodes = (
(502,0,l),
(148,533,l),
(-7,533,l),
(344,0,l)
);
},
{
closed = 1;
nodes = (
(128,0,l),
(492,533,l),
(356,533,l),
(-9,0,l)
);
}
);
width = 492;
},
{
associatedMasterId = m01;
layerId = "86E0CBD2-1697-4290-A2B7-B035E8104321";
name = "8 mag 23, 21:31";
shapes = (
{
closed = 1;
nodes = (
(461,0,l),
(279,273,l),
(456,532,l),
(363,532,l),
(234,339,l),
(107,532,l),
(6,532,l),
(184,268,l),
(-2,0,l),
(93,0,l),
(229,201,l),
(359,0,l)
);
}
);
width = 461;
},
{
background = {
shapes = (
{
closed = 1;
nodes = (
(62,0,l),
(423,532,l),
(330,532,l),
(-31,0,l)
);
},
{
closed = 1;
nodes = (
(431,0,l),
(76,532,l),
(-25,532,l),
(328,0,l)
);
}
);
};
layerId = "980A8AF2-BF11-492D-9410-496A94B21BD3";
shapes = (
{
closed = 1;
nodes = (
(57,0,l),
(216,206,l),
(209,206,l),
(313,0,l),
(415,0,l),
(269,280,l),
(267,264,l),
(482,532,l),
(388,532,l),
(235,336,l),
(242,336,l),
(144,532,l),
(43,532,l),
(182,260,l),
(184,276,l),
(-36,0,l)
);
}
);
width = 455;
},
{
associatedMasterId = "980A8AF2-BF11-492D-9410-496A94B21BD3";
layerId = "EB507F59-EB3F-467C-AC94-8ECB5FC37F33";
name = "8 mag 23, 21:31";
shapes = (
{
closed = 1;
nodes = (
(461,0,l),
(279,273,l),
(456,532,l),
(363,532,l),
(234,339,l),
(107,532,l),
(6,532,l),
(184,268,l),
(-2,0,l),
(93,0,l),
(229,201,l),
(359,0,l)
);
}
);
width = 461;
},
{
background = {
shapes = (
{
closed = 1;
nodes = (
(489,0,l),
(124,545,l),
(-38,545,l),
(325,0,l)
);
},
{
closed = 1;
nodes = (
(96,0,l),
(470,545,l),
(336,545,l),
(-38,0,l)
);
}
);
};
layerId = "829AF10C-3E33-4291-B5B6-8F7CF12D6A62";
shapes = (
{
closed = 1;
nodes = (
(89,0,l),
(231,177,l),
(226,177,l),
(311,0,l),
(475,0,l),
(321,294,l),
(319,279,l),
(532,545,l),
(397,545,l),
(267,380,l),
(273,380,l),
(191,545,l),
(32,545,l),
(180,262,l),
(180,277,l),
(-46,0,l)
);
}
);
width = 505;
},
{
associatedMasterId = "829AF10C-3E33-4291-B5B6-8F7CF12D6A62";
layerId = "13015F71-893F-414C-976A-C7E0DA9314B8";
name = "26 feb 23, 17:52";
shapes = (
{
closed = 1;
nodes = (
(502,0,l),
(148,533,l),
(-7,533,l),
(344,0,l)
);
},
{
closed = 1;
nodes = (
(128,0,l),
(492,533,l),
(356,533,l),
(-9,0,l)
);
}
);
width = 492;
}
);
unicode = 120;
userData = {
KernOnName = x;
};
}
{
glyphname = y;
layers = (
{
anchors = (
{
name = top;
pos = (245,532);
}
);
layerId = m01;
shapes = (
{
closed = 1;
nodes = (
(36,-221,o),
(69,-228,o),
(99,-228,cs),
(163,-228,o),
(210,-197,o),
(233,-137,cs),
(487,532,l),
(403,532,l),
(243,96,l),
(251,96,l),
(95,532,l),
(1,532,l),
(205,-12,l),
(205,8,l),
(165,-100,ls),
(152,-136,o),
(123,-155,o),
(85,-155,cs),
(63,-155,o),
(38,-148,o),
(11,-136,c),
(-1,-208,l)
);
}
);
width = 488;
},
{
anchors = (
{
name = top;
pos = (264,545);
}
);
layerId = "E9FB66CC-5D7A-47B2-9A25-A0E8EEF5BB81";
shapes = (
{
closed = 1;
nodes = (
(50,-220,o),
(91,-229,o),
(129,-229,cs),
(214,-229,o),
(283,-184,o),
(309,-105,cs),
(522,545,l),
(397,545,l),
(270,129,l),
(282,129,l),
(143,545,l),
(5,545,l),
(209,-15,l),
(209,0,l),
(194,-46,ls),
(181,-92,o),
(149,-116,o),
(101,-116,cs),
(77,-116,o),
(50,-110,o),
(19,-98,c),
(8,-201,l)
);
}
);
width = 522;
},
{
anchors = (
{
name = top;
pos = (274,532);
}
);
layerId = "980A8AF2-BF11-492D-9410-496A94B21BD3";
shapes = (
{
closed = 1;
nodes = (
(-31,-222,o),
(2,-228,o),
(31,-228,cs),
(98,-228,o),
(148,-196,o),
(177,-137,cs),
(511,532,l),
(425,532,l),
(212,96,l),
(220,96,l),
(128,532,l),
(36,532,l),
(161,-12,l),
(163,8,l),
(111,-98,ls),
(93,-134,o),
(63,-153,o),
(26,-153,cs),
(4,-153,o),
(-20,-146,o),
(-45,-134,c),
(-66,-208,l)
);
}
);
width = 475;
},
{
anchors = (
{
name = top;
pos = (307,545);
}
);
layerId = "829AF10C-3E33-4291-B5B6-8F7CF12D6A62";
shapes = (
{
closed = 1;
nodes = (
(-12,-222,o),
(30,-229,o),
(66,-229,cs),
(149,-229,o),
(222,-191,o),
(260,-109,cs),
(567,545,l),
(437,545,l),
(255,132,l),
(263,132,l),
(177,545,l),
(43,545,l),
(175,-15,l),
(177,0,l),
(151,-56,ls),
(132,-98,o),
(96,-122,o),
(49,-122,cs),
(24,-122,o),
(-3,-117,o),
(-34,-104,c),
(-58,-205,l)
);
}
);
width = 529;
}
);
unicode = 121;
userData = {
KernOnName = y;
};
}
{
glyphname = z;
layers = (
{
anchors = (
{
name = bottom;
pos = (218,0);
},
{
name = center;
pos = (218,266);
},
{
name = top;
pos = (219,532);
}
);
layerId = m01;
shapes = (
{
closed = 1;
nodes = (
(422,0,l),
(422,68,l),
(115,68,l),
(119,60,l),
(416,470,l),
(416,532,l),
(18,532,l),
(18,464,l),
(319,464,l),
(315,472,l),
(14,60,l),
(14,0,l)
);
}
);
width = 436;
},
{
anchors = (
{
name = bottom;
pos = (234,0);
},
{
name = center;
pos = (234,272);
},
{
name = top;
pos = (235,545);
}
);
layerId = "E9FB66CC-5D7A-47B2-9A25-A0E8EEF5BB81";
shapes = (
{
closed = 1;
nodes = (
(447,1,l),
(447,94,l),
(174,94,l),
(178,86,l),
(441,460,l),
(441,545,l),
(22,545,l),
(22,453,l),
(290,453,l),
(286,461,l),
(20,86,l),
(20,0,l)
);
}
);
width = 467;
},
{
anchors = (
{
name = bottom;
pos = (201,0);
},
{
name = center;
pos = (236,266);
},
{
name = top;
pos = (274,532);
}
);
layerId = "980A8AF2-BF11-492D-9410-496A94B21BD3";
shapes = (
{
closed = 1;
nodes = (
(398,0,l),
(408,68,l),
(113,68,l),
(115,60,l),
(456,470,l),
(465,532,l),
(79,532,l),
(68,464,l),
(358,464,l),
(355,472,l),
(10,60,l),
(2,0,l)
);
}
);
width = 473;
},
{
anchors = (
{
name = bottom;
pos = (198,0);
},
{
name = center;
pos = (234,272);
},
{
name = top;
pos = (273,545);
}
);
layerId = "829AF10C-3E33-4291-B5B6-8F7CF12D6A62";
shapes = (
{
closed = 1;
nodes = (
(406,1,l),
(419,94,l),
(154,94,l),
(157,86,l),
(463,460,l),
(475,545,l),
(65,545,l),
(51,453,l),
(311,453,l),
(308,461,l),
(-1,86,l),
(-13,0,l)
);
}
);
width = 472;
}
);
unicode = 122;
userData = {
KernOnName = z;
};
}
{
glyphname = braceleft;
layers = (
{
layerId = m01;
shapes = (
{
closed = 1;
nodes = (
(277,-167,l),
(206,-180,o),
(169,-158,o),
(172,-97,cs),
(184,145,ls),
(187,197,o),
(157,233,o),
(102,236,c),
(102,229,l),
(157,233,o),
(187,269,o),
(184,322,cs),
(172,562,ls),
(169,623,o),
(206,646,o),
(277,633,c),
(285,687,l),
(152,719,o),
(81,675,o),
(90,562,cs),
(110,335,ls),
(113,293,o),
(97,268,o),
(60,268,cs),
(15,268,l),
(15,197,l),
(60,197,ls),
(97,197,o),
(113,172,o),
(110,130,cs),
(90,-97,ls),
(80,-212,o),
(152,-257,o),
(287,-223,c)
);
}
);
width = 288;
},
{
layerId = "E9FB66CC-5D7A-47B2-9A25-A0E8EEF5BB81";
width = 428;
},
{
associatedMasterId = m01;
layerId = "406D6BEA-E26C-4F52-AF6C-8A5C5C3F2CF3";
name = "15 apr 23, 19:03";
shapes = (
{
closed = 1;
nodes = (
(274,-150,l),
(198,-174,o),
(157,-152,o),
(166,-91,cs),
(193,123,ls),
(202,193,o),
(171,237,o),
(111,237,c),
(111,230,l),
(171,230,o),
(202,273,o),
(193,344,cs),
(166,556,ls),
(157,617,o),
(198,639,o),
(274,615,c),
(282,679,l),
(148,718,o),
(70,671,o),
(84,558,cs),
(111,340,ls),
(117,296,o),
(96,269,o),
(52,269,cs),
(25,269,l),
(25,194,l),
(52,194,ls),
(96,194,o),
(117,171,o),
(111,127,cs),
(84,-93,ls),
(70,-206,o),
(148,-255,o),
(282,-216,c)
);
}
);
width = 294;
}
);
unicode = 123;
userData = {
KernOnSpecialSpacing = {
R = parenthesis;
};
};
}
{
glyphname = bar;
layers = (
{
layerId = m01;
shapes = (
{
closed = 1;
nodes = (
(158,-230,l),
(158,694,l),
(80,694,l),
(80,-230,l)
);
}
);
width = 238;
},
{
layerId = "E9FB66CC-5D7A-47B2-9A25-A0E8EEF5BB81";
shapes = (
{
closed = 1;
nodes = (
(200,-230,l),
(200,706,l),
(72,706,l),
(72,-230,l)
);
}
);
width = 272;
},
{
layerId = "980A8AF2-BF11-492D-9410-496A94B21BD3";
shapes = (
{
closed = 1;
nodes = (
(117,-230,l),
(247,694,l),
(169,694,l),
(39,-230,l)
);
}
);
width = 286;
},
{
layerId = "829AF10C-3E33-4291-B5B6-8F7CF12D6A62";
shapes = (
{
closed = 1;
nodes = (
(153,-230,l),
(285,706,l),
(157,706,l),
(25,-230,l)
);
}
);
width = 310;
}
);
metricLeft = H;
metricRight = H;
unicode = 124;
userData = {
KernOnSpecialSpacing = {
L = NoKerning;
R = NoKerning;
};
};
}
{
glyphname = asciitilde;
layers = (
{
layerId = m01;
shapes = (
{
closed = 1;
nodes = (
(447,218,o),
(500,266,o),
(512,341,c),
(444,361,l),
(438,320,o),
(410,294,o),
(372,294,cs),
(312,294,o),
(268,360,o),
(184,360,cs),
(113,360,o),
(60,312,o),
(48,236,c),
(116,216,l),
(122,258,o),
(150,284,o),
(188,284,cs),
(248,284,o),
(292,218,o),
(376,218,cs)
);
}
);
width = 560;
},
{
layerId = "E9FB66CC-5D7A-47B2-9A25-A0E8EEF5BB81";
width = 574;
}
);
metricRight = "=|";
unicode = 126;
userData = {
KernOnSpecialSpacing = {
L = math;
R = math;
};
};
}
{
glyphname = cent;
layers = (
{
layerId = m01;
shapes = (
{
alignment = -1;
pos = (22,24);
ref = c;
},
{
closed = 1;
nodes = (
(329,-108,l),
(329,668,l),
(257,668,l),
(257,-108,l)
);
}
);
width = 580;
},
{
layerId = "E9FB66CC-5D7A-47B2-9A25-A0E8EEF5BB81";
shapes = (
{
alignment = -1;
pos = (22,24);
ref = c;
},
{
closed = 1;
nodes = (
(355,-124,l),
(355,692,l),
(247,692,l),
(247,-124,l)
);
}
);
width = 583;
},
{
layerId = "980A8AF2-BF11-492D-9410-496A94B21BD3";
shapes = (
{
alignment = -1;
pos = (22,24);
ref = c;
},
{
closed = 1;
nodes = (
(274,-108,l),
(384,668,l),
(312,668,l),
(202,-108,l)
);
}
);
width = 580;
},
{
layerId = "829AF10C-3E33-4291-B5B6-8F7CF12D6A62";
shapes = (
{
alignment = -1;
pos = (22,24);
ref = c;
},
{
closed = 1;
nodes = (
(298,-124,l),
(412,692,l),
(304,692,l),
(190,-124,l)
);
}
);
width = 583;
}
);
unicode = 162;
userData = {
KernOnSpecialSpacing = {
L = symbols;
R = symbols;
};
};
}
{
glyphname = sterling;
layers = (
{
layerId = m01;
shapes = (
{
closed = 1;
nodes = (
(220,154,o),
(247,241,o),
(247,306,cs),
(247,420,o),
(164,468,o),
(164,551,cs),
(164,619,o),
(220,666,o),
(300,666,cs),
(384,666,o),
(424,614,o),
(446,566,c),
(534,611,l),
(510,671,o),
(430,746,o),
(298,746,cs),
(163,746,o),
(71,671,o),
(71,555,cs),
(71,443,o),
(153,412,o),
(153,314,cs),
(153,261,o),
(129,195,o),
(44,69,c),
(44,0,l),
(550,0,l),
(550,80,l),
(102,80,l),
(123,27,l)
);
},
{
closed = 1;
nodes = (
(406,309,l),
(406,385,l),
(40,385,l),
(40,309,l)
);
}
);
width = 600;
},
{
layerId = "E9FB66CC-5D7A-47B2-9A25-A0E8EEF5BB81";
width = 628;
}
);
unicode = 163;
userData = {
KernOnSpecialSpacing = {
L = symbols;
R = symbols;
};
};
}
{
glyphname = currency;
layers = (
{
layerId = m01;
shapes = (
{
closed = 1;
nodes = (
(419,114,o),
(494,185,o),
(494,290,cs),
(494,395,o),
(419,466,o),
(310,466,cs),
(201,466,o),
(126,395,o),
(126,290,cs),
(126,185,o),
(201,114,o),
(310,114,cs)
);
},
{
closed = 1;
nodes = (
(214,166,l),
(170,208,l),
(84,124,l),
(128,80,l)
);
},
{
closed = 1;
nodes = (
(214,412,l),
(128,498,l),
(84,454,l),
(170,372,l)
);
},
{
closed = 1;
nodes = (
(246,186,o),
(206,227,o),
(206,291,cs),
(206,355,o),
(246,396,o),
(310,396,cs),
(374,396,o),
(414,355,o),
(414,291,cs),
(414,227,o),
(374,186,o),
(310,186,cs)
);
},
{
closed = 1;
nodes = (
(536,124,l),
(450,208,l),
(406,166,l),
(492,80,l)
);
},
{
closed = 1;
nodes = (
(536,454,l),
(492,498,l),
(406,412,l),
(450,372,l)
);
}
);
width = 620;
},
{
layerId = "E9FB66CC-5D7A-47B2-9A25-A0E8EEF5BB81";
shapes = (
{
closed = 1;
nodes = (
(406,104,o),
(491,179,o),
(491,290,cs),
(491,401,o),
(406,476,o),
(287,476,cs),
(168,476,o),
(83,401,o),
(83,290,cs),
(83,179,o),
(168,104,o),
(287,104,cs)
);
},
{
closed = 1;
nodes = (
(216,158,l),
(138,232,l),
(27,124,l),
(104,47,l)
);
},
{
closed = 1;
nodes = (
(216,419,l),
(104,531,l),
(26,454,l),
(138,349,l)
);
},
{
closed = 1;
nodes = (
(231,206,o),
(203,235,o),
(203,291,cs),
(203,347,o),
(231,376,o),
(287,376,cs),
(343,376,o),
(371,347,o),
(371,291,cs),
(371,235,o),
(343,206,o),
(287,206,cs)
);
},
{
closed = 1;
nodes = (
(547,124,l),
(436,232,l),
(358,158,l),
(470,47,l)
);
},
{
closed = 1;
nodes = (
(548,454,l),
(470,531,l),
(358,419,l),
(436,349,l)
);
}
);
width = 574;
}
);
metricRight = "=|";
unicode = 164;
}
{
glyphname = yen;
layers = (
{
layerId = m01;
shapes = (
{
ref = Y;
},
{
closed = 1;
nodes = (
(511,274,l),
(511,340,l),
(80,340,l),
(80,274,l)
);
},
{
closed = 1;
nodes = (
(511,163,l),
(511,228,l),
(80,228,l),
(80,163,l)
);
}
);
width = 577;
},
{
layerId = "E9FB66CC-5D7A-47B2-9A25-A0E8EEF5BB81";
width = 584;
}
);
unicode = 165;
userData = {
KernOnSpecialSpacing = {
L = symbols;
R = symbols;
};
};
}
{
glyphname = brokenbar;
layers = (
{
layerId = m01;
shapes = (
{
closed = 1;
nodes = (
(162,-224,l),
(162,148,l),
(82,148,l),
(82,-224,l)
);
},
{
closed = 1;
nodes = (
(162,352,l),
(162,712,l),
(82,712,l),
(82,352,l)
);
}
);
width = 244;
},
{
associatedMasterId = m01;
layerId = "2743AE31-5E10-493A-AAF8-244AFE4C878D";
width = 422;
},
{
layerId = "E9FB66CC-5D7A-47B2-9A25-A0E8EEF5BB81";
width = 422;
}
);
metricLeft = H;
metricRight = H;
unicode = 166;
}
{
glyphname = section;
layers = (
{
anchors = (
{
name = bottom;
pos = (346.001,51);
},
{
name = top;
pos = (328.345,682.898);
}
);
background = {
shapes = (
{
closed = 1;
nodes = (
(502,-230,o),
(600,-159,o),
(600,-56,cs),
(600,15,o),
(554,73,o),
(476,90,c),
(476,82,l),
(552,101,o),
(597,154,o),
(596,222,cs),
(593,443,o),
(208,376,o),
(206,532,cs),
(205,589,o),
(256,626,o),
(337,626,cs),
(424,626,o),
(484,582,o),
(498,506,c),
(588,531,l),
(569,629,o),
(470,694,o),
(343,694,cs),
(206,694,o),
(114,626,o),
(114,526,cs),
(114,462,o),
(150,406,o),
(224,390,c),
(224,398,l),
(148,381,o),
(101,325,o),
(102,253,cs),
(105,26,o),
(504,105,o),
(506,-62,cs),
(507,-123,o),
(453,-160,o),
(360,-160,cs),
(253,-160,o),
(183,-106,o),
(172,-14,c),
(78,-36,l),
(95,-153,o),
(207,-230,o),
(355,-230,cs)
);
},
{
closed = 1;
nodes = (
(398,127,l),
(353,136,ls),
(263,154,o),
(194,191,o),
(194,265,cs),
(194,312,o),
(221,356,o),
(294,357,c),
(348,342,ls),
(436,318,o),
(504,283,o),
(504,218,cs),
(504,165,o),
(452,132,o),
(374,126,c)
);
}
);
};
layerId = m01;
shapes = (
{
closed = 1;
nodes = (
(251,421,l),
(144,406,o),
(78,341,o),
(79,251,cs),
(82,10,o),
(461,128,o),
(464,-54,cs),
(465,-121,o),
(408,-162,o),
(319,-162,cs),
(235,-162,o),
(172,-117,o),
(154,-40,c),
(67,-69,l),
(90,-169,o),
(191,-233,o),
(313,-233,cs),
(455,-233,o),
(551,-159,o),
(549,-48,cs),
(546,196,o),
(165,96,o),
(164,267,cs),
(163,314,o),
(196,349,o),
(251,361,c)
);
},
{
closed = 1;
nodes = (
(366,51,l),
(483,65,o),
(559,124,o),
(557,223,cs),
(554,467,o),
(173,357,o),
(172,528,cs),
(171,587,o),
(223,627,o),
(304,627,cs),
(379,627,o),
(435,586,o),
(451,521,c),
(539,552,l),
(514,643,o),
(424,696,o),
(311,696,cs),
(174,696,o),
(86,626,o),
(87,522,cs),
(90,281,o),
(469,399,o),
(472,217,cs),
(473,160,o),
(432,132,o),
(366,122,c)
);
}
);
width = 634;
},
{
anchors = (
{
name = bottom;
pos = (284.364,51);
},
{
name = top;
pos = (284.364,694.049);
}
);
layerId = "E9FB66CC-5D7A-47B2-9A25-A0E8EEF5BB81";
shapes = (
{
closed = 1;
nodes = (
(327,48,l),
(475,53,o),
(564,122,o),
(564,228,cs),
(564,501,o),
(193,373,o),
(193,530,cs),
(193,581,o),
(233,613,o),
(302,613,cs),
(368,613,o),
(417,580,o),
(422,521,c),
(552,568,l),
(520,657,o),
(426,707,o),
(312,707,cs),
(158,707,o),
(61,636,o),
(61,523,cs),
(61,259,o),
(431,392,o),
(431,224,cs),
(431,175,o),
(392,145,o),
(325,142,c)
);
},
{
closed = 1;
nodes = (
(238,431,l),
(123,413,o),
(53,348,o),
(53,252,cs),
(53,-12,o),
(423,121,o),
(423,-47,cs),
(423,-105,o),
(380,-139,o),
(307,-139,cs),
(231,-139,o),
(179,-97,o),
(164,-21,c),
(38,-68,l),
(68,-172,o),
(168,-233,o),
(302,-233,cs),
(460,-233,o),
(556,-159,o),
(556,-43,cs),
(556,248,o),
(185,112,o),
(185,279,cs),
(185,314,o),
(204,340,o),
(238,353,c)
);
}
);
width = 588;
},
{
anchors = (
{
name = bottom;
pos = (353,51);
},
{
name = top;
pos = (424,683);
}
);
background = {
shapes = (
{
closed = 1;
nodes = (
(502,-230,o),
(600,-159,o),
(600,-56,cs),
(600,15,o),
(554,73,o),
(476,90,c),
(476,82,l),
(552,101,o),
(597,154,o),
(596,222,cs),
(593,443,o),
(208,376,o),
(206,532,cs),
(205,589,o),
(256,626,o),
(337,626,cs),
(424,626,o),
(484,582,o),
(498,506,c),
(588,531,l),
(569,629,o),
(470,694,o),
(343,694,cs),
(206,694,o),
(114,626,o),
(114,526,cs),
(114,462,o),
(150,406,o),
(224,390,c),
(224,398,l),
(148,381,o),
(101,325,o),
(102,253,cs),
(105,26,o),
(504,105,o),
(506,-62,cs),
(507,-123,o),
(453,-160,o),
(360,-160,cs),
(253,-160,o),
(183,-106,o),
(172,-14,c),
(78,-36,l),
(95,-153,o),
(207,-230,o),
(355,-230,cs)
);
},
{
closed = 1;
nodes = (
(398,127,l),
(353,136,ls),
(263,154,o),
(194,191,o),
(194,265,cs),
(194,312,o),
(221,356,o),
(294,357,c),
(348,342,ls),
(436,318,o),
(504,283,o),
(504,218,cs),
(504,165,o),
(452,132,o),
(374,126,c)
);
}
);
};
layerId = "980A8AF2-BF11-492D-9410-496A94B21BD3";
shapes = (
{
closed = 1;
nodes = (
(310,421,l),
(192,405,o),
(112,329,o),
(112,225,cs),
(112,24,o),
(457,115,o),
(457,-40,cs),
(457,-113,o),
(393,-162,o),
(296,-162,cs),
(212,-162,o),
(155,-117,o),
(148,-40,c),
(57,-69,l),
(66,-169,o),
(158,-233,o),
(280,-233,cs),
(435,-233,o),
(544,-146,o),
(544,-22,cs),
(544,183,o),
(200,107,o),
(200,253,cs),
(200,308,o),
(240,348,o),
(301,361,c)
);
},
{
closed = 1;
nodes = (
(373,51,l),
(510,67,o),
(590,141,o),
(590,249,cs),
(590,453,o),
(245,369,o),
(245,514,cs),
(245,581,o),
(305,627,o),
(392,627,cs),
(467,627,o),
(517,586,o),
(524,521,c),
(616,552,l),
(604,643,o),
(521,696,o),
(409,696,cs),
(261,696,o),
(158,614,o),
(158,496,cs),
(158,295,o),
(503,386,o),
(503,231,cs),
(503,172,o),
(464,134,o),
(383,122,c)
);
}
);
width = 634;
},
{
anchors = (
{
name = bottom;
pos = (291,51);
},
{
name = top;
pos = (381,694);
}
);
layerId = "829AF10C-3E33-4291-B5B6-8F7CF12D6A62";
shapes = (
{
closed = 1;
nodes = (
(333,48,l),
(479,53,o),
(598,121,o),
(598,264,cs),
(598,483,o),
(266,386,o),
(266,518,cs),
(266,575,o),
(314,613,o),
(388,613,cs),
(453,613,o),
(498,580,o),
(495,521,c),
(631,568,l),
(612,657,o),
(524,707,o),
(411,707,cs),
(241,707,o),
(132,622,o),
(132,489,cs),
(132,277,o),
(463,378,o),
(463,238,cs),
(463,179,o),
(415,145,o),
(345,142,c)
);
},
{
closed = 1;
nodes = (
(298,431,l),
(164,411,o),
(85,330,o),
(85,218,cs),
(85,6,o),
(417,107,o),
(417,-33,cs),
(417,-97,o),
(366,-139,o),
(287,-139,cs),
(211,-139,o),
(165,-97,o),
(161,-21,c),
(28,-68,l),
(43,-172,o),
(136,-233,o),
(269,-233,cs),
(427,-233,o),
(553,-158,o),
(553,-3,cs),
(553,228,o),
(223,127,o),
(223,265,cs),
(223,305,o),
(246,338,o),
(287,353,c)
);
}
);
width = 588;
}
);
note = "Storto? Controlla attacchi interrotti";
unicode = 167;
userData = {
KernOnSpecialSpacing = {
R = symbols;
};
};
}
{
glyphname = copyright;
layers = (
{
layerId = m01;
shapes = (
{
closed = 1;
nodes = (
(648,-14,o),
(806,147,o),
(806,366,cs),
(806,585,o),
(648,746,o),
(432,746,cs),
(216,746,o),
(58,585,o),
(58,366,cs),
(58,147,o),
(216,-14,o),
(432,-14,cs)
);
},
{
closed = 1;
nodes = (
(249,46,o),
(124,176,o),
(124,366,cs),
(124,556,o),
(249,686,o),
(432,686,cs),
(615,686,o),
(740,556,o),
(740,366,cs),
(740,176,o),
(615,46,o),
(432,46,cs)
);
},
{
closed = 1;
nodes = (
(519,168,o),
(585,220,o),
(600,296,c),
(528,312,l),
(519,258,o),
(482,224,o),
(432,224,cs),
(368,224,o),
(328,279,o),
(328,366,cs),
(328,452,o),
(368,507,o),
(432,507,cs),
(480,507,o),
(516,475,o),
(524,424,c),
(592,440,l),
(580,513,o),
(515,562,o),
(434,562,cs),
(328,562,o),
(256,482,o),
(256,365,cs),
(256,248,o),
(329,168,o),
(436,168,cs)
);
}
);
width = 864;
},
{
layerId = "E9FB66CC-5D7A-47B2-9A25-A0E8EEF5BB81";
width = 751;
}
);
metricRight = "=|";
unicode = 169;
userData = {
KernOnSpecialSpacing = {
R = symbols;
};
};
}
{
glyphname = ordfeminine;
layers = (
{
background = {
shapes = (
{
closed = 1;
nodes = (
(214,322,o),
(268,362,o),
(272,432,c),
(264,432,l),
(264,390,o),
(267,357,o),
(277,329,c),
(350,329,l),
(342,360,o),
(338,392,o),
(338,433,cs),
(338,568,ls),
(338,641,o),
(281,690,o),
(198,690,cs),
(124,690,o),
(59,650,o),
(38,592,c),
(100,564,l),
(111,607,o),
(147,634,o),
(192,634,cs),
(236,634,o),
(264,608,o),
(264,566,cs),
(264,512,ls),
(264,433,o),
(225,380,o),
(168,380,cs),
(132,380,o),
(106,401,o),
(106,432,cs),
(106,459,o),
(124,484,o),
(182,494,cs),
(272,509,l),
(272,556,l),
(152,536,ls),
(76,523,o),
(32,478,o),
(32,422,cs),
(32,364,o),
(80,322,o),
(148,322,cs)
);
}
);
};
layerId = m01;
shapes = (
{
closed = 1;
nodes = (
(195,321,o),
(246,362,o),
(253,427,c),
(247,427,l),
(247,379,o),
(250,351,o),
(257,330,c),
(326,330,l),
(320,354,o),
(317,384,o),
(317,411,cs),
(317,557,ls),
(317,644,o),
(263,689,o),
(177,689,cs),
(101,689,o),
(43,653,o),
(24,597,c),
(89,572,l),
(100,610,o),
(131,637,o),
(175,637,cs),
(218,637,o),
(246,610,o),
(246,566,cs),
(246,513,ls),
(246,431,o),
(206,376,o),
(148,376,cs),
(115,376,o),
(93,396,o),
(93,428,cs),
(93,462,o),
(118,488,o),
(181,497,cs),
(251,507,l),
(251,552,l),
(155,539,ls),
(62,526,o),
(19,480,o),
(19,421,cs),
(19,362,o),
(64,321,o),
(129,321,cs)
);
}
);
width = 392;
},
{
layerId = "E9FB66CC-5D7A-47B2-9A25-A0E8EEF5BB81";
shapes = (
{
closed = 1;
nodes = (
(199,318,o),
(253,370,o),
(257,435,c),
(251,435,l),
(251,383,o),
(254,353,o),
(262,330,c),
(368,330,l),
(362,356,o),
(360,386,o),
(360,418,cs),
(360,562,ls),
(360,681,o),
(302,729,o),
(196,729,cs),
(106,729,o),
(45,697,o),
(15,621,c),
(112,590,l),
(128,639,o),
(155,658,o),
(190,658,cs),
(224,658,o),
(249,635,o),
(249,599,cs),
(249,538,ls),
(249,462,o),
(219,395,o),
(171,395,cs),
(142,395,o),
(124,414,o),
(124,441,cs),
(124,479,o),
(154,503,o),
(213,513,cs),
(253,520,l),
(253,581,l),
(194,573,ls),
(64,555,o),
(9,501,o),
(9,429,cs),
(9,363,o),
(58,318,o),
(128,318,cs)
);
}
);
width = 492;
},
{
background = {
shapes = (
{
closed = 1;
nodes = (
(256,322,o),
(310,362,o),
(314,432,c),
(306,432,l),
(306,390,o),
(309,357,o),
(319,329,c),
(392,329,l),
(384,360,o),
(380,392,o),
(380,433,cs),
(380,568,ls),
(380,641,o),
(323,690,o),
(240,690,cs),
(166,690,o),
(101,650,o),
(80,592,c),
(142,564,l),
(153,607,o),
(189,634,o),
(234,634,cs),
(278,634,o),
(306,608,o),
(306,566,cs),
(306,512,ls),
(306,433,o),
(267,380,o),
(210,380,cs),
(174,380,o),
(148,401,o),
(148,432,cs),
(148,459,o),
(166,484,o),
(224,494,cs),
(314,509,l),
(314,556,l),
(194,536,ls),
(118,523,o),
(74,478,o),
(74,422,cs),
(74,364,o),
(122,322,o),
(190,322,cs)
);
}
);
};
layerId = "980A8AF2-BF11-492D-9410-496A94B21BD3";
shapes = (
{
closed = 1;
nodes = (
(237,321,o),
(288,362,o),
(295,427,c),
(289,427,l),
(289,379,o),
(292,351,o),
(299,330,c),
(368,330,l),
(362,354,o),
(359,384,o),
(359,411,cs),
(359,557,ls),
(359,644,o),
(305,689,o),
(219,689,cs),
(143,689,o),
(85,653,o),
(66,597,c),
(131,572,l),
(142,610,o),
(173,637,o),
(217,637,cs),
(260,637,o),
(288,610,o),
(288,566,cs),
(288,513,ls),
(288,431,o),
(248,376,o),
(190,376,cs),
(157,376,o),
(135,396,o),
(135,428,cs),
(135,462,o),
(160,488,o),
(223,497,cs),
(293,507,l),
(293,552,l),
(197,539,ls),
(104,526,o),
(61,480,o),
(61,421,cs),
(61,362,o),
(106,321,o),
(171,321,cs)
);
}
);
width = 425;
},
{
layerId = "829AF10C-3E33-4291-B5B6-8F7CF12D6A62";
shapes = (
{
closed = 1;
nodes = (
(242,318,o),
(296,370,o),
(300,435,c),
(294,435,l),
(294,383,o),
(297,353,o),
(305,330,c),
(411,330,l),
(405,356,o),
(403,386,o),
(403,418,cs),
(403,562,ls),
(403,681,o),
(345,729,o),
(239,729,cs),
(149,729,o),
(88,697,o),
(58,621,c),
(155,590,l),
(171,639,o),
(198,658,o),
(233,658,cs),
(267,658,o),
(292,635,o),
(292,599,cs),
(292,538,ls),
(292,462,o),
(262,395,o),
(214,395,cs),
(185,395,o),
(167,414,o),
(167,441,cs),
(167,479,o),
(197,503,o),
(256,513,cs),
(296,520,l),
(296,581,l),
(237,573,ls),
(107,555,o),
(52,501,o),
(52,429,cs),
(52,363,o),
(101,318,o),
(171,318,cs)
);
}
);
width = 527;
}
);
unicode = 170;
userData = {
KernOnSpecialSpacing = {
L = superiors;
R = superiors;
};
};
}
{
glyphname = guillemetleft;
layers = (
{
layerId = m01;
shapes = (
{
closed = 1;
nodes = (
(292,149,l),
(83,280,l),
(83,268,l),
(290,395,l),
(290,490,l),
(28,316,l),
(28,232,l),
(292,54,l)
);
},
{
closed = 1;
nodes = (
(558,149,l),
(348,280,l),
(348,268,l),
(555,395,l),
(555,490,l),
(294,316,l),
(294,232,l),
(558,54,l)
);
}
);
width = 610;
},
{
layerId = "E9FB66CC-5D7A-47B2-9A25-A0E8EEF5BB81";
width = 624;
}
);
metricLeft = guilsinglleft;
metricRight = guilsinglleft;
unicode = 171;
userData = {
KernOnSpecialSpacing = {
L = quotes;
R = quotes;
};
};
}
{
glyphname = logicalnot;
layers = (
{
layerId = m01;
shapes = (
{
closed = 1;
nodes = (
(534,139,l),
(534,323,l),
(38,323,l),
(38,245,l),
(458,245,l),
(450,253,l),
(450,139,l)
);
}
);
width = 644;
},
{
layerId = "E9FB66CC-5D7A-47B2-9A25-A0E8EEF5BB81";
width = 590;
}
);
metricLeft = plus;
unicode = 172;
}
{
glyphname = registered;
layers = (
{
layerId = m01;
shapes = (
{
closed = 1;
nodes = (
(330,164,l),
(330,476,l),
(322,468,l),
(414,468,ls),
(445,468,o),
(464,448,o),
(464,416,cs),
(464,384,o),
(444,364,o),
(412,364,cs),
(322,364,l),
(322,316,l),
(396,316,ls),
(415,316,o),
(431,306,o),
(438,288,cs),
(488,164,l),
(562,164,l),
(490,310,ls),
(481,328,o),
(461,340,o),
(440,340,c),
(440,332,l),
(494,336,o),
(528,368,o),
(528,418,cs),
(528,476,o),
(482,516,o),
(414,516,cs),
(268,516,l),
(268,164,l)
);
},
{
closed = 1;
nodes = (
(603,-14,o),
(750,136,o),
(750,340,cs),
(750,544,o),
(603,694,o),
(402,694,cs),
(201,694,o),
(54,544,o),
(54,340,cs),
(54,136,o),
(201,-14,o),
(402,-14,cs)
);
},
{
closed = 1;
nodes = (
(232,42,o),
(116,163,o),
(116,340,cs),
(116,517,o),
(232,638,o),
(402,638,cs),
(572,638,o),
(688,517,o),
(688,340,cs),
(688,163,o),
(572,42,o),
(402,42,cs)
);
}
);
width = 804;
},
{
layerId = "E9FB66CC-5D7A-47B2-9A25-A0E8EEF5BB81";
width = 699;
}
);
metricLeft = copyright;
metricRight = copyright;
unicode = 174;
userData = {
KernOnSpecialSpacing = {
L = superiors;
};
};
}
{
glyphname = degree;
layers = (
{
layerId = m01;
shapes = (
{
closed = 1;
nodes = (
(253,420,o),
(312,477,o),
(312,554,cs),
(312,631,o),
(253,688,o),
(173,688,cs),
(94,688,o),
(36,631,o),
(36,554,cs),
(36,477,o),
(94,420,o),
(173,420,cs)
);
},
{
closed = 1;
nodes = (
(127,477,o),
(96,508,o),
(96,554,cs),
(96,600,o),
(127,632,o),
(173,632,cs),
(220,632,o),
(252,600,o),
(252,554,cs),
(252,508,o),
(220,477,o),
(173,477,cs)
);
}
);
width = 348;
},
{
layerId = "E9FB66CC-5D7A-47B2-9A25-A0E8EEF5BB81";
width = 467;
}
);
metricRight = "=|";
unicode = 176;
userData = {
KernOnSpecialSpacing = {
L = superiors;
};
};
}
{
glyphname = plusminus;
layers = (
{
layerId = m01;
shapes = (
{
closed = 1;
nodes = (
(532,0,l),
(532,76,l),
(68,76,l),
(68,0,l)
);
},
{
closed = 1;
nodes = (
(340,112,l),
(340,540,l),
(260,540,l),
(260,112,l)
);
},
{
closed = 1;
nodes = (
(532,287,l),
(532,362,l),
(68,362,l),
(68,287,l)
);
}
);
width = 600;
},
{
layerId = "E9FB66CC-5D7A-47B2-9A25-A0E8EEF5BB81";
width = 617;
}
);
metricLeft = equal;
metricRight = equal;
unicode = 177;
userData = {
KernOnSpecialSpacing = {
L = math;
R = math;
};
};
}
{
glyphname = micro;
layers = (
{
background = {
shapes = (
{
closed = 1;
nodes = (
(346,-13,o),
(415,44,o),
(426,134,c),
(419,134,l),
(419,0,l),
(502,0,l),
(502,532,l),
(417,532,l),
(417,272,ls),
(417,140,o),
(363,61,o),
(272,61,cs),
(195,61,o),
(151,117,o),
(151,212,cs),
(151,532,l),
(65,532,l),
(65,186,ls),
(65,64,o),
(137,-13,o),
(249,-13,cs)
);
}
);
};
layerId = m01;
shapes = (
{
closed = 1;
nodes = (
(151,-218,l),
(151,67,l),
(143,67,l),
(166,19,o),
(221,-11,o),
(283,-11,cs),
(368,-11,o),
(433,47,o),
(445,130,c),
(437,130,l),
(437,56,o),
(443,33,o),
(454,0,c),
(536,0,l),
(527,37,o),
(523,76,o),
(523,125,cs),
(523,532,l),
(437,532,l),
(437,253,ls),
(437,136,o),
(377,61,o),
(283,61,cs),
(202,61,o),
(151,115,o),
(151,201,cs),
(151,532,l),
(65,532,l),
(65,-218,l)
);
}
);
width = 588;
},
{
layerId = "E9FB66CC-5D7A-47B2-9A25-A0E8EEF5BB81";
width = 1104;
}
);
metricLeft = p;
metricRight = u;
unicode = 181;
}
{
glyphname = paragraph;
layers = (
{
layerId = m01;
shapes = (
{
closed = 1;
nodes = (
(403,0,l),
(403,680,l),
(371,680,ls),
(225,680,o),
(89,544,o),
(89,340,cs),
(89,136,o),
(220,0,o),
(371,0,cs)
);
},
{
closed = 1;
nodes = (
(601,22,l),
(601,680,l),
(518,680,l),
(518,22,l)
);
},
{
closed = 1;
nodes = (
(380,613,l),
(677,613,l),
(677,680,l),
(380,680,l)
);
},
{
closed = 1;
nodes = (
(380,0,l),
(677,0,l),
(677,67,l),
(380,67,l)
);
}
);
width = 778;
},
{
background = {
shapes = (
{
closed = 1;
nodes = (
(462,0,l),
(462,680,l),
(392,680,ls),
(246,680,o),
(110,544,o),
(110,340,cs),
(110,136,o),
(241,0,o),
(392,0,cs)
);
},
{
closed = 1;
nodes = (
(661,22,l),
(661,680,l),
(578,680,l),
(578,22,l)
);
},
{
closed = 1;
nodes = (
(429,613,l),
(726,613,l),
(726,680,l),
(429,680,l)
);
},
{
closed = 1;
nodes = (
(429,0,l),
(726,0,l),
(726,67,l),
(429,67,l)
);
}
);
};
layerId = "E9FB66CC-5D7A-47B2-9A25-A0E8EEF5BB81";
shapes = (
{
closed = 1;
nodes = (
(417,0,l),
(417,692,l),
(333,692,ls),
(184,692,o),
(46,553,o),
(46,346,cs),
(46,138,o),
(179,0,o),
(333,0,cs)
);
},
{
closed = 1;
nodes = (
(640,22,l),
(640,692,l),
(505,692,l),
(505,22,l)
);
},
{
closed = 1;
nodes = (
(353,583,l),
(706,583,l),
(706,692,l),
(353,692,l)
);
},
{
closed = 1;
nodes = (
(353,0,l),
(706,0,l),
(706,109,l),
(353,109,l)
);
}
);
width = 726;
},
{
associatedMasterId = m01;
layerId = "7C4B3525-C525-4602-997B-E38AD9093857";
name = "5 Apr 24 at 08:46";
shapes = (
{
closed = 1;
nodes = (
(370,-218,l),
(370,680,l),
(258,680,ls),
(122,680,o),
(32,602,o),
(32,484,cs),
(32,366,o),
(124,288,o),
(262,288,cs),
(296,288,l),
(296,-218,l)
);
},
{
closed = 1;
nodes = (
(496,-218,l),
(496,680,l),
(422,680,l),
(422,-218,l)
);
}
);
width = 588;
},
{
layerId = "980A8AF2-BF11-492D-9410-496A94B21BD3";
shapes = (
{
closed = 1;
nodes = (
(400,0,l),
(495,680,l),
(480,680,ls),
(303,680,o),
(146,492,o),
(146,277,cs),
(146,109,o),
(250,0,o),
(385,0,cs)
);
},
{
closed = 1;
nodes = (
(601,22,l),
(693,680,l),
(610,680,l),
(518,22,l)
);
},
{
closed = 1;
nodes = (
(463,613,l),
(760,613,l),
(769,680,l),
(472,680,l)
);
},
{
closed = 1;
nodes = (
(377,0,l),
(674,0,l),
(683,67,l),
(386,67,l)
);
}
);
width = 778;
},
{
associatedMasterId = "980A8AF2-BF11-492D-9410-496A94B21BD3";
layerId = "9BD6C676-3465-4227-A416-86FE27CF1E27";
name = "5 Apr 24 at 08:46";
shapes = (
{
closed = 1;
nodes = (
(370,-218,l),
(370,680,l),
(258,680,ls),
(122,680,o),
(32,602,o),
(32,484,cs),
(32,366,o),
(124,288,o),
(262,288,cs),
(296,288,l),
(296,-218,l)
);
},
{
closed = 1;
nodes = (
(496,-218,l),
(496,680,l),
(422,680,l),
(422,-218,l)
);
}
);
width = 588;
},
{
background = {
shapes = (
{
closed = 1;
nodes = (
(462,0,l),
(462,680,l),
(392,680,ls),
(246,680,o),
(110,544,o),
(110,340,cs),
(110,136,o),
(241,0,o),
(392,0,cs)
);
},
{
closed = 1;
nodes = (
(661,22,l),
(661,680,l),
(578,680,l),
(578,22,l)
);
},
{
closed = 1;
nodes = (
(429,613,l),
(726,613,l),
(726,680,l),
(429,680,l)
);
},
{
closed = 1;
nodes = (
(429,0,l),
(726,0,l),
(726,67,l),
(429,67,l)
);
}
);
};
layerId = "829AF10C-3E33-4291-B5B6-8F7CF12D6A62";
shapes = (
{
closed = 1;
nodes = (
(417,0,l),
(514,692,l),
(410,692,ls),
(229,692,o),
(70,499,o),
(70,282,cs),
(70,110,o),
(176,0,o),
(313,0,cs)
);
},
{
closed = 1;
nodes = (
(643,22,l),
(737,692,l),
(602,692,l),
(508,22,l)
);
},
{
closed = 1;
nodes = (
(415,583,l),
(788,583,l),
(803,692,l),
(430,692,l)
);
},
{
closed = 1;
nodes = (
(333,0,l),
(706,0,l),
(721,109,l),
(348,109,l)
);
}
);
width = 726;
}
);
unicode = 182;
userData = {
KernOnSpecialSpacing = {
L = NoKerning;
R = NoKerning;
};
};
}
{
glyphname = onesuperior;
layers = (
{
layerId = m01;
shapes = (
{
closed = 1;
nodes = (
(180,316,l),
(180,732,l),
(114,732,l),
(94,688,o),
(48,656,o),
(-4,648,c),
(0,568,l),
(44,576,o),
(86,600,o),
(106,628,c),
(106,316,l)
);
}
);
width = 239;
},
{
layerId = "E9FB66CC-5D7A-47B2-9A25-A0E8EEF5BB81";
width = 424.5;
}
);
unicode = 185;
userData = {
KernOnSpecialSpacing = {
L = superiors;
R = superiors;
};
};
}
{
glyphname = ordmasculine;
layers = (
{
background = {
shapes = (
{
closed = 1;
nodes = (
(304,322,o),
(372,397,o),
(372,506,cs),
(372,615,o),
(304,690,o),
(204,690,cs),
(104,690,o),
(36,615,o),
(36,506,cs),
(36,397,o),
(104,322,o),
(204,322,cs)
);
},
{
closed = 1;
nodes = (
(148,380,o),
(112,429,o),
(112,507,cs),
(112,584,o),
(148,633,o),
(204,633,cs),
(260,633,o),
(296,584,o),
(296,507,cs),
(296,429,o),
(260,380,o),
(204,380,cs)
);
}
);
};
layerId = m01;
shapes = (
{
closed = 1;
nodes = (
(286,322,o),
(355,397,o),
(355,505,cs),
(355,614,o),
(286,688,o),
(186,688,cs),
(87,688,o),
(18,614,o),
(18,505,cs),
(18,397,o),
(86,322,o),
(186,322,cs)
);
},
{
closed = 1;
nodes = (
(130,376,o),
(94,427,o),
(94,506,cs),
(94,585,o),
(130,635,o),
(186,635,cs),
(243,635,o),
(278,585,o),
(278,506,cs),
(278,427,o),
(243,376,o),
(186,376,cs)
);
}
);
width = 373;
},
{
layerId = "E9FB66CC-5D7A-47B2-9A25-A0E8EEF5BB81";
shapes = (
{
closed = 1;
nodes = (
(319,322,o),
(396,404,o),
(396,524,cs),
(396,643,o),
(319,725,o),
(206,725,cs),
(93,725,o),
(16,643,o),
(16,524,cs),
(16,404,o),
(93,322,o),
(206,322,cs)
);
},
{
closed = 1;
nodes = (
(164,395,o),
(137,445,o),
(137,525,cs),
(137,601,o),
(163,653,o),
(206,653,cs),
(248,653,o),
(275,602,o),
(275,525,cs),
(275,445,o),
(248,395,o),
(206,395,cs)
);
}
);
width = 412;
},
{
background = {
shapes = (
{
closed = 1;
nodes = (
(340,322,o),
(408,397,o),
(408,506,cs),
(408,615,o),
(340,690,o),
(240,690,cs),
(140,690,o),
(72,615,o),
(72,506,cs),
(72,397,o),
(140,322,o),
(240,322,cs)
);
},
{
closed = 1;
nodes = (
(184,380,o),
(148,429,o),
(148,507,cs),
(148,584,o),
(184,633,o),
(240,633,cs),
(296,633,o),
(332,584,o),
(332,507,cs),
(332,429,o),
(296,380,o),
(240,380,cs)
);
}
);
};
layerId = "980A8AF2-BF11-492D-9410-496A94B21BD3";
shapes = (
{
closed = 1;
nodes = (
(322,322,o),
(391,397,o),
(391,505,cs),
(391,614,o),
(322,688,o),
(222,688,cs),
(123,688,o),
(54,614,o),
(54,505,cs),
(54,397,o),
(122,322,o),
(222,322,cs)
);
},
{
closed = 1;
nodes = (
(166,376,o),
(130,427,o),
(130,506,cs),
(130,585,o),
(166,635,o),
(222,635,cs),
(279,635,o),
(314,585,o),
(314,506,cs),
(314,427,o),
(279,376,o),
(222,376,cs)
);
}
);
width = 378;
},
{
layerId = "829AF10C-3E33-4291-B5B6-8F7CF12D6A62";
shapes = (
{
closed = 1;
nodes = (
(357,322,o),
(434,404,o),
(434,524,cs),
(434,643,o),
(357,725,o),
(244,725,cs),
(131,725,o),
(54,643,o),
(54,524,cs),
(54,404,o),
(131,322,o),
(244,322,cs)
);
},
{
closed = 1;
nodes = (
(202,395,o),
(175,445,o),
(175,525,cs),
(175,601,o),
(201,653,o),
(244,653,cs),
(286,653,o),
(313,602,o),
(313,525,cs),
(313,445,o),
(286,395,o),
(244,395,cs)
);
}
);
width = 417;
}
);
metricRight = "=|";
unicode = 186;
userData = {
KernOnSpecialSpacing = {
L = superiors;
R = superiors;
};
};
}
{
glyphname = AE;
layers = (
{
layerId = m01;
shapes = (
{
closed = 1;
nodes = (
(908,0,l),
(908,76,l),
(534,76,l),
(546,64,l),
(546,637,l),
(534,625,l),
(900,625,l),
(900,700,l),
(372,700,l),
(-2,0,l),
(100,0,l),
(410,624,l),
(450,624,l),
(450,0,l)
);
},
{
closed = 1;
nodes = (
(868,323,l),
(868,397,l),
(534,397,l),
(534,323,l)
);
},
{
closed = 1;
nodes = (
(458,195,l),
(458,269,l),
(188,269,l),
(188,195,l)
);
}
);
width = 940;
},
{
layerId = "E9FB66CC-5D7A-47B2-9A25-A0E8EEF5BB81";
shapes = (
{
closed = 1;
nodes = (
(914,0,l),
(914,111,l),
(576,111,l),
(586,101,l),
(586,600,l),
(576,590,l),
(907,590,l),
(907,700,l),
(440,700,l),
(440,0,l)
);
},
{
closed = 1;
nodes = (
(448,174,l),
(448,271,l),
(194,271,l),
(194,174,l)
);
},
{
closed = 1;
nodes = (
(133,0,l),
(387,589,l),
(448,589,l),
(448,700,l),
(321,700,l),
(-8,0,l)
);
},
{
closed = 1;
nodes = (
(876,306,l),
(876,415,l),
(576,415,l),
(576,306,l)
);
}
);
width = 952;
}
);
metricRight = E;
unicode = 198;
}
{
glyphname = Eth;
layers = (
{
layerId = m01;
shapes = (
{
closed = 1;
nodes = (
(362,351,l),
(362,423,l),
(22,423,l),
(22,351,l)
);
},
{
pos = (8,0);
ref = D;
}
);
width = 750;
},
{
layerId = "E9FB66CC-5D7A-47B2-9A25-A0E8EEF5BB81";
shapes = (
{
closed = 1;
nodes = (
(396,332,l),
(396,444,l),
(16,444,l),
(16,332,l)
);
},
{
pos = (16,0);
ref = D;
}
);
width = 764;
}
);
metricRight = O;
unicode = 208;
}
{
glyphname = multiply;
layers = (
{
layerId = m01;
shapes = (
{
closed = 1;
nodes = (
(466,136,l),
(112,490,l),
(55,432,l),
(409,79,l)
);
},
{
closed = 1;
nodes = (
(465,432,l),
(408,490,l),
(54,136,l),
(111,79,l)
);
}
);
width = 520;
},
{
layerId = "E9FB66CC-5D7A-47B2-9A25-A0E8EEF5BB81";
width = 590;
}
);
unicode = 215;
userData = {
KernOnSpecialSpacing = {
L = math;
R = math;
};
};
}
{
glyphname = Oslash;
layers = (
{
layerId = m01;
shapes = (
{
closed = 1;
nodes = (
(722,682,l),
(665,731,l),
(46,50,l),
(104,1,l)
);
},
{
ref = O;
}
);
width = 768;
},
{
layerId = "E9FB66CC-5D7A-47B2-9A25-A0E8EEF5BB81";
shapes = (
{
closed = 1;
nodes = (
(731,679,l),
(651,754,l),
(32,73,l),
(113,-2,l)
);
},
{
pos = (2,0);
ref = O;
}
);
width = 763;
}
);
metricLeft = O;
metricRight = O;
unicode = 216;
}
{
glyphname = Thorn;
layers = (
{
layerId = m01;
shapes = (
{
closed = 1;
nodes = (
(174,0,l),
(174,681,l),
(80,681,l),
(80,0,l)
);
},
{
closed = 1;
nodes = (
(340,144,ls),
(483,144,o),
(574,221,o),
(574,342,cs),
(574,461,o),
(485,536,o),
(344,536,cs),
(166,536,l),
(166,462,l),
(350,462,ls),
(428,462,o),
(474,417,o),
(474,342,cs),
(474,264,o),
(427,218,o),
(348,218,cs),
(166,218,l),
(166,144,l)
);
}
);
width = 600;
},
{
layerId = "E9FB66CC-5D7A-47B2-9A25-A0E8EEF5BB81";
shapes = (
{
closed = 1;
nodes = (
(216,0,l),
(216,692,l),
(74,692,l),
(74,0,l)
);
},
{
closed = 1;
nodes = (
(340,137,ls),
(494,137,o),
(592,220,o),
(592,350,cs),
(592,473,o),
(496,552,o),
(344,552,cs),
(208,552,l),
(208,445,l),
(337,445,ls),
(404,445,o),
(444,407,o),
(444,345,cs),
(444,282,o),
(404,245,o),
(335,245,cs),
(208,245,l),
(208,137,l)
);
}
);
width = 610;
}
);
metricLeft = H;
unicode = 222;
}
{
glyphname = germandbls;
layers = (
{
layerId = m01;
shapes = (
{
closed = 1;
nodes = (
(484,-12,o),
(556,43,o),
(556,137,cs),
(556,329,o),
(338,250,o),
(338,362,cs),
(338,446,o),
(462,429,o),
(462,562,cs),
(462,658,o),
(390,714,o),
(276,714,cs),
(150,714,o),
(70,643,o),
(70,530,cs),
(70,0,l),
(156,0,l),
(156,526,ls),
(156,601,o),
(201,646,o),
(276,646,cs),
(339,646,o),
(376,615,o),
(376,562,cs),
(376,467,o),
(260,478,o),
(260,360,cs),
(260,182,o),
(472,256,o),
(472,136,cs),
(472,88,o),
(435,58,o),
(376,58,cs),
(328,58,o),
(276,77,o),
(240,108,c),
(212,28,l),
(256,4,o),
(316,-12,o),
(372,-12,cs)
);
}
);
width = 568;
},
{
layerId = "E9FB66CC-5D7A-47B2-9A25-A0E8EEF5BB81";
shapes = (
{
closed = 1;
nodes = (
(507,-15,o),
(593,50,o),
(593,153,cs),
(593,319,o),
(398,288,o),
(398,385,cs),
(398,454,o),
(495,466,o),
(495,570,cs),
(495,662,o),
(410,724,o),
(287,724,cs),
(153,724,o),
(61,643,o),
(61,522,cs),
(61,0,l),
(192,0,l),
(192,540,ls),
(192,599,o),
(241,626,o),
(286,626,cs),
(327,626,o),
(365,605,o),
(365,555,cs),
(365,472,o),
(272,473,o),
(272,370,cs),
(272,213,o),
(461,259,o),
(461,148,cs),
(461,108,o),
(430,86,o),
(386,86,cs),
(340,86,o),
(298,104,o),
(270,118,c),
(240,13,l),
(274,0,o),
(329,-15,o),
(384,-15,cs)
);
}
);
width = 610;
}
);
unicode = 223;
}
{
glyphname = ae;
layers = (
{
anchors = (
{
name = ogonek;
pos = (711,11);
},
{
name = top;
pos = (626,532);
}
);
background = {
shapes = (
{
closed = 1;
nodes = (
(310,-12,o),
(390,40,o),
(414,120,c),
(406,120,l),
(436,38,o),
(518,-12,o),
(614,-12,cs),
(718,-12,o),
(802,50,o),
(826,154,c),
(742,176,l),
(727,105,o),
(678,60,o),
(612,60,cs),
(518,60,o),
(458,142,o),
(458,272,cs),
(458,396,o),
(513,474,o),
(600,474,cs),
(676,474,o),
(728,409,o),
(730,308,c),
(738,316,l),
(450,316,l),
(450,250,l),
(818,250,l),
(830,425,o),
(742,544,o),
(606,544,cs),
(523,544,o),
(454,504,o),
(426,440,c),
(434,440,l),
(411,502,o),
(338,544,o),
(254,544,cs),
(156,544,o),
(72,489,o),
(48,408,c),
(128,376,l),
(145,437,o),
(196,476,o),
(260,476,cs),
(327,476,o),
(370,428,o),
(370,353,cs),
(370,242,ls),
(370,131,o),
(310,60,o),
(220,60,cs),
(161,60,o),
(124,96,o),
(124,152,cs),
(124,198,o),
(157,247,o),
(258,260,cs),
(378,276,l),
(378,338,l),
(214,316,ls),
(95,300,o),
(40,232,o),
(40,148,cs),
(40,53,o),
(111,-12,o),
(214,-12,cs)
);
}
);
};
layerId = m01;
shapes = (
{
closed = 1;
nodes = (
(305,-12,o),
(412,47,o),
(433,148,c),
(470,358,l),
(470,475,o),
(388,544,o),
(267,544,cs),
(160,544,o),
(70,484,o),
(47,408,c),
(127,372,l),
(143,430,o),
(196,474,o),
(267,474,cs),
(339,474,o),
(384,429,o),
(384,353,cs),
(384,274,ls),
(384,140,o),
(317,60,o),
(220,60,cs),
(164,60,o),
(128,93,o),
(128,146,cs),
(128,192,o),
(156,239,o),
(264,254,cs),
(392,272,l),
(392,332,l),
(220,308,ls),
(99,291,o),
(40,224,o),
(40,140,cs),
(40,50,o),
(107,-12,o),
(204,-12,cs)
);
},
{
closed = 1;
nodes = (
(748,-12,o),
(836,50,o),
(860,154,c),
(778,176,l),
(763,106,o),
(708,60,o),
(635,60,cs),
(536,60,o),
(473,142,o),
(473,270,cs),
(473,395,o),
(534,474,o),
(630,474,cs),
(715,474,o),
(772,409,o),
(774,308,c),
(782,316,l),
(465,316,l),
(465,248,l),
(860,248,l),
(876,428,o),
(777,544,o),
(628,544,cs),
(483,544,o),
(384,432,o),
(384,268,cs),
(384,102,o),
(486,-12,o),
(636,-12,cs)
);
}
);
width = 894;
},
{
anchors = (
{
name = ogonek;
pos = (722,11);
},
{
name = top;
pos = (627,545);
}
);
layerId = "E9FB66CC-5D7A-47B2-9A25-A0E8EEF5BB81";
shapes = (
{
closed = 1;
nodes = (
(336,-15,o),
(426,51,o),
(436,149,c),
(499,342,l),
(499,491,o),
(417,560,o),
(277,560,cs),
(156,560,o),
(69,508,o),
(34,413,c),
(149,372,l),
(169,435,o),
(212,471,o),
(272,471,cs),
(330,471,o),
(369,433,o),
(369,372,cs),
(369,288,ls),
(369,169,o),
(317,80,o),
(237,80,cs),
(190,80,o),
(160,109,o),
(160,154,cs),
(160,207,o),
(201,241,o),
(291,255,cs),
(376,268,l),
(376,348,l),
(257,331,ls),
(97,309,o),
(26,236,o),
(26,141,cs),
(26,48,o),
(111,-15,o),
(210,-15,cs)
);
},
{
closed = 1;
nodes = (
(751,-15,o),
(848,51,o),
(872,149,c),
(755,190,l),
(742,122,o),
(697,78,o),
(638,78,cs),
(558,78,o),
(508,155,o),
(508,277,cs),
(508,395,o),
(555,471,o),
(629,471,cs),
(693,471,o),
(737,413,o),
(737,322,c),
(744,329,l),
(500,329,l),
(500,247,l),
(872,247,l),
(887,445,o),
(790,560,o),
(627,560,cs),
(472,560,o),
(370,447,o),
(370,275,cs),
(370,101,o),
(476,-15,o),
(634,-15,cs)
);
}
);
width = 902;
},
{
anchors = (
{
name = ogonek;
pos = (674,11);
},
{
name = top;
pos = (662,532);
}
);
background = {
shapes = (
{
closed = 1;
nodes = (
(289,-12,o),
(369,40,o),
(393,120,c),
(385,120,l),
(415,38,o),
(497,-12,o),
(593,-12,cs),
(697,-12,o),
(781,50,o),
(805,154,c),
(721,176,l),
(706,105,o),
(657,60,o),
(591,60,cs),
(497,60,o),
(437,142,o),
(437,272,cs),
(437,396,o),
(492,474,o),
(579,474,cs),
(655,474,o),
(707,409,o),
(709,308,c),
(717,316,l),
(429,316,l),
(429,250,l),
(797,250,l),
(809,425,o),
(721,544,o),
(585,544,cs),
(502,544,o),
(433,504,o),
(405,440,c),
(413,440,l),
(390,502,o),
(317,544,o),
(233,544,cs),
(135,544,o),
(51,489,o),
(27,408,c),
(107,376,l),
(124,437,o),
(175,476,o),
(239,476,cs),
(306,476,o),
(349,428,o),
(349,353,cs),
(349,242,ls),
(349,131,o),
(289,60,o),
(199,60,cs),
(140,60,o),
(103,96,o),
(103,152,cs),
(103,198,o),
(136,247,o),
(237,260,cs),
(357,276,l),
(357,338,l),
(193,316,ls),
(74,300,o),
(19,232,o),
(19,148,cs),
(19,53,o),
(90,-12,o),
(193,-12,cs)
);
}
);
};
layerId = "980A8AF2-BF11-492D-9410-496A94B21BD3";
shapes = (
{
closed = 1;
nodes = (
(267,-12,o),
(380,47,o),
(415,148,c),
(481,358,l),
(498,475,o),
(425,544,o),
(304,544,cs),
(198,544,o),
(99,484,o),
(65,408,c),
(140,372,l),
(163,427,o),
(221,474,o),
(295,474,cs),
(366,474,o),
(406,429,o),
(395,353,cs),
(384,274,ls),
(365,140,o),
(286,60,o),
(189,60,cs),
(139,60,o),
(108,87,o),
(108,131,cs),
(108,194,o),
(158,240,o),
(261,254,cs),
(391,272,l),
(400,332,l),
(224,308,ls),
(98,291,o),
(23,216,o),
(23,116,cs),
(23,40,o),
(79,-12,o),
(167,-12,cs)
);
},
{
closed = 1;
nodes = (
(707,-12,o),
(804,50,o),
(843,154,c),
(764,176,l),
(739,106,o),
(678,60,o),
(604,60,cs),
(519,60,o),
(468,122,o),
(468,222,cs),
(468,366,o),
(549,474,o),
(658,474,cs),
(746,474,o),
(790,405,o),
(778,308,c),
(787,316,l),
(470,316,l),
(461,248,l),
(856,248,l),
(897,428,o),
(815,544,o),
(665,544,cs),
(504,544,o),
(379,400,o),
(379,216,cs),
(379,79,o),
(462,-12,o),
(595,-12,cs)
);
}
);
width = 897;
},
{
anchors = (
{
name = ogonek;
pos = (696,11);
},
{
name = top;
pos = (676,545);
}
);
layerId = "829AF10C-3E33-4291-B5B6-8F7CF12D6A62";
shapes = (
{
closed = 1;
nodes = (
(316,-15,o),
(407,51,o),
(430,149,c),
(520,342,l),
(541,491,o),
(467,560,o),
(328,560,cs),
(208,560,o),
(113,508,o),
(65,413,c),
(174,372,l),
(203,435,o),
(251,471,o),
(311,471,cs),
(368,471,o),
(401,433,o),
(394,372,cs),
(384,288,ls),
(370,169,o),
(300,80,o),
(221,80,cs),
(178,80,o),
(153,104,o),
(153,141,cs),
(153,201,o),
(203,241,o),
(299,255,cs),
(386,268,l),
(398,348,l),
(276,331,ls),
(114,309,o),
(22,230,o),
(22,127,cs),
(22,40,o),
(98,-15,o),
(196,-15,cs)
);
},
{
closed = 1;
nodes = (
(722,-15,o),
(828,51,o),
(866,149,c),
(754,190,l),
(732,122,o),
(680,78,o),
(622,78,cs),
(554,78,o),
(516,133,o),
(516,223,cs),
(516,362,o),
(583,471,o),
(668,471,cs),
(731,471,o),
(768,413,o),
(755,322,c),
(763,329,l),
(519,329,l),
(507,247,l),
(879,247,l),
(922,445,o),
(841,560,o),
(678,560,cs),
(506,560,o),
(377,414,o),
(377,220,cs),
(377,77,o),
(464,-15,o),
(605,-15,cs)
);
}
);
width = 910;
}
);
metricLeft = a;
metricRight = e;
unicode = 230;
}
{
color = 3;
glyphname = idieresis;
layers = (
{
layerId = m01;
shapes = (
{
ref = idotless;
},
{
pos = (-94,0);
ref = dieresiscomb;
}
);
width = 232;
},
{
layerId = "E9FB66CC-5D7A-47B2-9A25-A0E8EEF5BB81";
shapes = (
{
ref = idotless;
},
{
pos = (-112,0);
ref = dieresiscomb;
}
);
width = 256;
},
{
associatedMasterId = m01;
layerId = "433D1C27-4932-4BB5-9132-5DAD4D053368";
name = "6 ago 23, 10:41";
shapes = (
{
closed = 1;
nodes = (
(82,636,l),
(82,730,l),
(-4,730,l),
(-4,636,l)
);
},
{
closed = 1;
nodes = (
(249,636,l),
(249,730,l),
(164,730,l),
(164,636,l)
);
},
{
pos = (7,0);
ref = idotless;
}
);
width = 245;
}
);
unicode = 239;
}
{
glyphname = eth;
layers = (
{
layerId = m01;
shapes = (
{
closed = 1;
nodes = (
(423,-12,o),
(528,92,o),
(528,272,cs),
(528,500,o),
(384,676,o),
(152,744,c),
(124,692,l),
(264,652,o),
(362,559,o),
(406,439,c),
(413,439,l),
(389,485,o),
(333,510,o),
(264,510,cs),
(125,510,o),
(30,405,o),
(30,252,cs),
(30,95,o),
(131,-12,o),
(279,-12,cs)
);
},
{
closed = 1;
nodes = (
(182,60,o),
(119,134,o),
(119,250,cs),
(119,366,o),
(181,440,o),
(278,440,cs),
(376,440,o),
(438,365,o),
(438,248,cs),
(438,133,o),
(377,60,o),
(280,60,cs)
);
},
{
closed = 1;
nodes = (
(456,668,l),
(432,728,l),
(152,618,l),
(176,560,l)
);
}
);
width = 558;
},
{
layerId = "E9FB66CC-5D7A-47B2-9A25-A0E8EEF5BB81";
shapes = (
{
closed = 1;
nodes = (
(437,-15,o),
(562,91,o),
(562,283,cs),
(562,513,o),
(417,700,o),
(164,770,c),
(108,700,l),
(246,670,o),
(343,589,o),
(388,480,c),
(395,480,l),
(366,504,o),
(320,518,o),
(272,518,cs),
(130,518,o),
(26,410,o),
(26,253,cs),
(26,94,o),
(132,-15,o),
(287,-15,cs)
);
},
{
closed = 1;
nodes = (
(216,76,o),
(164,144,o),
(164,252,cs),
(164,360,o),
(215,428,o),
(294,428,cs),
(373,428,o),
(424,360,o),
(424,252,cs),
(424,144,o),
(374,76,o),
(296,76,cs)
);
},
{
closed = 1;
nodes = (
(500,662,l),
(467,744,l),
(158,625,l),
(192,543,l)
);
}
);
width = 588;
},
{
layerId = "980A8AF2-BF11-492D-9410-496A94B21BD3";
shapes = (
{
closed = 1;
nodes = (
(431,-12,o),
(538,135,o),
(538,344,cs),
(538,537,o),
(422,683,o),
(224,744,c),
(192,692,l),
(327,652,o),
(411,558,o),
(439,439,c),
(446,439,l),
(428,485,o),
(376,510,o),
(307,510,cs),
(153,510,o),
(33,377,o),
(33,205,cs),
(33,74,o),
(126,-12,o),
(258,-12,cs)
);
},
{
closed = 1;
nodes = (
(174,60,o),
(122,117,o),
(122,210,cs),
(122,341,o),
(202,440,o),
(311,440,cs),
(397,440,o),
(447,382,o),
(447,289,cs),
(447,157,o),
(368,60,o),
(259,60,cs)
);
},
{
closed = 1;
nodes = (
(510,663,l),
(494,723,l),
(199,613,l),
(215,555,l)
);
}
);
width = 571;
},
{
layerId = "829AF10C-3E33-4291-B5B6-8F7CF12D6A62";
shapes = (
{
closed = 1;
nodes = (
(451,-15,o),
(571,141,o),
(571,356,cs),
(571,551,o),
(453,708,o),
(236,770,c),
(174,700,l),
(308,670,o),
(393,589,o),
(423,480,c),
(430,480,l),
(405,504,o),
(360,518,o),
(313,518,cs),
(153,518,o),
(26,380,o),
(26,206,cs),
(26,73,o),
(124,-15,o),
(263,-15,cs)
);
},
{
closed = 1;
nodes = (
(205,76,o),
(164,128,o),
(164,211,cs),
(164,334,o),
(232,428,o),
(322,428,cs),
(390,428,o),
(430,377,o),
(430,294,cs),
(430,170,o),
(363,76,o),
(274,76,cs)
);
},
{
closed = 1;
nodes = (
(541,662,l),
(519,744,l),
(194,625,l),
(216,543,l)
);
}
);
width = 597;
}
);
metricLeft = o;
metricRight = o;
unicode = 240;
}
{
glyphname = divide;
layers = (
{
layerId = m01;
shapes = (
{
closed = 1;
nodes = (
(334,70,l),
(334,166,l),
(242,166,l),
(242,70,l)
);
},
{
closed = 1;
nodes = (
(334,400,l),
(334,496,l),
(242,496,l),
(242,400,l)
);
},
{
closed = 1;
nodes = (
(538,246,l),
(538,322,l),
(38,322,l),
(38,246,l)
);
}
);
width = 576;
},
{
layerId = "E9FB66CC-5D7A-47B2-9A25-A0E8EEF5BB81";
width = 590;
}
);
metricLeft = plus;
metricRight = plus;
unicode = 247;
userData = {
KernOnSpecialSpacing = {
L = math;
R = math;
};
};
}
{
color = 3;
glyphname = oslash;
layers = (
{
layerId = m01;
shapes = (
{
ref = o;
},
{
pos = (-44,-2);
ref = slashshortcomb;
}
);
width = 556;
},
{
layerId = "E9FB66CC-5D7A-47B2-9A25-A0E8EEF5BB81";
shapes = (
{
ref = o;
},
{
pos = (-49,0);
ref = slashshortcomb;
}
);
width = 576;
},
{
associatedMasterId = m01;
layerId = "CE548E82-843A-4479-A657-D28BC794D090";
name = "15 apr 23, 17:34";
shapes = (
{
closed = 1;
nodes = (
(445,572,l),
(384,597,l),
(118,-37,l),
(180,-64,l)
);
},
{
pos = (1,0);
ref = o;
}
);
width = 563;
}
);
metricLeft = o;
metricRight = o;
unicode = 248;
}
{
glyphname = thorn;
layers = (
{
layerId = m01;
shapes = (
{
closed = 1;
nodes = (
(152,-218,l),
(152,112,l),
(144,112,l),
(168,36,o),
(240,-12,o),
(328,-12,cs),
(463,-12,o),
(556,101,o),
(556,266,cs),
(556,431,o),
(465,544,o),
(332,544,cs),
(240,544,o),
(166,496,o),
(144,416,c),
(152,416,l),
(152,712,l),
(66,712,l),
(66,-218,l)
);
},
{
closed = 1;
nodes = (
(213,60,o),
(152,140,o),
(152,266,cs),
(152,392,o),
(213,472,o),
(310,472,cs),
(406,472,o),
(467,391,o),
(467,264,cs),
(467,139,o),
(406,60,o),
(310,60,cs)
);
}
);
width = 586;
},
{
layerId = "E9FB66CC-5D7A-47B2-9A25-A0E8EEF5BB81";
shapes = (
{
closed = 1;
nodes = (
(190,-218,l),
(190,104,l),
(182,104,l),
(201,33,o),
(272,-15,o),
(357,-15,cs),
(491,-15,o),
(580,102,o),
(580,273,cs),
(580,444,o),
(490,560,o),
(359,560,cs),
(271,560,o),
(197,507,o),
(180,430,c),
(188,430,l),
(188,713,l),
(60,713,l),
(60,-218,l)
);
},
{
closed = 1;
nodes = (
(238,78,o),
(190,153,o),
(190,272,cs),
(190,390,o),
(239,465,o),
(317,465,cs),
(394,465,o),
(443,390,o),
(443,272,cs),
(443,153,o),
(393,78,o),
(315,78,cs)
);
}
);
width = 606;
},
{
layerId = "980A8AF2-BF11-492D-9410-496A94B21BD3";
shapes = (
{
closed = 1;
nodes = (
(119,-218,l),
(165,112,l),
(157,112,l),
(171,36,o),
(235,-12,o),
(324,-12,cs),
(476,-12,o),
(595,136,o),
(595,323,cs),
(595,456,o),
(523,544,o),
(406,544,cs),
(314,544,o),
(233,496,o),
(200,416,c),
(208,416,l),
(250,712,l),
(164,712,l),
(33,-218,l)
);
},
{
closed = 1;
nodes = (
(232,60,o),
(183,120,o),
(183,218,cs),
(183,364,o),
(265,472,o),
(374,472,cs),
(457,472,o),
(505,411,o),
(505,313,cs),
(505,168,o),
(425,60,o),
(316,60,cs)
);
}
);
width = 630;
},
{
layerId = "829AF10C-3E33-4291-B5B6-8F7CF12D6A62";
shapes = (
{
closed = 1;
nodes = (
(145,-218,l),
(190,104,l),
(182,104,l),
(191,33,o),
(256,-15,o),
(341,-15,cs),
(490,-15,o),
(609,139,o),
(609,335,cs),
(609,471,o),
(538,560,o),
(423,560,cs),
(336,560,o),
(254,507,o),
(226,430,c),
(234,430,l),
(274,713,l),
(146,713,l),
(15,-218,l)
);
},
{
closed = 1;
nodes = (
(247,78,o),
(210,131,o),
(210,219,cs),
(210,359,o),
(279,465,o),
(368,465,cs),
(433,465,o),
(471,411,o),
(471,323,cs),
(471,185,o),
(401,78,o),
(312,78,cs)
);
}
);
width = 638;
}
);
metricLeft = l;
metricRight = o;
unicode = 254;
}
{
glyphname = dcroat;
layers = (
{
layerId = m01;
shapes = (
{
ref = d;
},
{
closed = 1;
nodes = (
(626,660,l),
(626,724,l),
(302,724,l),
(302,660,l)
);
}
);
width = 632;
},
{
layerId = "E9FB66CC-5D7A-47B2-9A25-A0E8EEF5BB81";
shapes = (
{
ref = d;
},
{
closed = 1;
nodes = (
(644,634,l),
(644,714,l),
(300,714,l),
(300,634,l)
);
}
);
width = 654;
}
);
metricLeft = o;
unicode = 273;
}
{
glyphname = eogonek;
layers = (
{
layerId = m01;
shapes = (
{
closed = 1;
nodes = (
(426,-156,l),
(366,-188,o),
(318,-168,o),
(318,-120,cs),
(318,-72,o),
(366,-20,o),
(418,12,c),
(350,12,l),
(282,-28,o),
(242,-84,o),
(242,-140,cs),
(242,-228,o),
(347,-260,o),
(444,-214,c)
);
},
{
ref = e;
}
);
width = 580;
},
{
layerId = "E9FB66CC-5D7A-47B2-9A25-A0E8EEF5BB81";
shapes = (
{
closed = 1;
nodes = (
(438,-156,l),
(374,-180,o),
(334,-162,o),
(334,-116,cs),
(334,-64,o),
(385,-12,o),
(441,12,c),
(344,12,l),
(276,-24,o),
(230,-90,o),
(230,-146,cs),
(230,-242,o),
(334,-276,o),
(462,-224,c)
);
},
{
ref = e;
}
);
width = 600;
}
);
unicode = 281;
}
{
glyphname = Hbar;
layers = (
{
layerId = m01;
shapes = (
{
closed = 1;
nodes = (
(660,524,l),
(660,588,l),
(44,588,l),
(44,524,l)
);
},
{
pos = (6,0);
ref = H;
}
);
width = 704;
},
{
layerId = "E9FB66CC-5D7A-47B2-9A25-A0E8EEF5BB81";
shapes = (
{
closed = 1;
nodes = (
(694,499,l),
(694,595,l),
(15,595,l),
(15,499,l)
);
},
{
ref = H;
}
);
width = 709;
}
);
metricRight = "=|";
unicode = 294;
}
{
glyphname = hbar;
layers = (
{
layerId = m01;
shapes = (
{
pos = (-1,0);
ref = h;
},
{
closed = 1;
nodes = (
(325,659,l),
(325,724,l),
(12,724,l),
(12,659,l)
);
}
);
width = 605;
},
{
layerId = "E9FB66CC-5D7A-47B2-9A25-A0E8EEF5BB81";
shapes = (
{
pos = (-1,0);
ref = h;
},
{
closed = 1;
nodes = (
(325,634,l),
(325,724,l),
(-5,724,l),
(-5,634,l)
);
}
);
width = 637;
}
);
metricRight = n;
unicode = 295;
}
{
glyphname = idotless;
layers = (
{
anchors = (
{
name = bottom;
pos = (116,0);
},
{
name = ogonek;
pos = (150,12);
},
{
name = top;
pos = (116,572);
}
);
layerId = m01;
shapes = (
{
closed = 1;
nodes = (
(162,0,l),
(162,572,l),
(70,572,l),
(70,0,l)
);
}
);
width = 232;
},
{
anchors = (
{
name = bottom;
pos = (128,0);
},
{
name = ogonek;
pos = (186,12);
},
{
name = top;
pos = (128,586);
}
);
layerId = "E9FB66CC-5D7A-47B2-9A25-A0E8EEF5BB81";
shapes = (
{
closed = 1;
nodes = (
(198,0,l),
(198,586,l),
(58,586,l),
(58,0,l)
);
}
);
width = 256;
}
);
metricRight = "=|";
unicode = 305;
}
{
glyphname = kgreenlandic;
layers = (
{
layerId = m01;
shapes = (
{
closed = 1;
nodes = (
(162,0,l),
(162,200,l),
(154,184,l),
(536,572,l),
(426,572,l),
(154,294,l),
(162,294,l),
(162,572,l),
(70,572,l),
(70,0,l)
);
},
{
closed = 1;
nodes = (
(560,0,l),
(300,356,l),
(240,292,l),
(448,0,l)
);
}
);
width = 556;
},
{
layerId = "E9FB66CC-5D7A-47B2-9A25-A0E8EEF5BB81";
shapes = (
{
closed = 1;
nodes = (
(198,0,l),
(198,180,l),
(190,164,l),
(574,586,l),
(424,586,l),
(190,332,l),
(198,332,l),
(198,586,l),
(58,586,l),
(58,0,l)
);
},
{
closed = 1;
nodes = (
(610,0,l),
(360,372,l),
(268,270,l),
(440,0,l)
);
}
);
width = 598;
}
);
metricLeft = idotless;
unicode = 312;
}
{
glyphname = Ldot;
layers = (
{
layerId = m01;
shapes = (
{
closed = 1;
nodes = (
(464,348,l),
(464,456,l),
(358,456,l),
(358,348,l)
);
},
{
ref = L;
}
);
width = 560;
},
{
layerId = "E9FB66CC-5D7A-47B2-9A25-A0E8EEF5BB81";
shapes = (
{
closed = 1;
nodes = (
(514,340,l),
(514,500,l),
(350,500,l),
(350,340,l)
);
},
{
ref = L;
}
);
width = 572;
}
);
metricLeft = H;
metricRight = L;
unicode = 319;
}
{
glyphname = ldot;
layers = (
{
layerId = m01;
shapes = (
{
closed = 1;
nodes = (
(300,325,l),
(300,420,l),
(207,420,l),
(207,325,l)
);
},
{
ref = l;
}
);
width = 309;
},
{
layerId = "E9FB66CC-5D7A-47B2-9A25-A0E8EEF5BB81";
shapes = (
{
closed = 1;
nodes = (
(370,300,l),
(370,430,l),
(236,430,l),
(236,300,l)
);
},
{
alignment = -1;
ref = l;
}
);
width = 378;
}
);
metricLeft = l;
unicode = 320;
}
{
glyphname = Lslash;
layers = (
{
layerId = "E9FB66CC-5D7A-47B2-9A25-A0E8EEF5BB81";
shapes = (
{
pos = (10,0);
ref = L;
},
{
closed = 1;
nodes = (
(416,350,l),
(384,446,l),
(6,332,l),
(38,238,l)
);
}
);
width = 540;
},
{
layerId = m01;
name = Regular;
shapes = (
{
pos = (6,0);
ref = L;
},
{
closed = 1;
nodes = (
(390,362,l),
(368,430,l),
(18,314,l),
(40,248,l)
);
}
);
width = 524;
},
{
layerId = "980A8AF2-BF11-492D-9410-496A94B21BD3";
name = Regular;
shapes = (
{
pos = (6,0);
ref = L;
},
{
closed = 1;
nodes = (
(390,382,l),
(368,450,l),
(18,334,l),
(40,268,l)
);
}
);
width = 483;
},
{
layerId = "829AF10C-3E33-4291-B5B6-8F7CF12D6A62";
shapes = (
{
pos = (10,0);
ref = L;
},
{
closed = 1;
nodes = (
(416,370,l),
(384,466,l),
(6,352,l),
(38,258,l)
);
}
);
width = 539;
}
);
metricRight = L;
unicode = 321;
}
{
color = 3;
glyphname = lslash;
layers = (
{
layerId = m01;
shapes = (
{
closed = 1;
nodes = (
(312,430,l),
(286,502,l),
(0,400,l),
(28,326,l)
);
},
{
pos = (38,0);
ref = l;
}
);
width = 312;
},
{
layerId = "E9FB66CC-5D7A-47B2-9A25-A0E8EEF5BB81";
shapes = (
{
closed = 1;
nodes = (
(340,410,l),
(308,512,l),
(-4,412,l),
(30,308,l)
);
},
{
pos = (32,0);
ref = l;
}
);
width = 336;
},
{
associatedMasterId = m01;
layerId = "98CDF1AC-8AF7-4DAB-9BDB-8F698362E116";
name = "15 apr 23, 20:38";
shapes = (
{
pos = (29,0);
ref = l;
},
{
closed = 1;
nodes = (
(310,477,l),
(280,540,l),
(-8,391,l),
(23,328,l)
);
}
);
width = 301;
}
);
metricRight = "=|";
unicode = 322;
}
{
glyphname = Eng;
layers = (
{
layerId = m01;
shapes = (
{
closed = 1;
nodes = (
(573,-274,o),
(666,-223,o),
(666,-112,cs),
(666,732,l),
(576,732,l),
(576,114,l),
(584,114,l),
(222,732,l),
(88,732,l),
(88,0,l),
(178,0,l),
(178,640,l),
(170,640,l),
(574,-46,l),
(574,-106,ls),
(574,-166,o),
(525,-186,o),
(448,-156,c),
(436,-236,l)
);
}
);
width = 754;
},
{
layerId = "E9FB66CC-5D7A-47B2-9A25-A0E8EEF5BB81";
shapes = (
{
closed = 1;
nodes = (
(584,-280,o),
(694,-232,o),
(694,-100,cs),
(694,744,l),
(558,744,l),
(558,218,l),
(566,218,l),
(256,744,l),
(80,744,l),
(80,0,l),
(216,0,l),
(216,552,l),
(208,552,l),
(554,-40,l),
(554,-72,ls),
(554,-128,o),
(504,-148,o),
(424,-120,c),
(412,-232,l)
);
}
);
width = 774;
}
);
metricLeft = H;
metricRight = H;
unicode = 330;
}
{
glyphname = eng;
layers = (
{
layerId = m01;
shapes = (
{
closed = 1;
nodes = (
(436,-258,o),
(524,-216,o),
(524,-104,cs),
(524,364,ls),
(524,482,o),
(450,560,o),
(340,560,cs),
(240,560,o),
(166,496,o),
(150,400,c),
(158,400,l),
(158,548,l),
(72,548,l),
(72,0,l),
(160,0,l),
(160,260,ls),
(160,399,o),
(219,484,o),
(314,484,cs),
(390,484,o),
(436,428,o),
(436,336,cs),
(436,-100,ls),
(436,-156,o),
(386,-175,o),
(316,-148,c),
(304,-222,l)
);
}
);
width = 588;
},
{
layerId = "E9FB66CC-5D7A-47B2-9A25-A0E8EEF5BB81";
width = 600;
}
);
metricLeft = idotless;
metricRight = n;
unicode = 331;
}
{
glyphname = OE;
layers = (
{
layerId = m01;
shapes = (
{
closed = 1;
nodes = (
(523,-12,o),
(646,131,o),
(646,340,cs),
(646,549,o),
(523,692,o),
(343,692,cs),
(163,692,o),
(40,549,o),
(40,340,cs),
(40,131,o),
(163,-12,o),
(343,-12,cs)
);
},
{
closed = 1;
nodes = (
(221,64,o),
(140,172,o),
(140,341,cs),
(140,510,o),
(221,618,o),
(349,618,cs),
(477,618,o),
(558,510,o),
(558,341,cs),
(558,172,o),
(477,64,o),
(349,64,cs)
);
},
{
closed = 1;
nodes = (
(1002,0,l),
(1002,74,l),
(644,74,l),
(652,66,l),
(652,614,l),
(644,606,l),
(996,606,l),
(996,680,l),
(558,680,l),
(558,0,l)
);
},
{
closed = 1;
nodes = (
(964,314,l),
(964,387,l),
(644,387,l),
(644,314,l)
);
}
);
width = 1034;
},
{
layerId = "E9FB66CC-5D7A-47B2-9A25-A0E8EEF5BB81";
shapes = (
{
closed = 1;
nodes = (
(523,-14,o),
(648,132,o),
(648,346,cs),
(648,560,o),
(523,706,o),
(340,706,cs),
(157,706,o),
(32,560,o),
(32,346,cs),
(32,132,o),
(157,-14,o),
(340,-14,cs)
);
},
{
closed = 1;
nodes = (
(247,96,o),
(184,193,o),
(184,347,cs),
(184,500,o),
(247,598,o),
(346,598,cs),
(445,598,o),
(508,500,o),
(508,347,cs),
(508,193,o),
(445,96,o),
(346,96,cs)
);
},
{
closed = 1;
nodes = (
(964,0,l),
(964,108,l),
(644,108,l),
(652,100,l),
(652,593,l),
(644,585,l),
(958,585,l),
(958,692,l),
(508,692,l),
(508,0,l)
);
},
{
closed = 1;
nodes = (
(928,303,l),
(928,409,l),
(644,409,l),
(644,303,l)
);
}
);
width = 1002;
},
{
layerId = "980A8AF2-BF11-492D-9410-496A94B21BD3";
shapes = (
{
closed = 1;
nodes = (
(491,-12,o),
(648,172,o),
(648,409,cs),
(648,579,o),
(549,692,o),
(389,692,cs),
(189,692,o),
(32,508,o),
(32,271,cs),
(32,101,o),
(131,-12,o),
(290,-12,cs)
);
},
{
closed = 1;
nodes = (
(197,64,o),
(132,145,o),
(132,276,cs),
(132,471,o),
(241,618,o),
(385,618,cs),
(496,618,o),
(560,537,o),
(560,406,cs),
(560,212,o),
(452,64,o),
(307,64,cs)
);
},
{
closed = 1;
nodes = (
(951,0,l),
(962,74,l),
(604,74,l),
(610,66,l),
(687,614,l),
(678,606,l),
(1030,606,l),
(1041,680,l),
(603,680,l),
(507,0,l)
);
},
{
closed = 1;
nodes = (
(957,314,l),
(968,387,l),
(648,387,l),
(637,314,l)
);
}
);
width = 1063;
},
{
layerId = "829AF10C-3E33-4291-B5B6-8F7CF12D6A62";
shapes = (
{
closed = 1;
nodes = (
(493,-14,o),
(652,175,o),
(652,417,cs),
(652,591,o),
(552,706,o),
(390,706,cs),
(185,706,o),
(26,517,o),
(26,275,cs),
(26,101,o),
(126,-14,o),
(289,-14,cs)
);
},
{
closed = 1;
nodes = (
(227,96,o),
(178,165,o),
(178,279,cs),
(178,458,o),
(267,598,o),
(381,598,cs),
(464,598,o),
(512,528,o),
(512,414,cs),
(512,236,o),
(424,96,o),
(310,96,cs)
);
},
{
closed = 1;
nodes = (
(914,0,l),
(930,108,l),
(610,108,l),
(617,100,l),
(686,593,l),
(677,585,l),
(991,585,l),
(1006,692,l),
(556,692,l),
(458,0,l)
);
},
{
closed = 1;
nodes = (
(921,303,l),
(936,409,l),
(652,409,l),
(637,303,l)
);
}
);
width = 1020;
}
);
metricLeft = O;
metricRight = E;
unicode = 338;
}
{
glyphname = oe;
layers = (
{
background = {
shapes = (
{
closed = 1;
nodes = (
(352,-13,o),
(423,28,o),
(465,96,c),
(507,28,o),
(578,-13,o),
(665,-13,cs),
(774,-13,o),
(865,55,o),
(889,154,c),
(807,177,l),
(792,105,o),
(738,60,o),
(667,60,cs),
(571,60,o),
(509,141,o),
(509,270,cs),
(509,395,o),
(569,474,o),
(662,474,cs),
(745,474,o),
(798,413,o),
(801,316,c),
(502,316,l),
(502,247,l),
(890,247,l),
(901,424,o),
(809,545,o),
(662,545,cs),
(576,545,o),
(506,505,o),
(465,438,c),
(422,505,o),
(352,545,o),
(265,545,cs),
(120,545,o),
(22,433,o),
(22,267,cs),
(22,100,o),
(120,-13,o),
(265,-13,cs)
);
},
{
closed = 1;
nodes = (
(172,60,o),
(111,140,o),
(111,268,cs),
(111,394,o),
(172,474,o),
(265,474,cs),
(359,474,o),
(420,394,o),
(420,268,cs),
(420,140,o),
(359,60,o),
(265,60,cs)
);
}
);
};
layerId = m01;
shapes = (
{
closed = 1;
nodes = (
(355,-12,o),
(431,32,o),
(468,104,c),
(460,104,l),
(494,31,o),
(572,-12,o),
(662,-12,cs),
(770,-12,o),
(854,50,o),
(878,154,c),
(794,176,l),
(779,105,o),
(730,60,o),
(660,60,cs),
(566,60,o),
(506,142,o),
(506,272,cs),
(506,396,o),
(561,474,o),
(648,474,cs),
(728,474,o),
(780,409,o),
(782,308,c),
(790,316,l),
(498,316,l),
(498,250,l),
(870,250,l),
(882,425,o),
(792,544,o),
(652,544,cs),
(564,544,o),
(488,496,o),
(460,424,c),
(468,424,l),
(440,492,o),
(362,544,o),
(268,544,cs),
(127,544,o),
(30,431,o),
(30,266,cs),
(30,101,o),
(127,-12,o),
(268,-12,cs)
);
},
{
closed = 1;
nodes = (
(178,60,o),
(120,141,o),
(120,268,cs),
(120,394,o),
(178,474,o),
(270,474,cs),
(362,474,o),
(420,394,o),
(420,268,cs),
(420,141,o),
(362,60,o),
(270,60,cs)
);
}
);
width = 910;
},
{
layerId = "E9FB66CC-5D7A-47B2-9A25-A0E8EEF5BB81";
shapes = (
{
closed = 1;
nodes = (
(367,-15,o),
(439,24,o),
(476,93,c),
(469,93,l),
(506,26,o),
(582,-15,o),
(670,-15,cs),
(784,-15,o),
(878,51,o),
(902,149,c),
(785,190,l),
(774,121,o),
(731,78,o),
(673,78,cs),
(595,78,o),
(545,156,o),
(545,279,cs),
(545,396,o),
(590,471,o),
(660,471,cs),
(722,471,o),
(763,413,o),
(767,322,c),
(774,329,l),
(538,329,l),
(538,247,l),
(902,247,l),
(917,441,o),
(813,560,o),
(664,560,cs),
(579,560,o),
(512,519,o),
(471,452,c),
(478,452,l),
(441,519,o),
(365,560,o),
(281,560,cs),
(130,560,o),
(26,444,o),
(26,273,cs),
(26,102,o),
(130,-15,o),
(281,-15,cs)
);
},
{
closed = 1;
nodes = (
(211,78,o),
(164,154,o),
(164,273,cs),
(164,393,o),
(211,469,o),
(285,469,cs),
(358,469,o),
(406,393,o),
(406,273,cs),
(406,154,o),
(358,78,o),
(285,78,cs)
);
}
);
width = 931;
},
{
associatedMasterId = m01;
background = {
shapes = (
{
closed = 1;
nodes = (
(360,-13,o),
(431,28,o),
(473,96,c),
(515,28,o),
(586,-13,o),
(673,-13,cs),
(782,-13,o),
(873,55,o),
(897,154,c),
(815,177,l),
(800,105,o),
(746,60,o),
(675,60,cs),
(579,60,o),
(517,141,o),
(517,270,cs),
(517,395,o),
(577,474,o),
(670,474,cs),
(753,474,o),
(806,413,o),
(809,316,c),
(510,316,l),
(510,247,l),
(898,247,l),
(909,424,o),
(817,545,o),
(670,545,cs),
(584,545,o),
(514,505,o),
(473,438,c),
(430,505,o),
(360,545,o),
(273,545,cs),
(128,545,o),
(30,433,o),
(30,267,cs),
(30,100,o),
(128,-13,o),
(273,-13,cs)
);
},
{
closed = 1;
nodes = (
(180,60,o),
(119,140,o),
(119,268,cs),
(119,394,o),
(180,474,o),
(273,474,cs),
(367,474,o),
(428,394,o),
(428,268,cs),
(428,140,o),
(367,60,o),
(273,60,cs)
);
}
);
};
layerId = "0DB97953-518A-4BAF-8D29-D09F0B30B5AF";
name = "10 nov 23, 09:21";
shapes = (
{
closed = 1;
nodes = (
(360,-13,o),
(437,32,o),
(474,104,c),
(467,104,l),
(504,32,o),
(586,-13,o),
(673,-13,cs),
(782,-13,o),
(873,55,o),
(897,154,c),
(815,177,l),
(800,105,o),
(746,60,o),
(675,60,cs),
(579,60,o),
(517,141,o),
(517,270,cs),
(517,395,o),
(577,474,o),
(670,474,cs),
(753,474,o),
(807,409,o),
(809,309,c),
(817,316,l),
(510,316,l),
(510,247,l),
(898,247,l),
(909,424,o),
(817,545,o),
(670,545,cs),
(582,545,o),
(506,500,o),
(469,428,c),
(476,428,l),
(439,502,o),
(361,545,o),
(272,545,cs),
(127,545,o),
(30,433,o),
(30,267,cs),
(30,100,o),
(128,-13,o),
(273,-13,cs)
);
},
{
closed = 1;
nodes = (
(180,60,o),
(119,140,o),
(119,268,cs),
(119,394,o),
(180,474,o),
(273,474,cs),
(367,474,o),
(428,394,o),
(428,268,cs),
(428,140,o),
(367,60,o),
(273,60,cs)
);
}
);
width = 931;
},
{
background = {
shapes = (
{
closed = 1;
nodes = (
(357,-13,o),
(428,28,o),
(470,96,c),
(512,28,o),
(583,-13,o),
(670,-13,cs),
(779,-13,o),
(870,55,o),
(894,154,c),
(812,177,l),
(797,105,o),
(743,60,o),
(672,60,cs),
(576,60,o),
(514,141,o),
(514,270,cs),
(514,395,o),
(574,474,o),
(667,474,cs),
(750,474,o),
(803,413,o),
(806,316,c),
(507,316,l),
(507,247,l),
(895,247,l),
(906,424,o),
(814,545,o),
(667,545,cs),
(581,545,o),
(511,505,o),
(470,438,c),
(427,505,o),
(357,545,o),
(270,545,cs),
(125,545,o),
(27,433,o),
(27,267,cs),
(27,100,o),
(125,-13,o),
(270,-13,cs)
);
},
{
closed = 1;
nodes = (
(177,60,o),
(116,140,o),
(116,268,cs),
(116,394,o),
(177,474,o),
(270,474,cs),
(364,474,o),
(425,394,o),
(425,268,cs),
(425,140,o),
(364,60,o),
(270,60,cs)
);
}
);
};
layerId = "980A8AF2-BF11-492D-9410-496A94B21BD3";
shapes = (
{
closed = 1;
nodes = (
(325,-12,o),
(407,32,o),
(454,104,c),
(446,104,l),
(470,31,o),
(542,-12,o),
(632,-12,cs),
(739,-12,o),
(833,50,o),
(871,154,c),
(790,176,l),
(765,105,o),
(711,60,o),
(640,60,cs),
(559,60,o),
(512,121,o),
(512,220,cs),
(512,365,o),
(587,474,o),
(686,474,cs),
(766,474,o),
(809,409,o),
(797,308,c),
(806,316,l),
(514,316,l),
(505,250,l),
(877,250,l),
(913,425,o),
(841,544,o),
(700,544,cs),
(613,544,o),
(529,496,o),
(491,424,c),
(499,424,l),
(481,492,o),
(409,544,o),
(316,544,cs),
(158,544,o),
(35,397,o),
(35,212,cs),
(35,77,o),
(113,-12,o),
(238,-12,cs)
);
},
{
closed = 1;
nodes = (
(171,60,o),
(125,120,o),
(125,217,cs),
(125,364,o),
(204,474,o),
(308,474,cs),
(387,474,o),
(433,415,o),
(433,318,cs),
(433,172,o),
(354,60,o),
(250,60,cs)
);
}
);
width = 911;
},
{
associatedMasterId = "980A8AF2-BF11-492D-9410-496A94B21BD3";
background = {
shapes = (
{
closed = 1;
nodes = (
(360,-13,o),
(431,28,o),
(473,96,c),
(515,28,o),
(586,-13,o),
(673,-13,cs),
(782,-13,o),
(873,55,o),
(897,154,c),
(815,177,l),
(800,105,o),
(746,60,o),
(675,60,cs),
(579,60,o),
(517,141,o),
(517,270,cs),
(517,395,o),
(577,474,o),
(670,474,cs),
(753,474,o),
(806,413,o),
(809,316,c),
(510,316,l),
(510,247,l),
(898,247,l),
(909,424,o),
(817,545,o),
(670,545,cs),
(584,545,o),
(514,505,o),
(473,438,c),
(430,505,o),
(360,545,o),
(273,545,cs),
(128,545,o),
(30,433,o),
(30,267,cs),
(30,100,o),
(128,-13,o),
(273,-13,cs)
);
},
{
closed = 1;
nodes = (
(180,60,o),
(119,140,o),
(119,268,cs),
(119,394,o),
(180,474,o),
(273,474,cs),
(367,474,o),
(428,394,o),
(428,268,cs),
(428,140,o),
(367,60,o),
(273,60,cs)
);
}
);
};
layerId = "9F523DBB-1804-4025-B3AE-DFF85FE7438D";
name = "10 nov 23, 09:21";
shapes = (
{
closed = 1;
nodes = (
(360,-13,o),
(437,32,o),
(474,104,c),
(467,104,l),
(504,32,o),
(586,-13,o),
(673,-13,cs),
(782,-13,o),
(873,55,o),
(897,154,c),
(815,177,l),
(800,105,o),
(746,60,o),
(675,60,cs),
(579,60,o),
(517,141,o),
(517,270,cs),
(517,395,o),
(577,474,o),
(670,474,cs),
(753,474,o),
(807,409,o),
(809,309,c),
(817,316,l),
(510,316,l),
(510,247,l),
(898,247,l),
(909,424,o),
(817,545,o),
(670,545,cs),
(582,545,o),
(506,500,o),
(469,428,c),
(476,428,l),
(439,502,o),
(361,545,o),
(272,545,cs),
(127,545,o),
(30,433,o),
(30,267,cs),
(30,100,o),
(128,-13,o),
(273,-13,cs)
);
},
{
closed = 1;
nodes = (
(180,60,o),
(119,140,o),
(119,268,cs),
(119,394,o),
(180,474,o),
(273,474,cs),
(367,474,o),
(428,394,o),
(428,268,cs),
(428,140,o),
(367,60,o),
(273,60,cs)
);
}
);
width = 931;
},
{
layerId = "829AF10C-3E33-4291-B5B6-8F7CF12D6A62";
shapes = (
{
closed = 1;
nodes = (
(333,-15,o),
(411,24,o),
(458,93,c),
(451,93,l),
(478,26,o),
(549,-15,o),
(636,-15,cs),
(750,-15,o),
(854,51,o),
(892,149,c),
(780,190,l),
(760,121,o),
(710,78,o),
(653,78,cs),
(587,78,o),
(549,133,o),
(549,224,cs),
(549,361,o),
(614,471,o),
(695,471,cs),
(756,471,o),
(790,413,o),
(781,322,c),
(789,329,l),
(553,329,l),
(541,247,l),
(905,247,l),
(948,441,o),
(859,560,o),
(711,560,cs),
(624,560,o),
(552,517,o),
(503,452,c),
(510,452,l),
(482,520,o),
(411,560,o),
(328,560,cs),
(160,560,o),
(29,411,o),
(29,218,cs),
(29,78,o),
(113,-15,o),
(247,-15,cs)
);
},
{
closed = 1;
nodes = (
(203,78,o),
(167,131,o),
(167,219,cs),
(167,358,o),
(234,469,o),
(319,469,cs),
(381,469,o),
(417,415,o),
(417,327,cs),
(417,188,o),
(349,78,o),
(265,78,cs)
);
}
);
width = 938;
}
);
metricLeft = o;
metricRight = e;
unicode = 339;
}
{
glyphname = Tbar;
layers = (
{
layerId = m01;
shapes = (
{
pos = (2,0);
ref = T;
},
{
closed = 1;
nodes = (
(468,350,l),
(468,418,l),
(96,418,l),
(96,350,l)
);
}
);
width = 564;
},
{
layerId = "E9FB66CC-5D7A-47B2-9A25-A0E8EEF5BB81";
width = 600;
}
);
metricRight = "=|";
unicode = 358;
}
{
glyphname = Uogonek;
layers = (
{
background = {
shapes = (
{
ref = U;
},
{
pos = (476,12);
ref = ogonekcomb;
}
);
};
layerId = m01;
shapes = (
{
closed = 1;
nodes = (
(518,-156,l),
(459,-189,o),
(410,-170,o),
(410,-120,cs),
(410,-76,o),
(450,-24,o),
(530,24,c),
(447,13,l),
(379,-23,o),
(334,-87,o),
(334,-144,cs),
(334,-232,o),
(439,-260,o),
(536,-214,c)
);
},
{
ref = U;
}
);
width = 732;
},
{
layerId = "E9FB66CC-5D7A-47B2-9A25-A0E8EEF5BB81";
width = 819;
}
);
metricLeft = U;
metricRight = U;
unicode = 370;
}
{
glyphname = longs;
layers = (
{
layerId = m01;
shapes = (
{
closed = 1;
nodes = (
(167,0,l),
(167,611,ls),
(167,693,o),
(222,718,o),
(314,680,c),
(331,755,l),
(174,809,o),
(75,758,o),
(75,623,cs),
(75,0,l)
);
}
);
width = 280;
},
{
layerId = "E9FB66CC-5D7A-47B2-9A25-A0E8EEF5BB81";
width = 628;
},
{
associatedMasterId = m01;
layerId = "6867417F-64D2-4255-B9CE-F442A51E132B";
name = "16 apr 23, 13:00";
shapes = (
{
closed = 1;
nodes = (
(167,0,l),
(167,632,ls),
(167,696,o),
(215,719,o),
(293,686,c),
(310,759,l),
(167,810,o),
(75,757,o),
(75,644,cs),
(75,0,l)
);
}
);
width = 272;
}
);
metricLeft = l;
unicode = 383;
}
{
glyphname = Schwa;
layers = (
{
layerId = "E9FB66CC-5D7A-47B2-9A25-A0E8EEF5BB81";
width = 720;
},
{
layerId = m01;
shapes = (
{
closed = 1;
nodes = (
(569,-14,o),
(704,149,o),
(704,374,cs),
(704,601,o),
(568,746,o),
(368,746,cs),
(212,746,o),
(84,653,o),
(52,516,c),
(155,488,l),
(175,597,o),
(255,666,o),
(364,666,cs),
(506,666,o),
(601,547,o),
(601,364,cs),
(601,182,o),
(507,68,o),
(366,68,cs),
(235,68,o),
(155,164,o),
(153,318,c),
(145,310,l),
(604,310,l),
(604,386,l),
(47,386,l),
(31,147,o),
(162,-14,o),
(372,-14,cs)
);
}
);
width = 748;
},
{
associatedMasterId = m01;
layerId = "388F8219-09A1-43BF-AC98-A3A8DDD8F18F";
name = "6 mag 23, 11:01";
shapes = (
{
closed = 1;
nodes = (
(565,-14,o),
(700,142,o),
(700,364,cs),
(700,590,o),
(561,746,o),
(362,746,cs),
(211,746,o),
(86,658,o),
(52,524,c),
(156,494,l),
(179,598,o),
(260,666,o),
(364,666,cs),
(504,666,o),
(592,547,o),
(592,360,cs),
(592,180,o),
(506,68,o),
(366,68,cs),
(232,68,o),
(150,169,o),
(148,320,c),
(140,312,l),
(600,312,l),
(600,388,l),
(47,388,l),
(30,141,o),
(163,-14,o),
(364,-14,cs)
);
}
);
width = 744;
},
{
associatedMasterId = m01;
layerId = "111B428A-73D3-44F1-BB97-41676A2B7025";
name = "15 apr 23, 20:17";
shapes = (
{
closed = 1;
nodes = (
(568,-13,o),
(702,138,o),
(702,364,cs),
(702,592,o),
(566,745,o),
(363,745,cs),
(208,745,o),
(89,657,o),
(55,523,c),
(160,498,l),
(183,601,o),
(262,665,o),
(365,665,cs),
(507,665,o),
(595,551,o),
(595,364,cs),
(595,181,o),
(509,69,o),
(370,69,cs),
(238,69,o),
(156,158,o),
(154,317,c),
(138,303,l),
(608,303,l),
(608,383,l),
(47,383,l),
(39,145,o),
(167,-13,o),
(368,-13,cs)
);
}
);
width = 748;
}
);
metricRight = O;
unicode = 399;
}
{
glyphname = florin;
layers = (
{
layerId = m01;
shapes = (
{
closed = 1;
nodes = (
(160,-40,o),
(258,4,o),
(278,128,cs),
(344,542,ls),
(356,616,o),
(416,640,o),
(508,604,c),
(524,676,l),
(376,722,o),
(278,678,o),
(258,554,cs),
(192,140,ls),
(180,66,o),
(120,44,o),
(28,80,c),
(12,6,l)
);
},
{
closed = 1;
nodes = (
(480,338,l),
(480,408,l),
(76,408,l),
(76,338,l)
);
}
);
width = 524;
},
{
layerId = "E9FB66CC-5D7A-47B2-9A25-A0E8EEF5BB81";
shapes = (
{
closed = 1;
nodes = (
(181,-75,o),
(306,-26,o),
(329,148,cs),
(377,522,ls),
(388,605,o),
(453,617,o),
(556,594,c),
(572,695,l),
(395,746,o),
(271,699,o),
(247,515,cs),
(199,150,ls),
(188,69,o),
(103,70,o),
(16,90,c),
(0,-14,l)
);
},
{
closed = 1;
nodes = (
(537,323,l),
(537,418,l),
(72,418,l),
(72,323,l)
);
}
);
width = 584;
},
{
layerId = "980A8AF2-BF11-492D-9410-496A94B21BD3";
shapes = (
{
closed = 1;
nodes = (
(150,-39,o),
(258,1,o),
(296,128,cs),
(420,542,ls),
(442,616,o),
(507,640,o),
(593,604,c),
(619,676,l),
(478,722,o),
(374,678,o),
(336,554,cs),
(212,140,ls),
(190,66,o),
(126,44,o),
(39,80,c),
(13,6,l)
);
},
{
closed = 1;
nodes = (
(528,338,l),
(537,408,l),
(133,408,l),
(124,338,l)
);
}
);
width = 524;
},
{
layerId = "829AF10C-3E33-4291-B5B6-8F7CF12D6A62";
shapes = (
{
closed = 1;
nodes = (
(170,-75,o),
(303,-26,o),
(350,148,cs),
(450,522,ls),
(472,605,o),
(540,617,o),
(639,594,c),
(670,695,l),
(500,746,o),
(369,699,o),
(319,515,cs),
(220,150,ls),
(198,69,o),
(113,70,o),
(29,90,c),
(-2,-14,l)
);
},
{
closed = 1;
nodes = (
(582,323,l),
(596,418,l),
(131,418,l),
(117,323,l)
);
}
);
width = 584;
}
);
unicode = 402;
userData = {
KernOnSpecialSpacing = {
L = NoKerning;
R = NoKerning;
};
};
}
{
glyphname = jdotless;
layers = (
{
anchors = (
{
name = top;
pos = (115,532);
}
);
layerId = m01;
shapes = (
{
closed = 1;
nodes = (
(79,-255,o),
(158,-213,o),
(158,-104,cs),
(158,532,l),
(72,532,l),
(72,-100,ls),
(72,-156,o),
(26,-174,o),
(-46,-146,c),
(-56,-216,l)
);
}
);
width = 222;
},
{
anchors = (
{
name = top;
pos = (130,545);
}
);
layerId = "E9FB66CC-5D7A-47B2-9A25-A0E8EEF5BB81";
shapes = (
{
closed = 1;
nodes = (
(97,-258,o),
(195,-212,o),
(195,-91,cs),
(195,545,l),
(65,545,l),
(65,-69,ls),
(65,-121,o),
(24,-141,o),
(-50,-115,c),
(-63,-214,l)
);
}
);
width = 249;
},
{
anchors = (
{
name = top;
pos = (171,532);
}
);
layerId = "980A8AF2-BF11-492D-9410-496A94B21BD3";
shapes = (
{
closed = 1;
nodes = (
(21,-254,o),
(109,-216,o),
(125,-104,cs),
(214,532,l),
(128,532,l),
(39,-100,ls),
(31,-156,o),
(-17,-174,o),
(-85,-146,c),
(-105,-216,l)
);
}
);
width = 248;
},
{
anchors = (
{
name = top;
pos = (207,545);
}
);
layerId = "829AF10C-3E33-4291-B5B6-8F7CF12D6A62";
shapes = (
{
closed = 1;
nodes = (
(61,-258,o),
(165,-212,o),
(182,-91,cs),
(272,545,l),
(142,545,l),
(55,-69,ls),
(47,-123,o),
(2,-140,o),
(-66,-115,c),
(-93,-214,l)
);
}
);
width = 302;
}
);
metricRight = idotless;
unicode = 567;
}
{
glyphname = schwa;
layers = (
{
background = {
shapes = (
{
closed = 1;
nodes = (
(166,586,o),
(68,514,o),
(42,406,c),
(130,382,l),
(146,459,o),
(206,508,o),
(284,508,cs),
(390,508,o),
(458,420,o),
(458,282,cs),
(458,147,o),
(393,62,o),
(290,62,cs),
(198,62,o),
(137,132,o),
(136,240,c),
(128,232,l),
(466,232,l),
(466,306,l),
(41,306,l),
(29,116,o),
(130,-14,o),
(290,-14,cs),
(447,-14,o),
(554,107,o),
(554,284,cs),
(554,463,o),
(445,586,o),
(286,586,cs)
);
}
);
};
layerId = m01;
shapes = (
{
closed = 1;
nodes = (
(447,-14,o),
(554,107,o),
(554,284,cs),
(554,463,o),
(444,586,o),
(284,586,cs),
(168,586,o),
(70,519,o),
(42,420,c),
(128,392,l),
(144,464,o),
(204,510,o),
(282,510,cs),
(390,510,o),
(458,421,o),
(458,282,cs),
(458,149,o),
(393,64,o),
(290,64,cs),
(192,64,o),
(130,134,o),
(130,245,c),
(122,237,l),
(466,237,l),
(466,312,l),
(36,312,l),
(20,118,o),
(123,-14,o),
(290,-14,cs)
);
}
);
width = 586;
},
{
layerId = "E9FB66CC-5D7A-47B2-9A25-A0E8EEF5BB81";
shapes = (
{
closed = 1;
nodes = (
(466,-16,o),
(576,106,o),
(576,290,cs),
(576,475,o),
(462,602,o),
(296,602,cs),
(174,602,o),
(72,533,o),
(44,432,c),
(172,384,l),
(184,457,o),
(231,504,o),
(294,504,cs),
(376,504,o),
(428,420,o),
(428,288,cs),
(428,163,o),
(377,83,o),
(296,83,cs),
(223,83,o),
(176,142,o),
(176,236,c),
(168,228,l),
(436,228,l),
(436,315,l),
(32,315,l),
(16,115,o),
(122,-16,o),
(298,-16,cs)
);
}
);
width = 604;
}
);
metricRight = o;
unicode = 601;
}
{
glyphname = gravecomb;
layers = (
{
anchors = (
{
name = _top;
pos = (0,572);
}
);
layerId = m01;
shapes = (
{
closed = 1;
nodes = (
(74,638,l),
(-32,800,l),
(-138,800,l),
(0,638,l)
);
}
);
width = 0;
},
{
layerId = "E9FB66CC-5D7A-47B2-9A25-A0E8EEF5BB81";
width = 314;
}
);
unicode = 768;
userData = {
KernOnSpecialSpacing = {
L = NoKerning;
R = NoKerning;
};
};
}
{
glyphname = acutecomb;
layers = (
{
anchors = (
{
name = _top;
pos = (130,532);
}
);
layerId = m01;
shapes = (
{
closed = 1;
nodes = (
(142,594,l),
(274,744,l),
(176,744,l),
(74,594,l)
);
}
);
width = 348;
},
{
anchors = (
{
name = _top;
pos = (156,545);
}
);
layerId = "E9FB66CC-5D7A-47B2-9A25-A0E8EEF5BB81";
shapes = (
{
closed = 1;
nodes = (
(175,603,l),
(314,755,l),
(162,755,l),
(74,603,l)
);
}
);
width = 388;
},
{
anchors = (
{
name = _top;
pos = (167,532);
}
);
layerId = "980A8AF2-BF11-492D-9410-496A94B21BD3";
shapes = (
{
closed = 1;
nodes = (
(191,594,l),
(341,744,l),
(240,744,l),
(120,594,l)
);
}
);
width = 348;
},
{
anchors = (
{
name = _top;
pos = (175,545);
}
);
layerId = "829AF10C-3E33-4291-B5B6-8F7CF12D6A62";
shapes = (
{
closed = 1;
nodes = (
(225,603,l),
(382,755,l),
(228,755,l),
(121,603,l)
);
}
);
width = 388;
}
);
metricRight = "=|";
unicode = 769;
userData = {
KernOnSpecialSpacing = {
L = NoKerning;
R = NoKerning;
};
};
}
{
glyphname = circumflexcomb;
layers = (
{
anchors = (
{
name = _top;
pos = (225,532);
}
);
layerId = m01;
shapes = (
{
closed = 1;
nodes = (
(150,594,l),
(230,702,l),
(222,702,l),
(301,594,l),
(376,594,l),
(273,744,l),
(181,744,l),
(74,594,l)
);
}
);
width = 450;
},
{
anchors = (
{
name = _top;
pos = (259,545);
}
);
layerId = "E9FB66CC-5D7A-47B2-9A25-A0E8EEF5BB81";
shapes = (
{
closed = 1;
nodes = (
(180,603,l),
(263,706,l),
(255,706,l),
(335,603,l),
(439,603,l),
(331,755,l),
(186,755,l),
(74,603,l)
);
}
);
width = 513;
}
);
metricRight = "=|";
unicode = 770;
userData = {
KernOnSpecialSpacing = {
L = NoKerning;
R = NoKerning;
};
};
}
{
color = 4;
glyphname = tildecomb;
layers = (
{
anchors = (
{
name = _top;
pos = (233,532);
}
);
layerId = m01;
shapes = (
{
closed = 1;
nodes = (
(128,640,o),
(141,662,o),
(167,662,cs),
(207,662,o),
(234,608,o),
(286,608,cs),
(339,608,o),
(381,656,o),
(396,721,c),
(348,728,l),
(337,692,o),
(318,666,o),
(292,666,cs),
(254,666,o),
(225,720,o),
(170,720,cs),
(118,720,o),
(83,675,o),
(65,612,c),
(114,606,l)
);
}
);
width = 464;
},
{
anchors = (
{
name = _top;
pos = (247,561);
}
);
layerId = "E9FB66CC-5D7A-47B2-9A25-A0E8EEF5BB81";
shapes = (
{
closed = 1;
nodes = (
(146,645,o),
(156,662,o),
(184,662,cs),
(227,662,o),
(246,615,o),
(309,615,cs),
(375,615,o),
(416,666,o),
(430,742,c),
(365,755,l),
(352,720,o),
(340,700,o),
(311,700,cs),
(269,700,o),
(249,747,o),
(186,747,cs),
(122,747,o),
(79,698,o),
(66,628,c),
(132,615,l)
);
}
);
width = 494;
}
);
metricRight = "=|";
unicode = 771;
userData = {
KernOnSpecialSpacing = {
L = NoKerning;
R = NoKerning;
};
};
}
{
glyphname = macroncomb;
layers = (
{
anchors = (
{
name = _top;
pos = (0,572);
}
);
layerId = m01;
shapes = (
{
closed = 1;
nodes = (
(146,664,l),
(146,732,l),
(-146,732,l),
(-146,664,l)
);
}
);
width = 0;
},
{
layerId = "E9FB66CC-5D7A-47B2-9A25-A0E8EEF5BB81";
width = 314;
}
);
unicode = 772;
userData = {
KernOnSpecialSpacing = {
L = NoKerning;
R = NoKerning;
};
};
}
{
glyphname = brevecomb;
layers = (
{
anchors = (
{
name = _top;
pos = (0,572);
}
);
layerId = m01;
shapes = (
{
closed = 1;
nodes = (
(80,634,o),
(128,682,o),
(128,762,c),
(67,762,l),
(67,722,o),
(44,700,o),
(0,700,cs),
(-44,700,o),
(-67,722,o),
(-67,762,c),
(-128,762,l),
(-128,682,o),
(-80,634,o),
(0,634,cs)
);
}
);
width = 0;
},
{
layerId = "E9FB66CC-5D7A-47B2-9A25-A0E8EEF5BB81";
width = 314;
}
);
unicode = 774;
userData = {
KernOnSpecialSpacing = {
L = NoKerning;
R = NoKerning;
};
};
}
{
glyphname = dotaccentcomb;
layers = (
{
anchors = (
{
name = _top;
pos = (0,572);
}
);
layerId = m01;
shapes = (
{
closed = 1;
nodes = (
(50,662,l),
(50,764,l),
(-50,764,l),
(-50,662,l)
);
}
);
width = 0;
},
{
anchors = (
{
name = _top;
pos = (0,584);
}
);
layerId = "E9FB66CC-5D7A-47B2-9A25-A0E8EEF5BB81";
shapes = (
{
closed = 1;
nodes = (
(72,643,l),
(72,789,l),
(-72,789,l),
(-72,643,l)
);
}
);
width = 0;
}
);
unicode = 775;
userData = {
KernOnSpecialSpacing = {
L = NoKerning;
R = NoKerning;
};
};
}
{
glyphname = dieresiscomb;
layers = (
{
anchors = (
{
name = _top;
pos = (130,572);
}
);
layerId = m01;
shapes = (
{
closed = 1;
nodes = (
(260,665,l),
(260,757,l),
(168,757,l),
(168,665,l)
);
},
{
closed = 1;
nodes = (
(92,665,l),
(92,757,l),
(0,757,l),
(0,665,l)
);
}
);
width = 260;
},
{
anchors = (
{
name = _top;
pos = (206,586);
}
);
layerId = "E9FB66CC-5D7A-47B2-9A25-A0E8EEF5BB81";
shapes = (
{
closed = 1;
nodes = (
(368,675,l),
(368,809,l),
(236,809,l),
(236,675,l)
);
},
{
closed = 1;
nodes = (
(176,675,l),
(176,809,l),
(44,809,l),
(44,675,l)
);
}
);
width = 412;
}
);
unicode = 776;
userData = {
KernOnSpecialSpacing = {
L = NoKerning;
R = NoKerning;
};
};
}
{
glyphname = ringcomb;
layers = (
{
anchors = (
{
name = _top;
pos = (173,532);
}
);
layerId = m01;
shapes = (
{
closed = 1;
nodes = (
(231,588,o),
(272,621,o),
(272,669,cs),
(272,717,o),
(231,750,o),
(173,750,cs),
(115,750,o),
(74,717,o),
(74,669,cs),
(74,621,o),
(115,588,o),
(173,588,cs)
);
},
{
closed = 1;
nodes = (
(147,624,o),
(130,642,o),
(130,669,cs),
(130,695,o),
(147,713,o),
(173,713,cs),
(199,713,o),
(216,695,o),
(216,669,cs),
(216,642,o),
(199,624,o),
(173,624,cs)
);
}
);
width = 346;
},
{
anchors = (
{
name = _top;
pos = (184,545);
}
);
layerId = "E9FB66CC-5D7A-47B2-9A25-A0E8EEF5BB81";
shapes = (
{
closed = 1;
nodes = (
(249,599,o),
(294,635,o),
(294,688,cs),
(294,741,o),
(249,778,o),
(184,778,cs),
(119,778,o),
(74,741,o),
(74,688,cs),
(74,635,o),
(119,599,o),
(184,599,cs)
);
},
{
closed = 1;
nodes = (
(162,651,o),
(147,665,o),
(147,687,cs),
(147,710,o),
(162,724,o),
(185,724,cs),
(207,724,o),
(221,710,o),
(221,687,cs),
(221,665,o),
(207,651,o),
(185,651,cs)
);
}
);
width = 368;
}
);
metricRight = "=|";
unicode = 778;
userData = {
KernOnSpecialSpacing = {
L = NoKerning;
R = NoKerning;
};
};
}
{
glyphname = hungarumlautcomb;
layers = (
{
anchors = (
{
name = _top;
pos = (180,532);
}
);
layerId = m01;
shapes = (
{
closed = 1;
nodes = (
(258,594,l),
(364,744,l),
(272,744,l),
(196,594,l)
);
},
{
closed = 1;
nodes = (
(138,594,l),
(238,744,l),
(150,744,l),
(74,594,l)
);
}
);
width = 438;
},
{
anchors = (
{
name = _top;
pos = (223,545);
}
);
layerId = "E9FB66CC-5D7A-47B2-9A25-A0E8EEF5BB81";
shapes = (
{
closed = 1;
nodes = (
(316,603,l),
(430,755,l),
(301,755,l),
(220,603,l)
);
},
{
closed = 1;
nodes = (
(169,603,l),
(268,755,l),
(141,755,l),
(74,603,l)
);
}
);
width = 504;
},
{
anchors = (
{
name = _top;
pos = (254,532);
}
);
layerId = "980A8AF2-BF11-492D-9410-496A94B21BD3";
shapes = (
{
closed = 1;
nodes = (
(341,594,l),
(468,744,l),
(376,744,l),
(279,594,l)
);
},
{
closed = 1;
nodes = (
(221,594,l),
(342,744,l),
(254,744,l),
(157,594,l)
);
}
);
width = 625;
},
{
anchors = (
{
name = _top;
pos = (300,545);
}
);
layerId = "829AF10C-3E33-4291-B5B6-8F7CF12D6A62";
shapes = (
{
closed = 1;
nodes = (
(401,603,l),
(536,755,l),
(407,755,l),
(305,603,l)
);
},
{
closed = 1;
nodes = (
(254,603,l),
(374,755,l),
(247,755,l),
(159,603,l)
);
}
);
width = 695;
}
);
metricRight = "=|";
unicode = 779;
userData = {
KernOnSpecialSpacing = {
L = NoKerning;
R = NoKerning;
};
};
}
{
glyphname = caroncomb;
layers = (
{
anchors = (
{
name = _top;
pos = (244,572);
}
);
layerId = m01;
shapes = (
{
closed = 1;
nodes = (
(294,638,l),
(406,800,l),
(322,800,l),
(246,690,l),
(162,800,l),
(80,800,l),
(194,638,l)
);
}
);
width = 486;
},
{
anchors = (
{
name = _top;
pos = (278,586);
}
);
layerId = "E9FB66CC-5D7A-47B2-9A25-A0E8EEF5BB81";
shapes = (
{
closed = 1;
nodes = (
(358,648,l),
(474,812,l),
(356,812,l),
(278,708,l),
(196,812,l),
(80,812,l),
(198,648,l)
);
}
);
width = 554;
}
);
metricRight = "=|";
unicode = 780;
userData = {
KernOnSpecialSpacing = {
L = NoKerning;
R = NoKerning;
};
};
}
{
glyphname = commaturnedabovecomb;
layers = (
{
anchors = (
{
name = _top;
pos = (158,572);
}
);
layerId = m01;
shapes = (
{
angle = 180;
pos = (158,586);
ref = commaaccentcomb;
}
);
width = 158;
},
{
anchors = (
{
name = _top;
pos = (109,572);
}
);
layerId = "E9FB66CC-5D7A-47B2-9A25-A0E8EEF5BB81";
shapes = (
{
closed = 1;
nodes = (
(47,886,o),
(0,830,o),
(0,758,cs),
(0,639,l),
(129,639,l),
(129,769,l),
(64,769,l),
(64,773,ls),
(64,811,o),
(91,839,o),
(141,849,c),
(122,903,l)
);
}
);
width = 141;
}
);
unicode = 786;
userData = {
KernOnSpecialSpacing = {
L = NoKerning;
R = NoKerning;
};
};
}
{
glyphname = commaaccentcomb;
layers = (
{
anchors = (
{
name = _bottom;
}
);
layerId = m01;
shapes = (
{
closed = 1;
nodes = (
(13,-250,o),
(52,-206,o),
(52,-148,cs),
(52,-50,l),
(-52,-50,l),
(-52,-152,l),
(8,-152,l),
(8,-156,ls),
(8,-189,o),
(-15,-214,o),
(-56,-218,c),
(-48,-260,l)
);
}
);
width = 0;
},
{
layerId = "E9FB66CC-5D7A-47B2-9A25-A0E8EEF5BB81";
width = 314;
}
);
unicode = 806;
userData = {
KernOnSpecialSpacing = {
L = NoKerning;
R = NoKerning;
};
};
}
{
glyphname = cedillacomb;
layers = (
{
anchors = (
{
name = _bottom;
}
);
layerId = m01;
shapes = (
{
closed = 1;
nodes = (
(92,-224,o),
(92,-152,cs),
(92,-104,o),
(48,-68,o),
(-12,-60,c),
(-4,-76,l),
(32,0,l),
(-24,0,l),
(-68,-88,l),
(-12,-96,o),
(24,-112,o),
(24,-140,cs),
(24,-170,o),
(-20,-188,o),
(-108,-156,c),
(-120,-216,l),
(-4,-260,o)
);
}
);
width = 0;
},
{
layerId = "E9FB66CC-5D7A-47B2-9A25-A0E8EEF5BB81";
width = 300;
}
);
unicode = 807;
userData = {
KernOnSpecialSpacing = {
L = NoKerning;
R = NoKerning;
};
};
}
{
glyphname = ogonekcomb;
layers = (
{
anchors = (
{
name = _ogonek;
pos = (142,0);
}
);
layerId = m01;
shapes = (
{
closed = 1;
nodes = (
(184,-168,l),
(125,-202,o),
(76,-182,o),
(76,-132,cs),
(76,-92,o),
(104,-43,o),
(154,-12,c),
(110,0,l),
(45,-38,o),
(0,-98,o),
(0,-156,cs),
(0,-244,o),
(105,-272,o),
(202,-226,c)
);
}
);
width = 202;
},
{
anchors = (
{
name = _ogonek;
pos = (276,0);
}
);
layerId = "E9FB66CC-5D7A-47B2-9A25-A0E8EEF5BB81";
shapes = (
{
closed = 1;
nodes = (
(318,-170,l),
(259,-204,o),
(205,-184,o),
(205,-134,cs),
(205,-94,o),
(238,-43,o),
(288,-12,c),
(197,-12,l),
(142,-50,o),
(99,-110,o),
(99,-168,cs),
(99,-256,o),
(199,-304,o),
(336,-228,c)
);
}
);
width = 414;
}
);
unicode = 808;
userData = {
KernOnSpecialSpacing = {
L = NoKerning;
R = NoKerning;
};
};
}
{
export = 0;
glyphname = strokeshortcomb;
layers = (
{
anchors = (
{
name = _center;
pos = (214,340);
}
);
layerId = m01;
shapes = (
{
closed = 1;
nodes = (
(354,306,l),
(354,374,l),
(74,374,l),
(74,306,l)
);
}
);
width = 428;
},
{
anchors = (
{
name = _center;
pos = (242,340);
}
);
layerId = "E9FB66CC-5D7A-47B2-9A25-A0E8EEF5BB81";
shapes = (
{
closed = 1;
nodes = (
(409,296,l),
(409,385,l),
(74,385,l),
(74,296,l)
);
}
);
width = 483;
}
);
metricRight = "=|";
unicode = 821;
}
{
export = 0;
glyphname = slashshortcomb;
layers = (
{
anchors = (
{
name = _center;
pos = (322,266);
}
);
layerId = m01;
shapes = (
{
closed = 1;
nodes = (
(569,510,l),
(515,554,l),
(74,22,l),
(128,-22,l)
);
}
);
width = 643;
},
{
anchors = (
{
name = _center;
pos = (337,272);
}
);
layerId = "E9FB66CC-5D7A-47B2-9A25-A0E8EEF5BB81";
shapes = (
{
closed = 1;
nodes = (
(599,517,l),
(521,580,l),
(74,26,l),
(153,-37,l)
);
}
);
width = 673;
}
);
metricRight = "=|";
unicode = 823;
}
{
export = 0;
glyphname = slashlongcomb;
layers = (
{
anchors = (
{
name = _center;
pos = (387,339);
}
);
layerId = m01;
shapes = (
{
closed = 1;
nodes = (
(700,628,l),
(644,680,l),
(74,50,l),
(130,-2,l)
);
}
);
width = 774;
},
{
anchors = (
{
name = _center;
pos = (400,346);
}
);
layerId = "E9FB66CC-5D7A-47B2-9A25-A0E8EEF5BB81";
shapes = (
{
closed = 1;
nodes = (
(726,621,l),
(638,703,l),
(74,71,l),
(162,-11,l)
);
}
);
width = 800;
}
);
metricRight = "=|";
unicode = 824;
}
{
glyphname = "ve-cy";
layers = (
{
layerId = m01;
shapes = (
{
closed = 1;
nodes = (
(323,0,ls),
(436,0,o),
(508,57,o),
(508,145,cs),
(508,228,o),
(447,282,o),
(351,283,c),
(351,277,l),
(433,283,o),
(486,330,o),
(486,401,cs),
(486,482,o),
(417,533,o),
(311,533,cs),
(70,533,l),
(70,0,l)
);
},
{
closed = 1;
nodes = (
(156,474,l),
(149,468,l),
(298,468,ls),
(360,468,o),
(398,438,o),
(398,388,cs),
(398,338,o),
(361,307,o),
(297,307,cs),
(149,307,l),
(149,242,l),
(315,242,ls),
(378,242,o),
(416,209,o),
(416,154,cs),
(416,100,o),
(378,66,o),
(312,66,cs),
(149,66,l),
(156,61,l)
);
}
);
userData = {
RMXScaler = {
height = 78;
weight = -8;
width = 86;
};
com.hugojourdan.ColorFlow = {
"0" = 0;
"1" = 0;
"10" = 0;
"11" = 0;
"2" = 0;
"3" = 0;
"4" = 0;
"5" = 0;
"6" = 0;
"7" = 0;
"8" = 0;
"9" = 0;
};
};
width = 544;
},
{
layerId = "980A8AF2-BF11-492D-9410-496A94B21BD3";
shapes = (
{
closed = 1;
nodes = (
(285,0,ls),
(404,0,o),
(488,69,o),
(488,166,cs),
(488,238,o),
(436,282,o),
(351,283,c),
(350,277,l),
(440,283,o),
(501,343,o),
(501,420,cs),
(501,490,o),
(440,533,o),
(345,533,cs),
(109,533,l),
(36,0,l)
);
},
{
closed = 1;
nodes = (
(186,474,l),
(179,468,l),
(323,468,ls),
(377,468,o),
(411,443,o),
(411,400,cs),
(411,345,o),
(365,307,o),
(300,307,cs),
(157,307,l),
(148,242,l),
(309,242,ls),
(364,242,o),
(396,215,o),
(396,168,cs),
(396,107,o),
(350,66,o),
(281,66,cs),
(124,66,l),
(130,61,l)
);
}
);
userData = {
RMXScaler = {
height = 78;
weight = -8;
width = 87;
};
com.hugojourdan.ColorFlow = {
"0" = 0;
"1" = 0;
"10" = 0;
"11" = 0;
"2" = 0;
"3" = 0;
"4" = 0;
"5" = 0;
"6" = 0;
"7" = 0;
"8" = 0;
"9" = 0;
};
};
width = 540;
},
{
layerId = "E9FB66CC-5D7A-47B2-9A25-A0E8EEF5BB81";
shapes = (
{
closed = 1;
nodes = (
(356,0,ls),
(471,0,o),
(551,61,o),
(551,151,cs),
(551,237,o),
(479,292,o),
(376,291,c),
(376,286,l),
(467,290,o),
(526,342,o),
(526,414,cs),
(526,494,o),
(450,544,o),
(346,544,cs),
(64,544,l),
(64,0,l)
);
},
{
closed = 1;
nodes = (
(196,464,l),
(189,458,l),
(319,458,ls),
(364,458,o),
(395,432,o),
(395,392,cs),
(395,354,o),
(365,324,o),
(320,324,cs),
(189,324,l),
(189,240,l),
(331,240,ls),
(381,240,o),
(414,212,o),
(414,163,cs),
(414,118,o),
(381,86,o),
(330,86,cs),
(189,86,l),
(196,79,l)
);
}
);
userData = {
RMXScaler = {
height = 77;
weight = -10;
width = 90;
};
com.hugojourdan.ColorFlow = {
"0" = 0;
"1" = 0;
"10" = 0;
"11" = 0;
"2" = 0;
"3" = 0;
"4" = 0;
"5" = 0;
"6" = 0;
"7" = 0;
"8" = 0;
"9" = 0;
};
};
width = 579;
},
{
layerId = "829AF10C-3E33-4291-B5B6-8F7CF12D6A62";
shapes = (
{
closed = 1;
nodes = (
(317,0,ls),
(441,0,o),
(537,74,o),
(537,168,cs),
(537,247,o),
(469,291,o),
(376,290,c),
(376,285,l),
(471,288,o),
(543,349,o),
(543,429,cs),
(543,502,o),
(474,544,o),
(380,544,cs),
(104,544,l),
(29,0,l)
);
},
{
closed = 1;
nodes = (
(224,464,l),
(216,458,l),
(335,458,ls),
(374,458,o),
(404,436,o),
(404,399,cs),
(404,357,o),
(370,324,o),
(320,324,cs),
(199,324,l),
(186,240,l),
(319,240,ls),
(364,240,o),
(397,214,o),
(397,169,cs),
(397,119,o),
(355,86,o),
(300,86,cs),
(168,86,l),
(175,79,l)
);
}
);
userData = {
RMXScaler = {
height = 77;
weight = -10;
width = 92;
};
com.hugojourdan.ColorFlow = {
"0" = 0;
"1" = 0;
"10" = 0;
"11" = 0;
"2" = 0;
"3" = 0;
"4" = 0;
"5" = 0;
"6" = 0;
"7" = 0;
"8" = 0;
"9" = 0;
};
};
width = 579;
}
);
unicode = 1074;
userData = {
RMXScaler = {
source = B;
};
};
}
{
color = 8;
glyphname = "ee-nko";
layers = (
{
layerId = m01;
shapes = (
{
closed = 1;
nodes = (
(429,-10,o),
(535,81,o),
(535,212,cs),
(535,343,o),
(429,433,o),
(276,433,cs),
(123,433,o),
(17,343,o),
(17,212,cs),
(17,80,o),
(124,-10,o),
(276,-10,cs)
);
},
{
closed = 1;
nodes = (
(173,65,o),
(107,121,o),
(107,213,cs),
(107,300,o),
(172,358,o),
(276,358,cs),
(380,358,o),
(445,300,o),
(445,213,cs),
(445,123,o),
(379,65,o),
(276,65,cs)
);
}
);
userData = {
com.hugojourdan.ColorFlow = {
"0" = 0;
"1" = 0;
"10" = 0;
"11" = 0;
"2" = 0;
"3" = 0;
"4" = 0;
"5" = 0;
"6" = 0;
"7" = 0;
"8" = 0;
"9" = 0;
};
};
width = 552;
},
{
layerId = "980A8AF2-BF11-492D-9410-496A94B21BD3";
userData = {
com.hugojourdan.ColorFlow = {
"0" = 0;
"1" = 0;
"10" = 0;
"11" = 0;
"2" = 0;
"3" = 0;
"4" = 0;
"5" = 0;
"6" = 0;
"7" = 0;
"8" = 0;
"9" = 0;
};
};
width = 486;
},
{
layerId = "E9FB66CC-5D7A-47B2-9A25-A0E8EEF5BB81";
shapes = (
{
closed = 1;
nodes = (
(421,-12,o),
(522,74,o),
(522,197,cs),
(522,319,o),
(421,403,o),
(274,403,cs),
(127,403,o),
(26,319,o),
(26,197,cs),
(26,73,o),
(128,-12,o),
(274,-12,cs)
);
},
{
closed = 1;
nodes = (
(208,92,o),
(167,132,o),
(167,198,cs),
(167,260,o),
(208,302,o),
(274,302,cs),
(340,302,o),
(381,260,o),
(381,198,cs),
(381,133,o),
(339,92,o),
(274,92,cs)
);
}
);
userData = {
com.hugojourdan.ColorFlow = {
"0" = 0;
"1" = 0;
"10" = 0;
"11" = 0;
"2" = 0;
"3" = 0;
"4" = 0;
"5" = 0;
"6" = 0;
"7" = 0;
"8" = 0;
"9" = 0;
};
};
width = 548;
},
{
layerId = "829AF10C-3E33-4291-B5B6-8F7CF12D6A62";
userData = {
com.hugojourdan.ColorFlow = {
"0" = 0;
"1" = 0;
"10" = 0;
"11" = 0;
"2" = 0;
"3" = 0;
"4" = 0;
"5" = 0;
"6" = 0;
"7" = 0;
"8" = 0;
"9" = 0;
};
};
width = 490;
}
);
unicode = 1995;
}
{
color = 9;
glyphname = "i-nko";
layers = (
{
layerId = m01;
shapes = (
{
closed = 1;
nodes = (
(309,0,l),
(309,380,l),
(480,712,l),
(385,712,l),
(247,430,l),
(285,431,l),
(138,712,l),
(40,712,l),
(219,380,l),
(219,0,l)
);
}
);
userData = {
com.hugojourdan.ColorFlow = {
"0" = 0;
"1" = 0;
"10" = 0;
"11" = 0;
"2" = 0;
"3" = 0;
"4" = 0;
"5" = 0;
"6" = 0;
"7" = 0;
"8" = 0;
"9" = 0;
};
};
width = 520;
},
{
layerId = "980A8AF2-BF11-492D-9410-496A94B21BD3";
userData = {
com.hugojourdan.ColorFlow = {
"0" = 0;
"1" = 0;
"10" = 0;
"11" = 0;
"2" = 0;
"3" = 0;
"4" = 0;
"5" = 0;
"6" = 0;
"7" = 0;
"8" = 0;
"9" = 0;
};
};
width = 600;
},
{
layerId = "E9FB66CC-5D7A-47B2-9A25-A0E8EEF5BB81";
userData = {
com.hugojourdan.ColorFlow = {
"0" = 0;
"1" = 0;
"10" = 0;
"11" = 0;
"2" = 0;
"3" = 0;
"4" = 0;
"5" = 0;
"6" = 0;
"7" = 0;
"8" = 0;
"9" = 0;
};
};
width = 600;
},
{
layerId = "829AF10C-3E33-4291-B5B6-8F7CF12D6A62";
userData = {
com.hugojourdan.ColorFlow = {
"0" = 0;
"1" = 0;
"10" = 0;
"11" = 0;
"2" = 0;
"3" = 0;
"4" = 0;
"5" = 0;
"6" = 0;
"7" = 0;
"8" = 0;
"9" = 0;
};
};
width = 600;
},
{
associatedMasterId = m01;
layerId = "1450842D-8636-4C2E-864B-1B0C4463751C";
name = "Apr 15, 25 at 10:54";
shapes = (
{
closed = 1;
nodes = (
(321,0,l),
(321,391,l),
(231,391,l),
(231,0,l)
);
},
{
closed = 1;
nodes = (
(322,390,l),
(502,712,l),
(411,712,l),
(266,450,l),
(294,450,l),
(141,712,l),
(42,712,l),
(230,390,l)
);
}
);
userData = {
com.hugojourdan.ColorFlow = {
"0" = 0;
"1" = 0;
"10" = 0;
"11" = 0;
"2" = 0;
"3" = 0;
"4" = 0;
"5" = 0;
"6" = 0;
"7" = 0;
"8" = 0;
"9" = 0;
};
};
width = 600;
}
);
unicode = 1996;
}
{
color = 8;
glyphname = "e-nko";
layers = (
{
layerId = m01;
shapes = (
{
closed = 1;
nodes = (
(149,0,l),
(307,296,l),
(310,296,l),
(470,0,l),
(583,0,l),
(359,390,l),
(259,390,l),
(37,0,l)
);
}
);
userData = {
com.hugojourdan.ColorFlow = {
"0" = 0;
"1" = 0;
"10" = 0;
"11" = 0;
"2" = 0;
"3" = 0;
"4" = 0;
"5" = 0;
"6" = 0;
"7" = 0;
"8" = 0;
"9" = 0;
};
};
width = 600;
},
{
layerId = "980A8AF2-BF11-492D-9410-496A94B21BD3";
userData = {
com.hugojourdan.ColorFlow = {
"0" = 0;
"1" = 0;
"10" = 0;
"11" = 0;
"2" = 0;
"3" = 0;
"4" = 0;
"5" = 0;
"6" = 0;
"7" = 0;
"8" = 0;
"9" = 0;
};
};
width = 600;
},
{
layerId = "E9FB66CC-5D7A-47B2-9A25-A0E8EEF5BB81";
shapes = (
{
closed = 1;
nodes = (
(197,0,l),
(311,255,l),
(323,255,l),
(443,0,l),
(624,0,l),
(396,403,l),
(242,403,l),
(24,0,l)
);
}
);
userData = {
com.hugojourdan.ColorFlow = {
"0" = 0;
"1" = 0;
"10" = 0;
"11" = 0;
"2" = 0;
"3" = 0;
"4" = 0;
"5" = 0;
"6" = 0;
"7" = 0;
"8" = 0;
"9" = 0;
};
};
width = 600;
},
{
layerId = "829AF10C-3E33-4291-B5B6-8F7CF12D6A62";
userData = {
com.hugojourdan.ColorFlow = {
"0" = 0;
"1" = 0;
"10" = 0;
"11" = 0;
"2" = 0;
"3" = 0;
"4" = 0;
"5" = 0;
"6" = 0;
"7" = 0;
"8" = 0;
"9" = 0;
};
};
width = 600;
}
);
unicode = 1997;
}
{
color = 8;
glyphname = "u-nko";
layers = (
{
layerId = m01;
shapes = (
{
closed = 1;
nodes = (
(421,-8,o),
(509,53,o),
(509,221,cs),
(509,394,l),
(422,394,l),
(422,221,ls),
(422,107,o),
(370,77,o),
(283,77,cs),
(197,77,o),
(145,107,o),
(145,221,cs),
(145,394,l),
(58,394,l),
(58,221,ls),
(58,52,o),
(147,-8,o),
(284,-8,cs)
);
}
);
userData = {
com.hugojourdan.ColorFlow = {
"0" = 0;
"1" = 0;
"10" = 0;
"11" = 0;
"2" = 0;
"3" = 0;
"4" = 0;
"5" = 0;
"6" = 0;
"7" = 0;
"8" = 0;
"9" = 0;
};
};
width = 567;
},
{
layerId = "980A8AF2-BF11-492D-9410-496A94B21BD3";
userData = {
com.hugojourdan.ColorFlow = {
"0" = 0;
"1" = 0;
"10" = 0;
"11" = 0;
"2" = 0;
"3" = 0;
"4" = 0;
"5" = 0;
"6" = 0;
"7" = 0;
"8" = 0;
"9" = 0;
};
};
width = 600;
},
{
layerId = "E9FB66CC-5D7A-47B2-9A25-A0E8EEF5BB81";
shapes = (
{
closed = 1;
nodes = (
(450,-8,o),
(547,53,o),
(547,217,cs),
(547,402,l),
(417,402,l),
(417,229,ls),
(417,128,o),
(373,112,o),
(303,112,cs),
(232,112,o),
(189,129,o),
(189,229,cs),
(189,402,l),
(57,402,l),
(57,217,ls),
(57,52,o),
(153,-8,o),
(302,-8,cs)
);
}
);
userData = {
com.hugojourdan.ColorFlow = {
"0" = 0;
"1" = 0;
"10" = 0;
"11" = 0;
"2" = 0;
"3" = 0;
"4" = 0;
"5" = 0;
"6" = 0;
"7" = 0;
"8" = 0;
"9" = 0;
};
};
width = 600;
},
{
layerId = "829AF10C-3E33-4291-B5B6-8F7CF12D6A62";
userData = {
com.hugojourdan.ColorFlow = {
"0" = 0;
"1" = 0;
"10" = 0;
"11" = 0;
"2" = 0;
"3" = 0;
"4" = 0;
"5" = 0;
"6" = 0;
"7" = 0;
"8" = 0;
"9" = 0;
};
};
width = 600;
}
);
unicode = 1998;
}
{
color = 8;
glyphname = "oo-nko";
layers = (
{
layerId = m01;
shapes = (
{
closed = 1;
nodes = (
(500,0,l),
(498,389,l),
(407,389,l),
(407,0,l)
);
},
{
closed = 1;
nodes = (
(115,304,l),
(490,304,l),
(490,389,l),
(115,389,l)
);
},
{
closed = 1;
nodes = (
(115,0,l),
(490,0,l),
(490,85,l),
(115,85,l)
);
}
);
userData = {
com.hugojourdan.ColorFlow = {
"0" = 0;
"1" = 0;
"10" = 0;
"11" = 0;
"2" = 0;
"3" = 0;
"4" = 0;
"5" = 0;
"6" = 0;
"7" = 0;
"8" = 0;
"9" = 0;
};
};
width = 600;
},
{
layerId = "980A8AF2-BF11-492D-9410-496A94B21BD3";
userData = {
com.hugojourdan.ColorFlow = {
"0" = 0;
"1" = 0;
"10" = 0;
"11" = 0;
"2" = 0;
"3" = 0;
"4" = 0;
"5" = 0;
"6" = 0;
"7" = 0;
"8" = 0;
"9" = 0;
};
};
width = 600;
},
{
layerId = "E9FB66CC-5D7A-47B2-9A25-A0E8EEF5BB81";
userData = {
com.hugojourdan.ColorFlow = {
"0" = 0;
"1" = 0;
"10" = 0;
"11" = 0;
"2" = 0;
"3" = 0;
"4" = 0;
"5" = 0;
"6" = 0;
"7" = 0;
"8" = 0;
"9" = 0;
};
};
width = 600;
},
{
layerId = "829AF10C-3E33-4291-B5B6-8F7CF12D6A62";
userData = {
com.hugojourdan.ColorFlow = {
"0" = 0;
"1" = 0;
"10" = 0;
"11" = 0;
"2" = 0;
"3" = 0;
"4" = 0;
"5" = 0;
"6" = 0;
"7" = 0;
"8" = 0;
"9" = 0;
};
};
width = 600;
}
);
unicode = 1999;
}
{
glyphname = "o-nko";
layers = (
{
layerId = m01;
shapes = (
{
closed = 1;
nodes = (
(365,0,l),
(365,352,l),
(275,352,l),
(275,0,l)
);
},
{
closed = 1;
nodes = (
(552,90,l),
(96,90,l),
(96,0,l),
(552,0,l)
);
},
{
closed = 1;
nodes = (
(459,320,o),
(555,403,o),
(555,522,cs),
(555,641,o),
(459,723,o),
(321,723,cs),
(183,723,o),
(87,641,o),
(87,522,cs),
(87,402,o),
(184,320,o),
(321,320,cs)
);
},
{
closed = 1;
nodes = (
(234,395,o),
(178,444,o),
(178,523,cs),
(178,600,o),
(233,651,o),
(321,651,cs),
(409,651,o),
(464,600,o),
(464,523,cs),
(464,445,o),
(408,395,o),
(321,395,cs)
);
}
);
userData = {
com.hugojourdan.ColorFlow = {
"0" = 0;
"1" = 0;
"10" = 0;
"11" = 0;
"2" = 0;
"3" = 0;
"4" = 0;
"5" = 0;
"6" = 0;
"7" = 0;
"8" = 0;
"9" = 0;
};
};
width = 600;
},
{
layerId = "980A8AF2-BF11-492D-9410-496A94B21BD3";
userData = {
com.hugojourdan.ColorFlow = {
"0" = 0;
"1" = 0;
"10" = 0;
"11" = 0;
"2" = 0;
"3" = 0;
"4" = 0;
"5" = 0;
"6" = 0;
"7" = 0;
"8" = 0;
"9" = 0;
};
};
width = 600;
},
{
layerId = "E9FB66CC-5D7A-47B2-9A25-A0E8EEF5BB81";
userData = {
com.hugojourdan.ColorFlow = {
"0" = 0;
"1" = 0;
"10" = 0;
"11" = 0;
"2" = 0;
"3" = 0;
"4" = 0;
"5" = 0;
"6" = 0;
"7" = 0;
"8" = 0;
"9" = 0;
};
};
width = 600;
},
{
layerId = "829AF10C-3E33-4291-B5B6-8F7CF12D6A62";
userData = {
com.hugojourdan.ColorFlow = {
"0" = 0;
"1" = 0;
"10" = 0;
"11" = 0;
"2" = 0;
"3" = 0;
"4" = 0;
"5" = 0;
"6" = 0;
"7" = 0;
"8" = 0;
"9" = 0;
};
};
width = 600;
}
);
unicode = 2000;
}
{
color = 9;
glyphname = "n-nko";
layers = (
{
anchors = (
{
name = bottom;
pos = (300,0);
},
{
name = top;
pos = (300,712);
}
);
layerId = m01;
shapes = (
{
closed = 1;
nodes = (
(535,0,l),
(535,492,l),
(198,492,ls),
(158,492,o),
(131,522,o),
(131,564,cs),
(131,606,o),
(158,632,o),
(196,632,cs),
(238,632,o),
(265,605,o),
(265,559,cs),
(265,271,l),
(351,271,l),
(351,567,ls),
(351,657,o),
(288,713,o),
(196,713,cs),
(103,713,o),
(41,653,o),
(41,564,cs),
(41,473,o),
(105,412,o),
(201,412,cs),
(449,412,l),
(449,0,l)
);
}
);
userData = {
com.hugojourdan.ColorFlow = {
"0" = 0;
"1" = 0;
"10" = 0;
"11" = 0;
"2" = 0;
"3" = 0;
"4" = 0;
"5" = 0;
"6" = 0;
"7" = 0;
"8" = 0;
"9" = 0;
};
};
width = 600;
},
{
anchors = (
{
name = bottom;
pos = (263,0);
},
{
name = top;
pos = (363,712);
}
);
layerId = "980A8AF2-BF11-492D-9410-496A94B21BD3";
userData = {
com.hugojourdan.ColorFlow = {
"0" = 0;
"1" = 0;
"10" = 0;
"11" = 0;
"2" = 0;
"3" = 0;
"4" = 0;
"5" = 0;
"6" = 0;
"7" = 0;
"8" = 0;
"9" = 0;
};
};
width = 600;
},
{
anchors = (
{
name = bottom;
pos = (300,0);
},
{
name = top;
pos = (300,712);
}
);
layerId = "E9FB66CC-5D7A-47B2-9A25-A0E8EEF5BB81";
userData = {
com.hugojourdan.ColorFlow = {
"0" = 0;
"1" = 0;
"10" = 0;
"11" = 0;
"2" = 0;
"3" = 0;
"4" = 0;
"5" = 0;
"6" = 0;
"7" = 0;
"8" = 0;
"9" = 0;
};
};
width = 600;
},
{
anchors = (
{
name = bottom;
pos = (262,0);
},
{
name = top;
pos = (362,712);
}
);
layerId = "829AF10C-3E33-4291-B5B6-8F7CF12D6A62";
userData = {
com.hugojourdan.ColorFlow = {
"0" = 0;
"1" = 0;
"10" = 0;
"11" = 0;
"2" = 0;
"3" = 0;
"4" = 0;
"5" = 0;
"6" = 0;
"7" = 0;
"8" = 0;
"9" = 0;
};
};
width = 600;
},
{
associatedMasterId = m01;
layerId = "0BB7F906-4A38-4FFC-88BA-DEE98FE37A27";
name = "Apr 15, 25 at 10:39";
shapes = (
{
closed = 1;
nodes = (
(505,0,l),
(505,532,l),
(415,532,l),
(415,0,l)
);
},
{
closed = 1;
nodes = (
(130,451,l),
(453,451,l),
(453,532,l),
(130,532,l)
);
},
{
closed = 1;
nodes = (
(131,451,l),
(131,713,l),
(41,713,l),
(41,451,l)
);
},
{
closed = 1;
nodes = (
(130,632,l),
(313,632,l),
(313,713,l),
(130,713,l)
);
},
{
closed = 1;
nodes = (
(321,321,l),
(321,713,l),
(231,713,l),
(231,321,l)
);
}
);
userData = {
com.hugojourdan.ColorFlow = {
"0" = 0;
"1" = 0;
"10" = 0;
"11" = 0;
"2" = 0;
"3" = 0;
"4" = 0;
"5" = 0;
"6" = 0;
"7" = 0;
"8" = 0;
"9" = 0;
};
};
width = 600;
}
);
unicode = 2002;
}
{
color = 9;
glyphname = "ba-nko";
layers = (
{
anchors = (
{
name = bottom;
pos = (182,0);
},
{
name = top;
pos = (182,712);
}
);
layerId = m01;
shapes = (
{
closed = 1;
nodes = (
(136,0,l),
(136,712,l),
(50,712,l),
(50,0,l)
);
},
{
closed = 1;
nodes = (
(81,632,l),
(313,632,l),
(313,712,l),
(81,712,l)
);
},
{
closed = 1;
nodes = (
(81,406,l),
(333,406,l),
(333,486,l),
(81,486,l)
);
}
);
userData = {
com.hugojourdan.ColorFlow = {
"0" = 0;
"1" = 0;
"10" = 0;
"11" = 0;
"2" = 0;
"3" = 0;
"4" = 0;
"5" = 0;
"6" = 0;
"7" = 0;
"8" = 0;
"9" = 0;
};
};
width = 363;
},
{
anchors = (
{
name = bottom;
pos = (263,0);
},
{
name = top;
pos = (363,712);
}
);
layerId = "980A8AF2-BF11-492D-9410-496A94B21BD3";
userData = {
com.hugojourdan.ColorFlow = {
"0" = 0;
"1" = 0;
"10" = 0;
"11" = 0;
"2" = 0;
"3" = 0;
"4" = 0;
"5" = 0;
"6" = 0;
"7" = 0;
"8" = 0;
"9" = 0;
};
};
width = 600;
},
{
anchors = (
{
name = bottom;
pos = (300,0);
},
{
name = top;
pos = (300,712);
}
);
layerId = "E9FB66CC-5D7A-47B2-9A25-A0E8EEF5BB81";
userData = {
com.hugojourdan.ColorFlow = {
"0" = 0;
"1" = 0;
"10" = 0;
"11" = 0;
"2" = 0;
"3" = 0;
"4" = 0;
"5" = 0;
"6" = 0;
"7" = 0;
"8" = 0;
"9" = 0;
};
};
width = 600;
},
{
anchors = (
{
name = bottom;
pos = (262,0);
},
{
name = top;
pos = (362,712);
}
);
layerId = "829AF10C-3E33-4291-B5B6-8F7CF12D6A62";
userData = {
com.hugojourdan.ColorFlow = {
"0" = 0;
"1" = 0;
"10" = 0;
"11" = 0;
"2" = 0;
"3" = 0;
"4" = 0;
"5" = 0;
"6" = 0;
"7" = 0;
"8" = 0;
"9" = 0;
};
};
width = 600;
},
{
associatedMasterId = m01;
layerId = "32904655-B3AC-45B6-B8C6-169FA5286B15";
name = "Apr 15, 25 at 11:35";
shapes = (
{
closed = 1;
nodes = (
(175,0,l),
(175,542,ls),
(175,599,o),
(209,629,o),
(272,629,cs),
(348,629,l),
(348,712,l),
(282,712,ls),
(130,712,o),
(85,667,o),
(85,525,cs),
(85,0,l)
);
},
{
closed = 1;
nodes = (
(116,403,l),
(388,403,l),
(388,486,l),
(116,486,l)
);
}
);
userData = {
com.hugojourdan.ColorFlow = {
"0" = 0;
"1" = 0;
"10" = 0;
"11" = 0;
"2" = 0;
"3" = 0;
"4" = 0;
"5" = 0;
"6" = 0;
"7" = 0;
"8" = 0;
"9" = 0;
};
};
width = 600;
}
);
unicode = 2003;
}
{
color = 9;
glyphname = "pa-nko";
layers = (
{
layerId = m01;
shapes = (
{
closed = 1;
nodes = (
(343,712,l),
(253,712,l),
(253,0,l),
(343,0,l)
);
},
{
closed = 1;
nodes = (
(80,712,l),
(80,629,l),
(312,629,l),
(312,712,l)
);
},
{
closed = 1;
nodes = (
(50,486,l),
(50,403,l),
(312,403,l),
(312,486,l)
);
}
);
userData = {
com.hugojourdan.ColorFlow = {
"0" = 0;
"1" = 0;
"10" = 0;
"11" = 0;
"2" = 0;
"3" = 0;
"4" = 0;
"5" = 0;
"6" = 0;
"7" = 0;
"8" = 0;
"9" = 0;
};
};
width = 403;
},
{
layerId = "980A8AF2-BF11-492D-9410-496A94B21BD3";
userData = {
com.hugojourdan.ColorFlow = {
"0" = 0;
"1" = 0;
"10" = 0;
"11" = 0;
"2" = 0;
"3" = 0;
"4" = 0;
"5" = 0;
"6" = 0;
"7" = 0;
"8" = 0;
"9" = 0;
};
};
width = 600;
},
{
layerId = "E9FB66CC-5D7A-47B2-9A25-A0E8EEF5BB81";
userData = {
com.hugojourdan.ColorFlow = {
"0" = 0;
"1" = 0;
"10" = 0;
"11" = 0;
"2" = 0;
"3" = 0;
"4" = 0;
"5" = 0;
"6" = 0;
"7" = 0;
"8" = 0;
"9" = 0;
};
};
width = 600;
},
{
layerId = "829AF10C-3E33-4291-B5B6-8F7CF12D6A62";
userData = {
com.hugojourdan.ColorFlow = {
"0" = 0;
"1" = 0;
"10" = 0;
"11" = 0;
"2" = 0;
"3" = 0;
"4" = 0;
"5" = 0;
"6" = 0;
"7" = 0;
"8" = 0;
"9" = 0;
};
};
width = 600;
}
);
unicode = 2004;
}
{
glyphname = "ta-nko";
layers = (
{
layerId = m01;
shapes = (
{
closed = 1;
nodes = (
(86,46,o),
(175,-14,o),
(299,-14,cs),
(425,-14,o),
(513,69,o),
(513,188,cs),
(513,309,o),
(423,392,o),
(308,392,cs),
(245,392,o),
(187,366,o),
(154,319,c),
(175,300,l),
(175,712,l),
(85,712,l),
(86,216,ls)
);
},
{
closed = 1;
nodes = (
(226,68,o),
(179,114,o),
(179,189,cs),
(179,262,o),
(225,310,o),
(299,310,cs),
(373,310,o),
(419,262,o),
(419,189,cs),
(419,115,o),
(372,68,o),
(299,68,cs)
);
}
);
userData = {
com.hugojourdan.ColorFlow = {
"0" = 0;
"1" = 0;
"10" = 0;
"11" = 0;
"2" = 0;
"3" = 0;
"4" = 0;
"5" = 0;
"6" = 0;
"7" = 0;
"8" = 0;
"9" = 0;
};
};
width = 580;
},
{
layerId = "980A8AF2-BF11-492D-9410-496A94B21BD3";
userData = {
com.hugojourdan.ColorFlow = {
"0" = 0;
"1" = 0;
"10" = 0;
"11" = 0;
"2" = 0;
"3" = 0;
"4" = 0;
"5" = 0;
"6" = 0;
"7" = 0;
"8" = 0;
"9" = 0;
};
};
width = 600;
},
{
layerId = "E9FB66CC-5D7A-47B2-9A25-A0E8EEF5BB81";
userData = {
com.hugojourdan.ColorFlow = {
"0" = 0;
"1" = 0;
"10" = 0;
"11" = 0;
"2" = 0;
"3" = 0;
"4" = 0;
"5" = 0;
"6" = 0;
"7" = 0;
"8" = 0;
"9" = 0;
};
};
width = 600;
},
{
layerId = "829AF10C-3E33-4291-B5B6-8F7CF12D6A62";
userData = {
com.hugojourdan.ColorFlow = {
"0" = 0;
"1" = 0;
"10" = 0;
"11" = 0;
"2" = 0;
"3" = 0;
"4" = 0;
"5" = 0;
"6" = 0;
"7" = 0;
"8" = 0;
"9" = 0;
};
};
width = 600;
},
{
associatedMasterId = m01;
layerId = "CEAF70F2-4F47-465D-A6F9-BF7F183E77B7";
name = "Apr 15, 25 at 18:05";
shapes = (
{
closed = 1;
nodes = (
(86,46,o),
(171,-14,o),
(289,-14,cs),
(409,-14,o),
(493,69,o),
(493,188,cs),
(493,309,o),
(409,392,o),
(289,392,cs),
(237,392,o),
(189,376,o),
(156,349,c),
(175,320,l),
(175,712,l),
(85,712,l),
(86,186,ls)
);
},
{
closed = 1;
nodes = (
(222,68,o),
(179,114,o),
(179,189,cs),
(179,262,o),
(221,310,o),
(289,310,cs),
(357,310,o),
(399,262,o),
(399,189,cs),
(399,115,o),
(356,68,o),
(289,68,cs)
);
}
);
userData = {
com.hugojourdan.ColorFlow = {
"0" = 0;
"1" = 0;
"10" = 0;
"11" = 0;
"2" = 0;
"3" = 0;
"4" = 0;
"5" = 0;
"6" = 0;
"7" = 0;
"8" = 0;
"9" = 0;
};
};
width = 570;
}
);
metricLeft = "a-nko";
unicode = 2005;
}
{
glyphname = "ja-nko";
layers = (
{
anchors = (
{
name = bottom;
pos = (300,0);
},
{
name = top;
pos = (300,712);
}
);
layerId = m01;
shapes = (
{
closed = 1;
nodes = (
(364,0,l),
(366,35,o),
(367,70,o),
(367,105,cs),
(367,280,o),
(339,454,o),
(172,630,c),
(142,630,o),
(109,630,o),
(79,630,c),
(246,454,o),
(277,280,o),
(277,105,cs),
(277,70,o),
(276,35,o),
(274,0,c)
);
},
{
closed = 1;
nodes = (
(80,712,l),
(80,629,l),
(392,629,l),
(392,712,l)
);
}
);
userData = {
com.hugojourdan.ColorFlow = {
"0" = 0;
"1" = 0;
"10" = 0;
"11" = 0;
"2" = 0;
"3" = 0;
"4" = 0;
"5" = 0;
"6" = 0;
"7" = 0;
"8" = 0;
"9" = 0;
};
};
width = 600;
},
{
anchors = (
{
name = bottom;
pos = (263,0);
},
{
name = top;
pos = (363,712);
}
);
layerId = "980A8AF2-BF11-492D-9410-496A94B21BD3";
userData = {
com.hugojourdan.ColorFlow = {
"0" = 0;
"1" = 0;
"10" = 0;
"11" = 0;
"2" = 0;
"3" = 0;
"4" = 0;
"5" = 0;
"6" = 0;
"7" = 0;
"8" = 0;
"9" = 0;
};
};
width = 600;
},
{
anchors = (
{
name = bottom;
pos = (300,0);
},
{
name = top;
pos = (300,712);
}
);
layerId = "E9FB66CC-5D7A-47B2-9A25-A0E8EEF5BB81";
userData = {
com.hugojourdan.ColorFlow = {
"0" = 0;
"1" = 0;
"10" = 0;
"11" = 0;
"2" = 0;
"3" = 0;
"4" = 0;
"5" = 0;
"6" = 0;
"7" = 0;
"8" = 0;
"9" = 0;
};
};
width = 600;
},
{
anchors = (
{
name = bottom;
pos = (262,0);
},
{
name = top;
pos = (362,712);
}
);
layerId = "829AF10C-3E33-4291-B5B6-8F7CF12D6A62";
userData = {
com.hugojourdan.ColorFlow = {
"0" = 0;
"1" = 0;
"10" = 0;
"11" = 0;
"2" = 0;
"3" = 0;
"4" = 0;
"5" = 0;
"6" = 0;
"7" = 0;
"8" = 0;
"9" = 0;
};
};
width = 600;
}
);
unicode = 2006;
}
